<?xml version="1.0" encoding="UTF-8" standalone="no"?>
<!-- Created with Inkscape (http://www.inkscape.org/) -->

<svg
   xmlns:dc="http://purl.org/dc/elements/1.1/"
   xmlns:cc="http://creativecommons.org/ns#"
   xmlns:rdf="http://www.w3.org/1999/02/22-rdf-syntax-ns#"
   xmlns:svg="http://www.w3.org/2000/svg"
   xmlns="http://www.w3.org/2000/svg"
   xmlns:sodipodi="http://sodipodi.sourceforge.net/DTD/sodipodi-0.dtd"
   xmlns:inkscape="http://www.inkscape.org/namespaces/inkscape"
   width="744.09448819"
   height="1052.3622047"
   id="svg2993"
   version="1.1"
   inkscape:version="0.48.3.1 r9886"
   sodipodi:docname="mdp2p.svg">
  <defs
     id="defs2995" />
  <sodipodi:namedview
     id="base"
     pagecolor="#ffffff"
     bordercolor="#ffffff"
     borderopacity="0.0"
     inkscape:pageopacity="0.0"
     inkscape:pageshadow="0"
     inkscape:zoom="0.35"
     inkscape:cx="-19.467109"
     inkscape:cy="-60.416491"
     inkscape:document-units="px"
     inkscape:current-layer="layer1"
     showgrid="false"
     inkscape:window-width="1366"
     inkscape:window-height="710"
     inkscape:window-x="0"
     inkscape:window-y="27"
     inkscape:window-maximized="1" />
  <metadata
     id="metadata2998">
    <rdf:RDF>
      <cc:Work
         rdf:about="">
        <dc:format>image/svg+xml</dc:format>
        <dc:type
           rdf:resource="http://purl.org/dc/dcmitype/StillImage" />
        <dc:title></dc:title>
      </cc:Work>
    </rdf:RDF>
  </metadata>
  <g
     inkscape:label="Layer 1"
     inkscape:groupmode="layer"
     id="layer1">
    <flowRoot
       xml:space="preserve"
       id="flowRoot3001"
       style="fill:black;stroke:none;stroke-opacity:1;stroke-width:1px;stroke-linejoin:miter;stroke-linecap:butt;fill-opacity:1;font-family:Sans;font-style:normal;font-weight:normal;font-size:40px;line-height:125%;letter-spacing:0px;word-spacing:0px"><flowRegion
         id="flowRegion3003"><rect
           id="rect3005"
           width="1128.5714"
           height="140"
           x="-405.71429"
           y="1043.7908"
           style="font-size:40px" /></flowRegion><flowPara
         id="flowPara3007"></flowPara></flowRoot>    <flowRoot
       xml:space="preserve"
       id="flowRoot3009"
       style="fill:black;stroke:none;stroke-opacity:1;stroke-width:1px;stroke-linejoin:miter;stroke-linecap:butt;fill-opacity:1;font-family:Sans;font-style:normal;font-weight:normal;font-size:20px;line-height:125%;letter-spacing:0px;word-spacing:0px"><flowRegion
         id="flowRegion3011"><rect
           id="rect3013"
           width="1265.7142"
           height="254.28572"
           x="-585.71429"
           y="803.79077" /></flowRegion><flowPara
         id="flowPara3015"></flowPara></flowRoot>    <flowRoot
       xml:space="preserve"
       id="flowRoot3025"
       style="fill:black;stroke:none;stroke-opacity:1;stroke-width:1px;stroke-linejoin:miter;stroke-linecap:butt;fill-opacity:1;font-family:Sans;font-style:normal;font-weight:normal;font-size:40px;line-height:125%;letter-spacing:0px;word-spacing:0px"><flowRegion
         id="flowRegion3027"><rect
           id="rect3029"
           width="1142.8572"
           height="448.57144"
           x="-491.42856"
           y="663.79077" /></flowRegion><flowPara
         id="flowPara3031"></flowPara></flowRoot>    <flowRoot
       xml:space="preserve"
       id="flowRoot3033"
       style="font-size:144px;font-style:normal;font-weight:normal;line-height:125%;letter-spacing:0px;word-spacing:0px;fill:#000000;fill-opacity:1;stroke:none;font-family:Sans"
       transform="translate(357.14285,-579.99999)"><flowRegion
         id="flowRegion3035"><rect
           id="rect3037"
           width="1531.4286"
           height="537.14288"
           x="-548.57141"
           y="703.79077" /></flowRegion><flowPara
         id="flowPara3039">MDP2P</flowPara></flowRoot>    <path
       sodipodi:type="star"
       style="fill:#0031c6;fill-opacity:1;stroke:#000000;stroke-width:2;stroke-miterlimit:4;stroke-opacity:1;stroke-dasharray:none;stroke-dashoffset:0"
       id="path3043"
       sodipodi:sides="6"
       sodipodi:cx="-1022.8571"
       sodipodi:cy="666.64789"
       sodipodi:r1="256.07715"
       sodipodi:r2="221.76932"
       sodipodi:arg1="1.0471976"
       sodipodi:arg2="1.5707963"
       inkscape:flatsided="true"
       inkscape:rounded="0"
       inkscape:randomized="0"
       d="m -894.81855,888.41721 -256.07715,-10e-6 -128.0386,-221.76932 128.0386,-221.76931 256.07717,10e-6 128.03856,221.76932 z"
       transform="translate(608.57143,459.99999)" />
    <path
       sodipodi:type="star"
       style="fill:#0031c6;fill-opacity:1;stroke:#000000;stroke-width:2;stroke-miterlimit:4;stroke-opacity:1;stroke-dasharray:none;stroke-dashoffset:0"
       id="path3043-0"
       sodipodi:sides="6"
       sodipodi:cx="-1022.8571"
       sodipodi:cy="666.64789"
       sodipodi:r1="256.07715"
       sodipodi:r2="221.76932"
       sodipodi:arg1="1.0471976"
       sodipodi:arg2="1.5707963"
       inkscape:flatsided="true"
       inkscape:rounded="0"
       inkscape:randomized="0"
       d="m -894.81855,888.41721 -256.07715,-10e-6 -128.0386,-221.76932 128.0386,-221.76931 256.07717,10e-6 128.03856,221.76932 z"
       transform="translate(1054.2856,197.14287)" />
    <path
       sodipodi:type="star"
       style="fill:#0031c6;fill-opacity:1;stroke:#000000;stroke-width:2;stroke-miterlimit:4;stroke-opacity:1;stroke-dasharray:none;stroke-dashoffset:0"
       id="path3043-1"
       sodipodi:sides="6"
       sodipodi:cx="-1022.8571"
       sodipodi:cy="666.64789"
       sodipodi:r1="256.07715"
       sodipodi:r2="221.76932"
       sodipodi:arg1="1.0471976"
       sodipodi:arg2="1.5707963"
       inkscape:flatsided="true"
       inkscape:rounded="0"
       inkscape:randomized="0"
       d="m -894.81855,888.41721 -256.07715,-10e-6 -128.0386,-221.76932 128.0386,-221.76931 256.07717,10e-6 128.03856,221.76932 z"
       transform="translate(1048.5714,720.00001)" />
    <path
       sodipodi:type="star"
       style="fill:#0031c6;fill-opacity:1;stroke:#000000;stroke-width:2;stroke-miterlimit:4;stroke-opacity:1;stroke-dasharray:none;stroke-dashoffset:0"
       id="path3043-6"
       sodipodi:sides="6"
       sodipodi:cx="-1022.8571"
       sodipodi:cy="666.64789"
       sodipodi:r1="256.07715"
       sodipodi:r2="221.76932"
       sodipodi:arg1="1.0471976"
       sodipodi:arg2="1.5707963"
       inkscape:flatsided="true"
       inkscape:rounded="0"
       inkscape:randomized="0"
       d="m -894.81855,888.41721 -256.07715,-10e-6 -128.0386,-221.76932 128.0386,-221.76931 256.07717,10e-6 128.03856,221.76932 z"
       transform="translate(1491.4285,460.00001)" />
    <path
       sodipodi:type="star"
       style="fill:#0031c6;fill-opacity:1;stroke:#000000;stroke-width:2;stroke-miterlimit:4;stroke-opacity:1;stroke-dasharray:none;stroke-dashoffset:0"
       id="path3043-3"
       sodipodi:sides="6"
       sodipodi:cx="-1022.8571"
       sodipodi:cy="666.64789"
       sodipodi:r1="256.07715"
       sodipodi:r2="221.76932"
       sodipodi:arg1="1.0471976"
       sodipodi:arg2="1.5707963"
       inkscape:flatsided="true"
       inkscape:rounded="0"
       inkscape:randomized="0"
       d="m -894.81855,888.41721 -256.07715,-10e-6 -128.0386,-221.76932 128.0386,-221.76931 256.07717,10e-6 128.03856,221.76932 z"
       transform="translate(1497.1428,-45.714277)" />
    <path
       style="fill:none;stroke:#000000;stroke-width:10;stroke-linecap:butt;stroke-linejoin:miter;stroke-miterlimit:4;stroke-opacity:1;stroke-dasharray:20, 10;stroke-dashoffset:0"
       d="m -240,1023.7908 c 62.85714,-42.85718 102.85714,-71.42862 102.85714,-71.42862"
       id="path3852"
       inkscape:connector-curvature="0"
       sodipodi:nodetypes="cc" />
    <path
       style="fill:none;stroke:#000000;stroke-width:10;stroke-linecap:butt;stroke-linejoin:miter;stroke-miterlimit:4;stroke-opacity:1;stroke-dasharray:20, 10;stroke-dashoffset:0"
       d="M 197.14285,773.79078 C 259.99999,730.9336 299.99999,702.36216 299.99999,702.36216"
       id="path3852-4"
       inkscape:connector-curvature="0"
       sodipodi:nodetypes="cc" />
    <path
       style="fill:none;stroke:#000000;stroke-width:10;stroke-linecap:butt;stroke-linejoin:miter;stroke-miterlimit:4;stroke-opacity:1;stroke-dasharray:20, 10;stroke-dashoffset:0"
       d="M 197.14286,1293.7907 C 260,1250.9336 300,1222.3621 300,1222.3621"
       id="path3852-7"
       inkscape:connector-curvature="0"
       sodipodi:nodetypes="cc" />
    <path
       style="fill:none;stroke:#000000;stroke-width:10;stroke-linecap:butt;stroke-linejoin:miter;stroke-miterlimit:4;stroke-opacity:1;stroke-dasharray:20, 10;stroke-dashoffset:0"
       d="m 471.42857,930.9336 c -5.71428,-62.85715 -2.85714,-111.42859 -2.85714,-111.42859"
       id="path3852-44"
       inkscape:connector-curvature="0"
       sodipodi:nodetypes="cc" />
    <path
       style="fill:none;stroke:#000000;stroke-width:10;stroke-linecap:butt;stroke-linejoin:miter;stroke-miterlimit:4;stroke-opacity:1;stroke-dasharray:20, 10;stroke-dashoffset:0"
       d="M 30.35714,1179.505 C 24.64286,1116.6479 27.5,1068.0765 27.5,1068.0765"
       id="path3852-44-5"
       inkscape:connector-curvature="0"
       sodipodi:nodetypes="cc" />
    <path
       style="fill:none;stroke:#000000;stroke-width:10;stroke-linecap:butt;stroke-linejoin:miter;stroke-miterlimit:4;stroke-opacity:1;stroke-dasharray:20, 10;stroke-dashoffset:0"
       d="m 313.21429,993.79076 c -49.29938,-30.02738 -97.14143,-59.99716 -97.14285,-60"
       id="path3852-44-2"
       inkscape:connector-curvature="0"
       sodipodi:nodetypes="cc" />
    <path
       style="fill:none;stroke:#000000;stroke-width:10;stroke-linecap:butt;stroke-linejoin:miter;stroke-miterlimit:4;stroke-opacity:1;stroke-dasharray:20, 10;stroke-dashoffset:0"
       d="m -514.28571,656.64791 c 60,2.8571 131.42857,2.8571 131.42857,2.8571"
       id="path3852-0"
       inkscape:connector-curvature="0"
       sodipodi:nodetypes="cc" />
    <flowRoot
       xml:space="preserve"
       id="flowRoot3929"
       style="font-size:20px;font-style:normal;font-weight:normal;line-height:125%;letter-spacing:0px;word-spacing:0px;fill:#000000;fill-opacity:1;stroke:none;font-family:Sans"><flowRegion
         id="flowRegion3931"><rect
           id="rect3933"
           width="345.71429"
           height="117.14286"
           x="628.57141"
           y="1495.2194" /></flowRegion><flowPara
         id="flowPara3935" /></flowRoot>    <flowRoot
       xml:space="preserve"
       id="flowRoot3937"
       style="fill:black;stroke:none;stroke-opacity:1;stroke-width:1px;stroke-linejoin:miter;stroke-linecap:butt;fill-opacity:1;font-family:Sans;font-style:normal;font-weight:normal;font-size:48px;line-height:125%;letter-spacing:0px;word-spacing:0px"><flowRegion
         id="flowRegion3939"><rect
           id="rect3941"
           width="242.85715"
           height="102.85714"
           x="697.14288"
           y="1572.3622" /></flowRegion><flowPara
         id="flowPara3943"></flowPara></flowRoot>    <flowRoot
       xml:space="preserve"
       id="flowRoot3945"
       style="fill:black;stroke:none;stroke-opacity:1;stroke-width:1px;stroke-linejoin:miter;stroke-linecap:butt;fill-opacity:1;font-family:Sans;font-style:normal;font-weight:normal;font-size:48px;line-height:125%;letter-spacing:0px;word-spacing:0px"><flowRegion
         id="flowRegion3947"><rect
           id="rect3949"
           width="268.57144"
           height="97.14286"
           x="828.57141"
           y="1555.2194" /></flowRegion><flowPara
         id="flowPara3951"></flowPara></flowRoot>    <flowRoot
       xml:space="preserve"
       id="flowRoot3961"
       style="font-size:48px;font-style:normal;font-weight:normal;line-height:125%;letter-spacing:0px;word-spacing:0px;fill:#000000;fill-opacity:1;stroke:none;font-family:Sans"
       transform="translate(-1151.4285,-974.28569)"><flowRegion
         id="flowRegion3963"><rect
           id="rect3965"
           width="457.14285"
           height="77.14286"
           x="560"
           y="1643.7908" /></flowRegion><flowPara
         id="flowPara3967">Data Traffic</flowPara></flowRoot>    <path
       style="fill:none;stroke:#000000;stroke-width:10;stroke-linecap:butt;stroke-linejoin:miter;stroke-miterlimit:4;stroke-opacity:1;stroke-dasharray:20, 10;stroke-dashoffset:0"
       d="m -160,1310.9336 c -49.29938,-30.0274 -97.14143,-59.9971 -97.14285,-60"
       id="path3852-44-2-7"
       inkscape:connector-curvature="0"
       sodipodi:nodetypes="cc" />
    <flowRoot
       xml:space="preserve"
       id="flowRoot3987"
       style="font-size:48px;font-style:normal;font-weight:normal;line-height:125%;letter-spacing:0px;word-spacing:0px;fill:#000000;fill-opacity:1;stroke:none;font-family:Sans"
       transform="translate(87.244382,186.22913)"><flowRegion
         id="flowRegion3989"><rect
           id="rect3991"
           width="465.71429"
           height="145.71428"
           x="-545.71429"
           y="1086.6479" /></flowRegion><flowPara
         id="flowPara4011">Isles</flowPara></flowRoot>    <flowRoot
       xml:space="preserve"
       id="flowRoot3995"
       style="font-size:48px;font-style:normal;font-weight:normal;line-height:125%;letter-spacing:0px;word-spacing:0px;fill:#000000;fill-opacity:1;stroke:none;font-family:Sans"
       transform="translate(2.9412488,-151.23572)"><flowRegion
         id="flowRegion3997"><rect
           id="rect3999"
           width="542.85712"
           height="205.71428"
           x="-74.285713"
           y="806.64789" /></flowRegion><flowPara
         id="flowPara4001">Isles</flowPara><flowPara
         id="flowPara4015" /></flowRoot>    <flowRoot
       xml:space="preserve"
       id="flowRoot4003"
       style="font-size:48px;font-style:normal;font-weight:normal;line-height:125%;letter-spacing:0px;word-spacing:0px;fill:#000000;fill-opacity:1;stroke:none;font-family:Sans"
       transform="translate(-1347.5435,-272.74119)"><flowRegion
         id="flowRegion4005"><rect
           id="rect4007"
           width="325.71429"
           height="131.42857"
           x="762.85712"
           y="795.2193" /></flowRegion><flowPara
         id="flowPara4009">TCP/IP Connection</flowPara></flowRoot>    <flowRoot
       xml:space="preserve"
       id="flowRoot4017"
       style="fill:black;stroke:none;stroke-opacity:1;stroke-width:1px;stroke-linejoin:miter;stroke-linecap:butt;fill-opacity:1;font-family:Sans;font-style:normal;font-weight:normal;font-size:48px;line-height:125%;letter-spacing:0px;word-spacing:0px"><flowRegion
         id="flowRegion4019"><rect
           id="rect4021"
           width="1285.7142"
           height="222.85715"
           x="-625.71429"
           y="1512.3622" /></flowRegion><flowPara
         id="flowPara4023"></flowPara></flowRoot>    <flowRoot
       xml:space="preserve"
       id="flowRoot4025"
       style="font-size:64px;font-style:normal;font-weight:normal;line-height:125%;letter-spacing:0px;word-spacing:0px;fill:#000000;fill-opacity:1;stroke:none;font-family:Sans"
       transform="translate(308.57143,-5.7142857)"><flowRegion
         id="flowRegion4027"><rect
           id="rect4029"
           width="1114.2858"
           height="140"
           x="-474.28571"
           y="1655.2194" /></flowRegion><flowPara
         id="flowPara4031">Archipelago</flowPara></flowRoot>    <flowRoot
       xml:space="preserve"
       id="flowRoot3995-4"
       style="font-size:48px;font-style:normal;font-weight:normal;line-height:125%;letter-spacing:0px;word-spacing:0px;fill:#000000;fill-opacity:1;stroke:none;font-family:Sans"
       transform="translate(419.25615,-56.558178)"><flowRegion
         id="flowRegion3997-2"><rect
           id="rect3999-6"
           width="542.85712"
           height="205.71428"
           x="-74.285713"
           y="806.64789" /></flowRegion><flowPara
         id="flowPara4001-7">Isles</flowPara><flowPara
         id="flowPara4015-4" /></flowRoot>    <flowRoot
       xml:space="preserve"
       id="flowRoot3995-8"
       style="font-size:48px;font-style:normal;font-weight:normal;line-height:125%;letter-spacing:0px;word-spacing:0px;fill:#000000;fill-opacity:1;stroke:none;font-family:Sans"
       transform="translate(564.22789,124.03058)"><flowRegion
         id="flowRegion3997-4"><rect
           id="rect3999-3"
           width="542.85712"
           height="205.71428"
           x="-74.285713"
           y="806.64789" /></flowRegion><flowPara
         id="flowPara4001-2">Isles</flowPara><flowPara
         id="flowPara4015-9" /></flowRoot>    <flowRoot
       xml:space="preserve"
       id="flowRoot3995-0"
       style="font-size:48px;font-style:normal;font-weight:normal;line-height:125%;letter-spacing:0px;word-spacing:0px;fill:#000000;fill-opacity:1;stroke:none;font-family:Sans"
       transform="translate(125.75799,371.56211)"><flowRegion
         id="flowRegion3997-8"><rect
           id="rect3999-7"
           width="542.85712"
           height="205.71428"
           x="-74.285713"
           y="806.64789" /></flowRegion><flowPara
         id="flowPara4001-6">Isles</flowPara><flowPara
         id="flowPara4015-98" /></flowRoot>    <flowRoot
       xml:space="preserve"
       id="flowRoot4130"
       style="font-size:36px;font-style:normal;font-weight:normal;line-height:125%;letter-spacing:0px;word-spacing:0px;fill:#000000;fill-opacity:1;stroke:none;font-family:Sans"
       transform="translate(-20,31.428571)"><flowRegion
         id="flowRegion4132"><rect
           id="rect4134"
           width="914.28571"
           height="154.28572"
           x="-331.42856"
           y="260.93362" /></flowRegion><flowPara
         id="flowPara4136">Multi-Directional Player To Player Connection</flowPara></flowRoot>    <path
       style="fill:#00ab00;stroke:#000000;stroke-width:1px;stroke-linecap:butt;stroke-linejoin:miter;stroke-opacity:1;fill-opacity:1"
       d="m -490,991.6479 c -1.54134,2.05571 -4.09319,3.68792 -5.71429,5.71428 -1.07255,1.3407 -1.78458,2.94502 -2.85714,4.28572 -0.42069,0.5259 -1.00788,0.9027 -1.42857,1.4286 -1.71184,2.1398 -1.74894,2.9437 -2.85714,5.7143 -0.47619,1.1904 -1.17712,2.3141 -1.42857,3.5714 -0.23348,1.1673 0,2.3809 0,3.5714 0,0.4762 0.21295,1.0027 0,1.4286 -0.30117,0.6023 -1.12741,0.8262 -1.42858,1.4286 -0.21296,0.4259 0,0.9523 0,1.4285 0,0.4762 0,0.9524 0,1.4286 0,1.4286 0,2.8571 0,4.2857 0,1.4286 0,2.8572 0,4.2857 0,0.4762 -0.21296,1.0027 0,1.4286 0.30117,0.6023 0.95238,0.9524 1.42858,1.4286 0.47619,0.4762 0.78104,1.2435 1.42857,1.4285 2.28934,0.6541 4.80814,-0.4669 7.14285,0 1.25729,0.2515 2.38096,0.9524 3.57143,1.4286 1.19048,0.4762 2.38095,0.9524 3.57143,1.4286 1.19048,0.4762 2.45818,0.7924 3.57143,1.4286 0.5847,0.3341 0.82623,1.1274 1.42857,1.4285 0.42592,0.213 1.00265,-0.2129 1.42857,0 0.60234,0.3012 0.95238,0.9524 1.42857,1.4286 0.47619,0.4762 0.95238,0.9524 1.42858,1.4286 0.85751,0.8575 2.55678,2.37 2.85714,3.5714 0.74671,2.9868 -0.3621,4.4767 -1.42857,7.1429 -0.47619,1.1904 -0.95238,2.3809 -1.42857,3.5714 -1.42858,3.5714 -2.85715,7.1428 -4.28572,10.7143 -0.47619,1.1904 -0.95238,2.3809 -1.42857,3.5714 -0.47619,1.1905 -1.17712,2.3141 -1.42857,3.5714 -0.23347,1.1674 0.23347,2.4041 0,3.5715 -0.25146,1.2572 -1.17712,2.3141 -1.42857,3.5714 -0.46695,2.3347 0.46694,4.8081 0,7.1428 -0.25146,1.2573 -1.07633,2.3386 -1.42857,3.5715 -0.15868,0.5553 0,3.5478 0,4.2857 0,0.4565 -0.10303,4.0797 0,4.2857 0.30116,0.6023 0.95238,0.9524 1.42857,1.4286 0.95238,0.9523 1.80541,2.0157 2.85714,2.8571 -1.13655,3.0227 2.24888,1.0231 2.85714,1.4286 0.56033,0.3735 0.88983,1.0245 1.42857,1.4286 0.42592,0.3194 1.05211,0.3378 1.42858,0.7142 3.45761,3.4577 -1.54895,-0.5377 0.71428,2.8572 0.29532,0.443 1.19048,0.2381 1.42857,0.7143 0.31944,0.6388 0,1.4285 0,2.1428 0,1.1905 0,2.381 0,3.5715 0,1.1904 0.23347,2.404 0,3.5714 -0.25145,1.2573 -1.21778,2.3067 -1.42857,3.5714 -0.274,1.644 0,3.3333 0,5 0,1.6667 0,3.3333 0,5 0,4.466 -0.45787,5.7555 1.42857,10 0.27351,0.6154 0.95238,0.9524 1.42857,1.4286 0.95238,0.9524 1.90477,1.9047 2.85715,2.8571 0.97532,0.9753 2.21983,2.4066 3.57143,2.8572 0.67763,0.2258 1.44989,-0.1733 2.14285,0 7.48282,1.8707 -0.31611,1.4285 7.14286,1.4285 1.66667,0 3.33333,0 5,0 0.47619,0 1.00265,-0.2129 1.42857,0 0.60234,0.3012 0.88982,1.0246 1.42857,1.4286 0.42592,0.3194 0.91207,0.5852 1.42857,0.7143 0.54319,0.1358 2.9733,0 3.57143,0 0.47619,0 0.97682,0.1506 1.42857,0 0.31944,-0.1065 0.44492,-0.5123 0.71429,-0.7143 0.68677,-0.5151 1.42857,-0.9524 2.14286,-1.4286 0.71428,-0.4762 1.37502,-1.0446 2.14285,-1.4285 3.74141,-1.8707 3.1577,-1.4286 7.14286,-1.4286 1.19048,0 2.38095,0 3.57143,0 0.47619,0 1.00265,-0.213 1.42857,0 0.60234,0.3012 0.84387,1.0945 1.42857,1.4286 1.11325,0.6361 2.42461,0.8551 3.57143,1.4285 1.24175,0.6209 2.38095,1.4286 3.57143,2.1429 1.19048,0.7143 2.41627,1.3728 3.57143,2.1429 0.11175,0.074 9.97495,7.1303 10,7.1428 1.55036,0.7752 3.33333,0.9524 5,1.4286 1.66666,0.4762 3.33333,0.9524 5,1.4286 1.66666,0.4761 3.28406,1.1834 5,1.4285 1.64991,0.2357 3.33333,0 5,0 1.19047,0 2.38095,0 3.57143,0 1.19047,0 2.43116,0.3421 3.57143,0 3.23066,-0.9692 3.46721,-1.9865 5,-4.2857 0.47619,-0.7143 1.22036,-1.31 1.42857,-2.1428 0.28873,-1.155 0,-2.381 0,-3.5715 0,-1.6666 0.2357,-3.3501 0,-5 -0.24514,-1.7159 -0.95238,-3.3333 -1.42857,-5 -0.4762,-1.6666 -0.95239,-3.3333 -1.42858,-5 -0.47619,-1.6666 -0.84558,-3.3676 -1.42857,-5 -0.60987,-1.7076 -1.44544,-3.3262 -2.14285,-5 -0.49315,-1.1835 -0.95239,-2.3809 -1.42858,-3.5714 -0.47619,-1.1905 -0.95238,-2.381 -1.42857,-3.5714 -0.47619,-0.4762 -1.1274,-0.8263 -1.42857,-1.4286 -0.21296,-0.4259 0.21296,-1.0027 0,-1.4286 -0.30117,-0.6023 -1.1274,-0.8262 -1.42857,-1.4285 -0.21296,-0.426 0,-0.9524 0,-1.4286 0,-0.4762 -0.21296,-1.0027 0,-1.4286 0.30117,-0.6023 0.95238,-0.9524 1.42857,-1.4286 0.47619,-0.4762 0.95238,-0.9523 1.42857,-1.4285 0.47619,-0.4762 0.95238,-0.9524 1.42857,-1.4286 0.47619,-0.4762 0.80331,-1.1785 1.42858,-1.4286 0.66319,-0.2653 1.46522,0.2259 2.14285,0 0.81441,-0.2714 1.3458,-1.1097 2.14286,-1.4285 0.44213,-0.1769 0.95238,0 1.42857,0 4.74074,0 2.40212,0 7.14286,0 8.57143,0 17.14286,0 25.71428,0 2.38096,0 4.76191,0 7.14286,0 1.19048,0 2.40407,0.2334 3.57143,0 1.25728,-0.2515 2.42461,-0.8552 3.57143,-1.4286 1.24175,-0.6209 2.38095,-1.4286 3.57143,-2.1429 1.19047,-0.7143 2.48733,-1.2756 3.57143,-2.1428 1.31466,-1.0518 2.38095,-2.381 3.57142,-3.5715 1.19048,-1.1904 2.38096,-2.3809 3.57143,-3.5714 1.19048,-1.1905 2.60596,-2.1922 3.57143,-3.5714 0.73528,-1.0504 0.79243,-2.4582 1.42857,-3.5714 0.33412,-0.5848 1.1274,-0.8263 1.42857,-1.4286 0.21296,-0.4259 -0.47619,-1.4286 0,-1.4286 1.28219,0 2.34332,1.0602 3.57143,1.4286 1.16285,0.3488 2.38095,0.4762 3.57143,0.7143 1.19048,0.4762 2.35504,1.0231 3.57143,1.4285 1.64441,0.5482 3.33333,0.9524 5,1.4286 1.66667,0.4762 3.28406,1.1834 5,1.4286 1.64992,0.2357 3.35601,-0.274 5,0 1.26474,0.2108 2.31415,1.1771 3.57143,1.4286 1.16736,0.2334 2.38095,0 3.57143,0 0.47619,0 1.00265,0.2129 1.42857,0 0.60234,-0.3012 1.21561,-0.7897 1.42857,-1.4286 0.30117,-0.9035 0,-1.9048 0,-2.8572 0,-1.1904 0.19571,-2.3971 0,-3.5714 -0.28496,-1.7098 -0.95238,-3.3333 -1.42857,-5 -0.47619,-1.6667 -0.95238,-3.3333 -1.42857,-5 -0.47619,-1.6667 -0.95238,-3.3333 -1.42857,-5 -0.4762,-1.6667 -0.7619,-3.4 -1.42858,-5 -1.04845,-2.5163 -3.53874,-5.62 -5.71428,-7.1428 -1.05041,-0.7353 -2.38095,-0.9524 -3.57143,-1.4286 -1.19048,-0.4762 -2.38095,-0.9524 -3.57143,-1.4286 -1.19048,-0.4762 -2.31414,-1.1771 -3.57143,-1.4286 -1.16736,-0.2334 -2.42675,0.3271 -3.57143,0 -0.64752,-0.185 -0.8033,-1.1784 -1.42857,-1.4285 -0.6632,-0.2653 -1.47966,0.2652 -2.14285,0 -0.0785,-0.031 -2.63401,-2.6787 -2.85715,-2.8572 -2.00348,-1.6028 -4.42508,-2.6829 -6.42857,-4.2857 -1.05173,-0.8414 -1.90476,-1.9048 -2.85714,-2.8571 -0.47619,-0.4762 -0.95238,-0.9524 -1.42857,-1.4286 -0.47619,-0.4762 -1.12741,-0.8262 -1.42857,-1.4286 -0.21296,-0.4259 0.21295,-1.0026 0,-1.4285 -0.30117,-0.6024 -1.12741,-0.8263 -1.42858,-1.4286 -0.21295,-0.4259 0.21296,-1.0027 0,-1.4286 -0.30117,-0.6023 -1.1274,-0.8262 -1.42857,-1.4286 -0.21296,-0.4259 0.21296,-1.0026 0,-1.4285 -0.30117,-0.6024 -0.95238,-0.9524 -1.42857,-1.4286 -0.47619,-0.4762 -0.95238,-0.9524 -1.42857,-1.4286 -0.47619,-0.4762 -0.82623,-1.1274 -1.42857,-1.4285 -0.42592,-0.213 -0.95238,0 -1.42857,0 -0.71429,0 -1.42857,0 -2.14286,0 -2.14286,0 -4.28571,0 -6.42857,0 -0.47619,0 -1.00266,-0.213 -1.42857,0 -0.60234,0.3011 -0.90271,1.0078 -1.42857,1.4285 -0.67035,0.5363 -1.47251,0.8923 -2.14286,1.4286 -1.05173,0.8414 -1.73648,2.11 -2.85714,2.8571 -0.19811,0.1321 -0.51618,-0.132 -0.71429,0 -1.70771,1.1385 -0.90318,1.6544 -2.85714,2.1429 -0.46198,0.1155 -1.00266,-0.213 -1.42857,0 -1.14175,0.5709 -1.7154,2.2863 -2.85715,2.8571 -0.42592,0.213 -0.95238,0 -1.42857,0 -0.47619,0 -1.00265,0.213 -1.42857,0 -0.60234,-0.3011 -0.82623,-1.1274 -1.42857,-1.4285 -0.87805,-0.4391 -1.92583,-0.4039 -2.85714,-0.7143 -1.21639,-0.4055 -2.38096,-0.9524 -3.57143,-1.4286 -3.57143,-1.4286 -7.14286,-2.8571 -10.71429,-4.2857 -1.19048,-0.4762 -2.33858,-1.0763 -3.57143,-1.4286 -0.71496,-0.2042 -3.80839,0.2387 -4.28571,0 -0.85714,-0.4285 -1.28572,-1.7143 -2.14286,-2.1428 -0.21296,-0.1065 -0.51618,0.132 -0.71428,0 -0.56034,-0.3736 -0.95239,-0.9524 -1.42858,-1.4286 -1.41176,-1.4118 -1.44537,-1.4454 -2.85714,-2.8571 -0.47619,-0.4762 -1.00788,-0.9028 -1.42857,-1.4286 -0.53628,-0.6704 -0.89229,-1.4725 -1.42857,-2.1429 -0.42069,-0.5258 -1.09446,-0.8438 -1.42857,-1.4285 -1.27228,-2.2265 -1.58487,-4.9164 -2.85715,-7.1429 -0.66823,-1.1694 -2.04902,-1.7796 -2.85714,-2.8571 -0.97162,-1.2955 -0.39327,-1.9824 -2.14286,-2.8572 -1.97051,-0.9852 -1.27781,1.7301 -2.85714,-1.4286 -0.81801,-1.636 0.48865,-1.5789 1.42857,-2.1428 4.89389,-2.9363 -1.1609,-0.08 5.71429,-2.1429 1.22811,-0.3684 2.38095,-0.9524 3.57143,-1.4285 3.57143,-1.4286 7.14285,-2.8572 10.71428,-4.28576 2.38095,-0.95238 4.76191,-1.90476 7.14286,-2.85714 1.19048,-0.47619 2.42461,-0.85517 3.57143,-1.42857 1.24175,-0.62088 2.32967,-1.52199 3.57143,-2.14286 4.82797,-2.41399 2.50713,-0.2602 7.14285,-3.57143 0.548,-0.39143 0.95238,-0.95238 1.42858,-1.42857 2.03559,-2.0356 1.05501,-0.86824 2.85714,-3.57143 0.47619,-0.71429 1.1571,-1.32845 1.42857,-2.14286 0.22588,-0.67763 0,-1.42857 0,-2.14285 0,-1.19048 0,-2.38096 0,-3.57143 0,-0.71429 0,-1.42857 0,-2.14286 0,-0.47619 0.21296,-1.00265 0,-1.42857 -0.30117,-0.60234 -1.1274,-0.82623 -1.42857,-1.42857 -0.21296,-0.42592 0.21296,-1.00266 0,-1.42857 -0.60234,-1.20468 -2.25481,-1.65247 -2.85714,-2.85715 -0.21296,-0.42592 0.21295,-1.00265 0,-1.42857 -0.30117,-0.60234 -1.12741,-0.82623 -1.42858,-1.42857 -0.29796,-0.59593 0.33258,-2.52456 0,-2.85714 -0.33671,-0.33672 -1.00265,0.21296 -1.42857,0 -0.60234,-0.30117 -0.86824,-1.05502 -1.42857,-1.42857 -0.19811,-0.13208 -0.47619,0 -0.71428,0 -0.4762,0 -0.9666,0.11549 -1.42858,0 -0.5165,-0.12913 -0.92349,-0.54593 -1.42857,-0.71429 -0.71428,-0.2381 -1.42857,0.47619 -2.14285,0 -0.44299,-0.29532 -0.27131,-1.13325 -0.71429,-1.42857 -0.79243,-0.52829 -2.00531,0.42592 -2.85714,0 -0.60234,-0.30117 -0.82624,-1.1274 -1.42857,-1.42857 -0.42592,-0.21296 -0.96163,0.0934 -1.42858,0 -4.70081,-0.94017 0.3939,-0.71429 -4.28571,-0.71429 -0.47619,0 -1.09185,0.33672 -1.42857,0 -0.33672,-0.33672 -0.42592,-1.21561 0,-1.42857 0.85183,-0.42592 1.92325,0.18678 2.85714,0 1.47661,-0.29532 2.84646,-0.98572 4.28572,-1.42857 4.90236,-1.50842 4.66103,-0.77829 8.57142,-3.57143 0.548,-0.39143 1.12741,-0.82623 1.42858,-1.42857 0.21295,-0.42592 -0.21296,-1.00266 0,-1.42857 0.30116,-0.60234 1.1274,-0.82624 1.42857,-1.42857 0.21296,-0.42592 0,-0.95239 0,-1.42858 0,-1.94612 -0.0687,-2.88005 -2.14286,-3.57142 -0.35911,-0.11971 -4.09915,0 -4.28571,0 -2.38096,0 -4.76191,0 -7.14286,0 -4.74074,0 -2.40212,0 -7.14286,0 -1.19048,0 -2.40407,-0.23348 -3.57143,0 -1.25728,0.25145 -2.31414,1.17711 -3.57143,1.42857 -1.16735,0.23347 -2.40407,-0.23347 -3.57142,0 -1.25729,0.25145 -2.31415,1.17711 -3.57143,1.42857 -1.16736,0.23347 -2.40407,-0.23347 -3.57143,0 -8.80908,1.76181 -0.24225,0.47826 -5,2.85714 -0.42592,0.21296 -1.00266,-0.21296 -1.42857,0 -0.60234,0.30117 -0.95238,0.95238 -1.42857,1.42857 -0.95239,0.95238 -1.80542,2.01576 -2.85715,2.85715 -1.34069,1.07255 -2.94502,1.78458 -4.28571,2.85714 -0.52587,0.42069 -0.95238,0.95238 -1.42857,1.42857 -1.42857,1.42857 -2.85715,2.85714 -4.28572,4.28571 -0.47619,0.47619 -0.9027,1.00788 -1.42857,1.42858 -0.67035,0.53627 -1.47251,0.89229 -2.14286,1.42857 -0.52586,0.42069 -0.9027,1.00788 -1.42857,1.42857 -0.67035,0.53628 -1.47251,0.89229 -2.14285,1.42857 -0.52587,0.42069 -0.90271,1.00788 -1.42858,1.42857 -0.67034,0.53628 -1.42857,0.95238 -2.14285,1.42857 -0.71429,0.47619 -1.32845,1.1571 -2.14286,1.42857 -0.67763,0.22588 -1.47966,-0.26528 -2.14286,0 -0.62527,0.25011 -0.8033,1.17847 -1.42857,1.42858 -0.6632,0.26527 -1.42857,0 -2.14286,0 -0.47619,0 -0.98644,0.17685 -1.42857,0 -0.79706,-0.31883 -1.32844,-1.15711 -2.14285,-1.42858 -0.67764,-0.22587 -1.46523,0.22588 -2.14286,0 -0.81441,-0.27147 -1.37502,-1.04465 -2.14286,-1.42857 -2.29364,-1.14682 -4.91636,-1.58486 -7.14286,-2.85714 -0.5847,-0.33412 -0.8033,-1.17846 -1.42857,-1.42857 -0.6632,-0.26528 -1.46522,0.22588 -2.14285,0 -0.81442,-0.27147 -1.3458,-1.10975 -2.14286,-1.42857 -0.39067,-0.15627 -3.68038,0 -4.28572,0 -0.40374,0 -3.33669,-0.1565 -3.57142,0 -1.12067,0.74711 -1.65247,2.2548 -2.85715,2.85714 -0.42592,0.21296 -1.00265,-0.21296 -1.42857,0 -0.60234,0.30117 -0.82623,1.1274 -1.42857,1.42857 -0.42592,0.21296 -1.03236,-0.26414 -1.42857,0 -0.44298,0.29532 -0.33783,1.05211 -0.71429,1.42857 -0.37646,0.37646 -1.00265,0.39485 -1.42857,0.71429 -5.13784,3.85338 1.50741,-0.79313 -2.14286,2.85714 -0.37646,0.37646 -1.05211,0.33783 -1.42857,0.71429 -1.75465,0.25469 -0.29664,1.51638 -0.71428,2.14285 -0.37356,0.56034 -1.12741,0.82624 -1.42857,1.42858 -0.42592,0.85183 0.52828,2.06471 0,2.85714 -0.29533,0.44298 -1.00266,0.39485 -1.42858,0.71428 -3.79038,2.84279 0.003,-0.007 -1.42857,2.85715 -0.30117,0.60234 -1.1274,0.82623 -1.42857,1.42857 -0.42592,0.85183 0.30117,1.95363 0,2.85714 -1.051,3.15301 -0.71428,-2.59512 -0.71428,2.14286 0,0.47619 0,0.95238 0,1.42857 0,0.23809 0.21295,0.60781 0,0.71429 -0.42592,0.21295 -1.09186,-0.33672 -1.42858,0 -0.33671,0.33671 0.15059,0.97681 0,1.42857 -0.58978,1.76934 -3.92825,0.0715 -4.28571,0 z"
       id="path4140"
       inkscape:connector-curvature="0" />
    <path
       style="fill:#00ab00;stroke:#000000;stroke-width:1px;stroke-linecap:butt;stroke-linejoin:miter;stroke-opacity:1;fill-opacity:1"
       d="m -519.28571,1178.7908 c 0.57263,-3.0107 2.48554,-0.1714 3.57142,-0.7143 0.30117,-0.1506 0.41312,-0.5637 0.71429,-0.7143 0.21717,-0.1086 2.36391,0 2.85714,0 0.47619,0 1.00266,-0.213 1.42857,0 0.60234,0.3012 1.02451,0.8898 1.42858,1.4286 1.5175,2.0233 0.15319,4.1841 0.71428,6.4285 0.25825,1.033 1.19759,1.8177 1.42857,2.8572 0.25825,1.1621 0,2.3809 0,3.5714 0.47619,1.1905 1.07633,2.3386 1.42857,3.5714 0.13082,0.4579 -0.21296,1.0027 0,1.4286 0.30117,0.6023 0.95238,0.9524 1.42858,1.4286 1.88235,1.8823 0.97479,0.9748 2.85714,2.8571 4.73797,4.738 -0.67344,-1.3469 1.42857,2.8572 0.10648,0.2129 0.51618,-0.1321 0.71429,0 0.56033,0.3735 0.82623,1.1274 1.42857,1.4285 0.42591,0.213 1.03235,-0.2641 1.42857,0 0.44298,0.2953 0.2713,1.1333 0.71428,1.4286 0.23238,0.1549 3.03199,0 3.57143,0 4.73798,0 -1.01015,-0.3367 2.14286,0.7143 0.0808,0.027 3.37801,0.064 3.57143,0 4.7619,-1.5873 -1.66667,0.3968 2.14286,-2.1429 0.39621,-0.2641 1.03235,0.2642 1.42857,0 0.44298,-0.2953 0.2713,-1.1332 0.71428,-1.4285 0.42857,-0.2858 1.57143,0.1428 2.14286,0 0.73044,-0.1827 1.41241,-0.5317 2.14286,-0.7143 0.29608,-0.074 4.05737,-0.076 4.28571,0 0.50508,0.1683 0.9235,0.5459 1.42857,0.7143 0.22588,0.075 0.51618,-0.1321 0.71429,0 3.85338,2.5689 -0.49196,0.2223 2.14286,2.8571 0.37646,0.3765 1.00265,0.3948 1.42857,0.7143 5.13784,3.8534 -1.50742,-0.7931 2.14285,2.8571 0.37647,0.3765 1.00266,0.3949 1.42858,0.7143 0.16758,0.1257 2.77081,2.814 2.85714,2.8572 0.42592,0.2129 1.00265,-0.213 1.42857,0 0.60234,0.3011 0.88982,1.0245 1.42857,1.4285 0.42592,0.3195 1.00265,0.3949 1.42857,0.7143 0.53875,0.4041 0.95238,0.9524 1.42857,1.4286 0.47619,0.4762 0.95238,0.9524 1.42858,1.4286 0.47619,0.4761 0.95238,0.9523 1.42857,1.4285 0.47619,0.4762 1.02451,0.8898 1.42857,1.4286 0.31944,0.4259 0.39485,1.0027 0.71428,1.4286 0.40406,0.5387 0.95238,0.9523 1.42858,1.4285 1.42857,1.4286 2.85714,2.8572 4.28571,4.2858 0.47619,0.4761 1.00788,0.9027 1.42857,1.4285 0.53628,0.6704 0.89229,1.4725 1.42857,2.1429 0.42069,0.5258 0.95238,0.9524 1.42857,1.4286 1.42858,1.4285 2.85715,2.8571 4.28572,4.2857 0.47619,0.4762 1.05501,0.8682 1.42857,1.4285 0.13207,0.1981 -0.13207,0.5162 0,0.7143 0.37355,0.5604 1.1274,0.8263 1.42857,1.4286 0.21296,0.4259 0,0.9524 0,1.4286 0,0.4762 0,0.9523 0,1.4285 0,0.4762 0,0.9524 0,1.4286 0,0.4762 0.21296,1.0027 0,1.4286 -0.30117,0.6023 -0.95238,0.9524 -1.42857,1.4286 -1.02561,1.0256 -2.44991,2.6742 -3.57143,3.5714 -0.67035,0.5363 -1.53583,0.8215 -2.14286,1.4286 -0.37646,0.3764 -0.33782,1.0521 -0.71428,1.4285 -0.60703,0.6071 -1.42857,0.9524 -2.14286,1.4286 -0.71428,0.4762 -1.42857,0.9524 -2.14286,1.4286 -0.71428,0.4762 -1.31002,1.2203 -2.14285,1.4285 -1.15493,0.2888 -2.38096,0 -3.57143,0 -1.19048,0 -2.38095,0 -3.57143,0 -4.28571,0 -8.57143,0 -12.85714,0 -1.42857,0 -2.85715,0 -4.28572,0 -0.47619,0 -0.96163,-0.093 -1.42857,0 -2.17793,0.4356 -4.37427,1.7848 -5.71428,3.5715 -0.31944,0.4259 -0.39485,1.0026 -0.71429,1.4285 -3.85338,5.1379 0.79313,-1.5074 -2.85714,2.1429 -0.37646,0.3765 -0.27131,1.1332 -0.71429,1.4286 -0.39621,0.2641 -0.97682,-0.1506 -1.42857,0 -0.31944,0.1064 -0.39485,0.6078 -0.71429,0.7143 -0.52794,0.1759 -3.25145,-0.2134 -3.57142,0 -0.56034,0.3735 -0.86824,1.055 -1.42858,1.4285 -0.1981,0.1321 -0.47619,0 -0.71428,0 -0.95238,0 -1.90476,0 -2.85714,0 -0.4762,0 -0.95239,0 -1.42858,0 -0.23809,0 -0.50132,0.1065 -0.71428,0 -0.76784,-0.3839 -1.34579,-1.1097 -2.14286,-1.4285 -0.88426,-0.3538 -1.9332,0.2309 -2.85714,0 -0.5165,-0.1292 -0.91207,-0.5852 -1.42857,-0.7143 -0.92395,-0.231 -1.97288,0.3537 -2.85715,0 -4.3879,-1.7552 -0.64134,-0.6414 -2.85714,-2.8572 -1.21405,-1.214 -2.94502,-1.7846 -4.28571,-2.8571 -0.52587,-0.4207 -0.90271,-1.0079 -1.42857,-1.4286 -0.67035,-0.5363 -1.47251,-0.8923 -2.14286,-1.4286 -0.52587,-0.4207 -0.95238,-0.9523 -1.42857,-1.4285 -0.95238,-0.9524 -1.90477,-1.9048 -2.85715,-2.8572 -0.47619,-0.4762 -0.95238,-0.9524 -1.42857,-1.4285 -0.47619,-0.4762 -1.1274,-0.8263 -1.42857,-1.4286 -0.21296,-0.4259 0.21296,-1.0027 0,-1.4286 -0.30117,-0.6023 -0.95238,-0.9524 -1.42857,-1.4286 -0.95238,-0.9523 -2.01576,-1.8054 -2.85714,-2.8571 -1.07256,-1.3407 -1.78459,-2.945 -2.85715,-4.2857 -0.42069,-0.5259 -1.1274,-0.8263 -1.42857,-1.4286 -0.21296,-0.4259 0.21296,-1.0026 0,-1.4286 -0.30117,-0.6023 -1.1274,-0.8262 -1.42857,-1.4285 -0.21296,-0.4259 0.21296,-1.0027 0,-1.4286 -0.30117,-0.6023 -1.1274,-0.8262 -1.42857,-1.4286 -0.21296,-0.4259 0,-0.9524 0,-1.4285 0,-1.1905 0,-2.381 0,-3.5715 0,-0.4565 -0.10302,-4.0796 0,-4.2857 1.28446,-2.5689 1.23778,-0.5235 2.85714,-2.1428 3.65027,-3.6503 -2.99498,0.9962 2.14286,-2.8572 2.08587,-1.5644 0.98259,0.3566 2.85714,-2.1428 0.31944,-0.426 0.39485,-1.0027 0.71429,-1.4286 0.40406,-0.5388 1.1274,-0.8263 1.42857,-1.4286 0.21296,-0.4259 0,-0.9524 0,-1.4286 0,-0.4762 0.21296,-1.0026 0,-1.4285 -0.30117,-0.6024 -0.95238,-0.9524 -1.42857,-1.4286 -0.71429,-0.7143 -1.42857,-1.4286 -2.14286,-2.1429 -0.47619,-0.4762 -1.05502,-0.8682 -1.42857,-1.4285 -0.13207,-0.1981 0.10648,-0.5014 0,-0.7143 -0.15059,-0.3012 -0.5637,-0.4131 -0.71429,-0.7143 -0.10869,-0.2174 0,-1.8212 0,-2.1429 0,-1.4285 0,-2.8571 0,-4.2857 0,-1.1905 0,-2.3809 0,-3.5714 0,-0.4762 0,-0.9524 0,-1.4286 0,-0.2381 -0.13207,-0.5162 0,-0.7143 0.37356,-0.5603 1.12741,-0.8262 1.42858,-1.4285 0.16511,-0.3303 -0.17724,-3.3942 0,-3.5715 0.33671,-0.3367 1.09185,0.3368 1.42857,0 0.33671,-0.3367 -0.15059,-0.9768 0,-1.4285 0.17391,-0.5218 2.68323,-2.3354 2.85714,-2.8572 0.15058,-0.4517 0,-0.9524 0,-1.4285 0.47619,-0.2381 1.13325,-0.2714 1.42857,-0.7143 0.26414,-0.3962 -0.21296,-1.0027 0,-1.4286 0.10648,-0.213 0.54593,0.1684 0.71429,0 0.16836,-0.1684 0,-0.4762 0,-0.7143 1.19047,-0.7143 2.38095,-1.4286 3.57143,-2.1428 z"
       id="path4144"
       inkscape:connector-curvature="0" />
    <path
       style="fill:#00ab00;stroke:#000000;stroke-width:1px;stroke-linecap:butt;stroke-linejoin:miter;stroke-opacity:1;fill-opacity:1"
       d="m -551.42857,1045.9336 c 6.46896,4.8517 0.89996,0.01 3.57143,3.5714 0.40406,0.5388 1.1274,0.8263 1.42857,1.4286 0.21296,0.4259 -0.17685,0.9865 0,1.4286 3.38765,8.4691 -0.42224,-2.9874 2.85714,3.5714 0.21296,0.4259 -0.21296,1.0027 0,1.4286 0.30117,0.6023 1.1274,0.8262 1.42857,1.4286 2.10201,4.204 -3.3094,-1.8809 1.42857,2.8571 2.38096,2.3809 4.76191,4.7619 7.14286,7.1429 0.47619,0.4761 0.95238,0.9523 1.42857,1.4285 0.47619,0.4762 0.88983,1.0245 1.42857,1.4286 0.42592,0.3194 1.00266,0.3948 1.42858,0.7143 0.87574,0.6568 1.86206,1.734 2.14285,2.8571 0.1155,0.462 0,0.9524 0,1.4286 0,2.1429 0,4.2857 0,6.4286 0,1.6666 0,3.3333 0,5 0,0.4762 0.0674,0.9571 0,1.4285 -0.17169,1.2019 -0.59348,2.3634 -0.71428,3.5715 -0.11846,1.1845 0,2.3809 0,3.5714 0,1.1905 0,2.3809 0,3.5714 0,1.6667 0,3.3334 0,5 0,0.4762 0,0.9524 0,1.4286 0,0.4762 -0.1155,0.9666 0,1.4286 0.12912,0.5165 0.54592,0.9235 0.71428,1.4285 0.35715,1.0715 -0.71428,0.7143 0,2.1429 0.30117,0.6023 1.1274,0.8262 1.42857,1.4286 0.21296,0.4259 -0.21296,1.0026 0,1.4285 0.30117,0.6024 1.12741,0.8263 1.42858,1.4286 0.21295,0.4259 0,0.9524 0,1.4286 0,0.4762 0,0.9524 0,1.4286 0,0.4761 0,0.9523 0,1.4285 0,0.2381 0.0753,0.4884 0,0.7143 -0.78519,2.3556 -2.50675,2.8625 -4.28572,4.2857 -4.25721,3.4058 1.40006,-0.5486 -2.85714,2.8572 -0.67035,0.5362 -1.47251,0.8923 -2.14286,1.4285 -0.52586,0.4207 -0.90271,1.0079 -1.42857,1.4286 -0.67035,0.5363 -1.47251,0.8923 -2.14286,1.4286 -1.05173,0.8414 -1.90476,1.9047 -2.85714,2.8571 -0.47619,0.4762 -0.82623,1.1274 -1.42857,1.4286 -0.42592,0.213 -1.00266,-0.213 -1.42857,0 -0.60234,0.3012 -0.82624,1.1274 -1.42857,1.4286 -0.42592,0.2129 -1.09186,-0.3367 -1.42858,0 -0.33671,0.3367 0.33672,1.0918 0,1.4285 -0.33671,0.3368 -1.09185,-0.3367 -1.42857,0 -0.33672,0.3368 0.33672,1.0919 0,1.4286 -0.67343,0.6734 -2.18371,-0.6734 -2.85714,0 -0.33672,0.3367 0.21296,1.0027 0,1.4286 -0.30117,0.6023 -1.05502,0.8682 -1.42857,1.4286 -0.13207,0.1981 0.16836,0.5459 0,0.7142 -0.16836,0.1684 -0.54593,-0.1683 -0.71429,0 -0.16836,0.1684 0.10648,0.5014 0,0.7143 -0.0948,0.1897 -1.9532,2.0481 -2.14285,2.1429 -0.21296,0.1065 -0.50133,-0.1065 -0.71429,0 -0.30117,0.1506 -0.39485,0.6078 -0.71429,0.7143 -0.67763,0.2258 -1.42857,0 -2.14285,0 -0.2381,0 -0.50133,0.1064 -0.71429,0 -0.43307,-0.2166 -2.55123,-2.6277 -2.85714,-2.8572 -0.42592,-0.3194 -1.10914,-0.2883 -1.42857,-0.7143 -3.48568,-4.6475 2.5537,0.4109 -2.14286,-4.2857 -0.37646,-0.3764 -1.13325,-0.2713 -1.42857,-0.7143 -0.26414,-0.3962 0.21296,-1.0026 0,-1.4285 -0.30117,-0.6024 -1.1274,-0.8263 -1.42857,-1.4286 -0.10303,-0.206 0,-3.8292 0,-4.2857 0,-0.5497 -0.1181,-3.3353 0,-3.5714 1.14627,-2.2926 1.71087,-0.5647 2.85714,-2.8572 0.21296,-0.4259 -0.26414,-1.0323 0,-1.4286 0.29532,-0.4429 1.05211,-0.3378 1.42857,-0.7142 3.65027,-3.6503 -2.99498,0.9962 2.14286,-2.8572 0.42592,-0.3194 1.00265,-0.3948 1.42857,-0.7143 0.53875,-0.404 0.95238,-0.9524 1.42857,-1.4285 1.42857,-1.4286 2.85714,-2.8572 4.28572,-4.2858 0.47619,-0.4762 0.95238,-0.9523 1.42857,-1.4285 0.23809,-0.2381 0.6078,-0.3949 0.71428,-0.7143 0.15059,-0.4518 0,-0.9524 0,-1.4286 0,-0.9524 0.15657,-1.9177 0,-2.8571 -0.20678,-1.2407 -2.55374,-4.2368 -3.57143,-5 -0.42591,-0.3195 -0.98559,-0.419 -1.42857,-0.7143 -0.28016,-0.1868 -0.47619,-0.4762 -0.71428,-0.7143 -0.2381,-0.2381 -0.5637,-0.4131 -0.71429,-0.7143 -0.10648,-0.2129 0.10648,-0.5013 0,-0.7143 -0.57313,-1.1462 -0.85544,-0.2823 -1.42857,-1.4285 -0.10869,-0.2174 0,-1.8212 0,-2.1429 0,-2.1429 0,-4.2857 0,-6.4286 0,-0.4762 -0.26414,-1.0323 0,-1.4285 3.31611,-1.6581 0.12126,0.4717 1.42857,-2.1429 0.10648,-0.213 0.51618,0.1321 0.71429,0 0.47619,-0.4762 0.95238,-0.9524 1.42857,-1.4286 0,-0.2381 -0.13207,-0.5162 0,-0.7143 0.37355,-0.5603 0.95238,-0.9523 1.42857,-1.4285 0.23809,-0.2381 0.60781,-0.3949 0.71429,-0.7143 0.15058,-0.4518 -0.21296,-1.0027 0,-1.4286 0.30116,-0.6023 0.95238,-0.9524 1.42857,-1.4286 0.23809,-0.2381 0.6078,-0.3948 0.71428,-0.7142 0.15059,-0.4518 0,-0.9524 0,-1.4286 0.47619,-0.4762 1.05502,-0.8683 1.42857,-1.4286 0.1565,-0.2347 0,-3.1677 0,-3.5714 0,-1.6667 0,-3.3334 0,-5 0,-0.2381 0.21296,-0.6078 0,-0.7143 -0.42591,-0.213 -1.03235,0.2641 -1.42857,0 -0.44298,-0.2953 -0.33782,-1.0521 -0.71428,-1.4286 -0.37647,-0.3764 -1.13325,-0.2713 -1.42857,-0.7143 -2.26324,-3.3948 2.74332,0.6005 -0.71429,-2.8571 -3.65027,-3.6503 0.99624,2.995 -2.85714,-2.1429 -0.31944,-0.4259 -0.33783,-1.0521 -0.71429,-1.4285 -0.37646,-0.3765 -0.95238,-0.4762 -1.42857,-0.7143 -0.47619,0 -1.09185,0.3367 -1.42857,0 -0.33672,-0.3367 0.21296,-1.0027 0,-1.4286 -0.10648,-0.2129 -0.54593,0.1684 -0.71429,0 -0.16836,-0.1683 0.13207,-0.5162 0,-0.7143 -0.37355,-0.5603 -1.1274,-0.8262 -1.42857,-1.4285 -0.1045,-0.209 0,-3.7011 0,-4.2858 0,-0.2381 -0.16836,-0.5459 0,-0.7142 0.16836,-0.1684 0.54593,0.1683 0.71429,0 0.16836,-0.1684 -0.16836,-0.546 0,-0.7143 0.16836,-0.1684 0.47619,0 0.71428,0 0.2381,0 0.47619,0 0.71429,0 1.42857,0 2.85714,0 4.28571,0 0.2381,0 0.47619,0 0.71429,0 0.23809,0 0.50132,0.1064 0.71428,0 0.88265,-0.4414 0.71429,-0.6897 0.71429,-1.4286 0,-0.2381 -0.23347,-0.6676 0,-0.7143 1.16736,-0.2335 2.38095,0 3.57143,0 z"
       id="path4146"
       inkscape:connector-curvature="0" />
    <path
       style="fill:#00ab00;stroke:#000000;stroke-width:1px;stroke-linecap:butt;stroke-linejoin:miter;stroke-opacity:1;fill-opacity:1"
       d="m -302.14286,1128.0765 c -0.95238,0.4762 -2.38095,2.3809 -2.85714,1.4285 -0.47619,-0.9523 3.33333,-2.3809 2.85714,-1.4285 -0.6818,1.3636 -2.4934,1.7791 -3.57143,2.8571 -0.16835,0.1684 0.10648,0.5013 0,0.7143 -1.48634,2.9727 0.0493,-0.7636 -1.42857,0.7143 -0.33671,0.3367 0.21296,1.0026 0,1.4286 -0.15058,0.3011 -0.5637,0.4131 -0.71428,0.7142 -0.10648,0.213 0.10648,0.5014 0,0.7143 -0.30117,0.6024 -1.12741,0.8263 -1.42857,1.4286 -0.10859,0.2172 0,2.3639 0,2.8571 0,0.4762 0,0.9524 0,1.4286 0,0.4762 -0.15059,0.9768 0,1.4286 0.10647,0.3194 0.47619,0.4762 0.71428,0.7143 0.47619,0.4762 0.86824,1.055 1.42857,1.4285 0.19811,0.1321 0.51618,-0.132 0.71429,0 0.56033,0.3736 0.88982,1.0246 1.42857,1.4286 0.42592,0.3194 1.00265,0.3949 1.42857,0.7143 0.53875,0.4041 0.82623,1.1274 1.42857,1.4286 0.42592,0.2129 1.00266,-0.213 1.42857,0 0.60234,0.3011 0.82624,1.1274 1.42858,1.4285 0.1642,0.082 3.40722,0.082 3.57142,0 0.60234,-0.3011 0.82624,-1.1274 1.42858,-1.4285 0.42591,-0.213 1.03235,0.2641 1.42857,0 0.44298,-0.2954 0.33782,-1.0521 0.71428,-1.4286 0.37646,-0.3765 1.00266,-0.3949 1.42857,-0.7143 0.53875,-0.404 0.95238,-0.9524 1.42858,-1.4286 0.47619,-0.4762 1.02451,-0.8898 1.42857,-1.4285 1.75465,-0.2547 0.29664,-1.5164 0.71428,-2.1429 0.37356,-0.5603 1.1274,-0.8262 1.42857,-1.4286 0.1181,-0.2362 0,-3.0217 0,-3.5714 0,-0.4762 -0.26414,-1.0323 0,-1.4286 0.86743,-0.4337 1.59749,-0.6105 2.14286,-1.4285 0.80968,-1.2146 0.59811,-2.0848 2.14286,-2.8572 0.42592,-0.2129 1.00265,0.213 1.42857,0 0.21296,-0.1065 0,-0.4762 0,-0.7143 0,-0.2381 0.10648,-0.5013 0,-0.7142 -0.15058,-0.3012 -0.47619,-0.4762 -0.71429,-0.7143 -0.23809,-0.2381 -0.47619,-0.4762 -0.71428,-0.7143 -1.67513,-1.6751 0.50507,0.1683 -2.14286,-0.7143 -1.09722,-0.3657 -0.55346,-1.5595 -1.42857,-2.1429 -0.39621,-0.2641 -0.95238,0 -1.42857,0 -0.33679,0 -3.53906,-0.032 -3.57143,0 -0.16836,0.1684 0.16836,0.546 0,0.7143 -0.33672,0.3367 -1.00265,-0.2129 -1.42857,0 -0.60234,0.3012 -0.82623,1.1274 -1.42857,1.4286 -0.21296,0.1065 -0.50133,-0.1065 -0.71429,0 -0.60234,0.3012 -0.82623,1.1274 -1.42857,1.4286 -0.42592,0.2129 -1.00265,-0.213 -1.42857,0 -0.60234,0.3011 -0.82623,1.1274 -1.42857,1.4285 -0.21296,0.1065 -0.47619,0 -0.71429,0 -1.77908,0 -0.50133,0.1065 -3.57143,-1.4285 z"
       id="path4148"
       inkscape:connector-curvature="0" />
    <path
       style="fill:#00ab00;stroke:#000000;stroke-width:1px;stroke-linecap:butt;stroke-linejoin:miter;stroke-opacity:1;fill-opacity:1"
       d="m -344.28571,1151.6479 c 0,-0.9524 -0.95239,-2.8571 0,-2.8571 0.95238,0 0.0948,1.9094 0,2.8571 -0.14411,1.4411 -0.53465,2.8486 -0.71429,4.2857 -0.0591,0.4725 -0.26414,1.0324 0,1.4286 0.29532,0.443 1.13325,0.2713 1.42857,0.7143 0.26414,0.3962 -0.21296,1.0026 0,1.4285 0.30117,0.6024 0.95238,0.9524 1.42857,1.4286 0.47619,0.4762 0.95238,0.9524 1.42857,1.4286 0.2381,0.2381 0.39485,0.6078 0.71429,0.7143 0.45175,0.1506 1.00265,-0.213 1.42857,0 0.60234,0.3011 0.86824,1.055 1.42857,1.4285 0.19811,0.1321 0.47619,0 0.71429,0 0.47619,0 0.95238,0 1.42857,0 0.70169,0 3.81329,0.1575 4.28571,0 0.50508,-0.1683 0.91207,-0.5851 1.42858,-0.7142 0.46197,-0.1155 1.03235,0.2641 1.42857,0 0.44298,-0.2954 0.39484,-1.0027 0.71428,-1.4286 -1.76258,-2.1625 1.9429,-1.2286 2.14286,-1.4286 0.16836,-0.1683 -0.21296,-0.6078 0,-0.7143 0.42592,-0.2129 1.09185,0.3367 1.42857,0 0.33672,-0.3367 0,-0.9524 0,-1.4285 0,-0.8797 -0.10648,-1.3221 0.71429,-2.1429 0.16836,-0.1684 0.50132,0.1065 0.71428,0 0.30117,-0.1506 0.41312,-0.5637 0.71429,-0.7143 0.21296,-0.1065 0.50133,0.1065 0.71428,0 0.30117,-0.1506 0.47619,-0.4762 0.71429,-0.7143 0.23809,-0.2381 0.5637,-0.4131 0.71429,-0.7143 0.0187,-0.037 0.0187,-2.1054 0,-2.1428 -0.15059,-0.3012 -0.56371,-0.4131 -0.71429,-0.7143 -0.87963,-1.7593 2.07338,0.6448 -0.71429,-2.1429 -0.37646,-0.3764 -1.00265,-0.3948 -1.42857,-0.7142 -2.4994,-1.8746 -0.57845,-0.7713 -2.14285,-2.8572 -1.87456,-2.4994 -0.77128,-0.5784 -2.85715,-2.1428 -0.53875,-0.4041 -0.86824,-1.0551 -1.42857,-1.4286 -0.19811,-0.1321 -0.47619,0 -0.71428,0 -0.4762,0 -0.95239,0 -1.42858,0 -1.42857,0 -2.85714,0 -4.28571,0 -0.55436,0 -4.11038,-0.1169 -4.28571,0 -0.56034,0.3735 -0.82624,1.1274 -1.42858,1.4286 -1.28274,0.6413 -1.76092,-0.9301 -2.85714,0.7142 -2.26323,3.3949 2.74333,-0.6004 -0.71428,2.8572 -0.37647,0.3764 -1.42858,0.1819 -1.42858,0.7143 0,1.2822 2.33522,2.6648 1.42858,3.5714 -0.90664,0.9066 -2.28925,-1.4286 -3.57143,-1.4286 -0.47619,0 0,0.9524 0,1.4286 0,0.2381 -0.2381,0.7143 0,0.7143 1.21405,0 2.38095,-0.4762 3.57143,-0.7143 z"
       id="path4150"
       inkscape:connector-curvature="0" />
    <path
       style="fill:#00ab00;stroke:#000000;stroke-width:1px;stroke-linecap:butt;stroke-linejoin:miter;stroke-opacity:1;fill-opacity:1"
       d="m -6.0609153,927.10327 c -5.7406387,-3.43531 -9.5687187,-7.54842 -14.1421357,-12.12183 -4.215721,-4.21572 -4.04061,-2.38396 -4.04061,-8.08122 0,-0.67344 -0.301169,-1.41797 0,-2.02031 0.425918,-0.85183 1.34687,-1.34687 2.020305,-2.0203 0.673435,-0.67344 1.227876,-1.49202 2.020305,-2.02031 1.25294,-0.83529 2.975816,-0.95551 4.04061,-2.0203 1.064795,-1.0648 0.955511,-2.97582 2.020305,-4.04061 1.064795,-1.0648 2.975816,-0.95552 4.040611,-2.02031 10.32452549,-10.32453 -8.471094,2.81779 6.0609148,-8.08122 1.2046772,-0.90351 2.9758159,-0.95551 4.0406102,-2.0203 1.0647943,-1.0648 0.95551081,-2.97582 2.0203051,-4.04062 1.0647943,-1.06479 2.5797245,-1.65508 4.0406102,-2.0203 1.3066559,-0.32666 4.0406097,1.34687 4.0406097,0 0,-1.90476 -2.6937397,-2.69374 -4.0406097,-4.04061 -1.3468701,-1.34687 -2.2898578,-3.29029 -4.0406102,-4.04061 -20.4095701,-8.74696 0.217545,5.608 -20.2030511,-6.06092 -1.653796,-0.94502 -2.553241,-2.85071 -4.04061,-4.04061 -12.742955,-10.19436 -0.345428,1.67488 -10.101525,-8.08122 -1.34687,-1.34687 -2.33694,-3.18877 -4.040611,-4.04061 -1.204677,-0.60234 -2.835933,0.60234 -4.04061,0 -1.703671,-0.85183 -2.336939,-3.18877 -4.04061,-4.04061 -1.204677,-0.60234 -2.835933,0.60234 -4.04061,0 -1.703671,-0.85183 -2.69374,-2.69374 -4.04061,-4.04061 -4.040611,-4.04061 -8.081221,-8.08122 -12.121831,-12.12183 -6.73435,-6.73435 -13.4687,-13.4687 -20.203051,-20.20305 -2.69374,-2.69374 -5.38748,-5.38748 -8.08122,-8.08122 -1.34687,-1.34687 -2.897753,-2.5168 -4.04061,-4.04061 -0.903508,-1.20468 -1.116797,-2.83593 -2.020305,-4.04061 -1.142861,-1.52381 -2.693741,-2.69374 -4.040611,-4.04061 -1.34687,-1.34687 -2.55324,-2.85071 -4.04061,-4.04061 -1.89603,-1.51682 -4.04061,-2.69374 -6.06092,-4.04061 -2.0203,-1.34687 -3.75741,-3.27278 -6.06091,-4.04061 -1.91663,-0.63888 -4.14429,0.63888 -6.06092,0 -2.3035,-0.76783 -3.80647,-3.13883 -6.06091,-4.04061 -1.25054,-0.50021 -2.83593,0.60234 -4.04061,0 -1.70367,-0.85184 -2.33694,-3.18877 -4.04061,-4.04061 -0.58278,-0.29139 -10.83061,0 -12.12183,0 -2.69374,0 -6.73435,1.34687 -4.04061,-4.04061 0.30117,-0.60234 1.35995,0.13207 2.0203,0 2.72273,-0.54454 5.32156,-1.71368 8.08122,-2.02031 3.34658,-0.37184 6.79974,0.66036 10.10153,0 0.22982,-0.046 19.80427,-7.96728 20.20305,-8.08122 1.29505,-0.37001 2.83593,0.60234 4.04061,0 1.70367,-0.85183 2.33694,-3.18877 4.04061,-4.04061 2.40935,-1.20467 5.67187,1.20468 8.081221,0 1.70367,-0.85183 2.336939,-3.18877 4.04061,-4.04061 1.204677,-0.60233 2.69374,0 4.04061,0 4.04061,0 8.08122,0 12.121831,0 1.34687,0 2.919946,-0.74711 4.04061,0 5.688649,0.12541 0.514458,4.55507 2.020305,6.06092 0.952381,0.95238 2.835933,-0.60234 4.04061,0 1.703671,0.85183 2.336939,3.18877 4.04061,4.04061 0.602339,0.30117 1.417967,-0.30117 2.020305,0 9.572732,4.78637 -13.649781,-1.18275 8.081221,6.06091 1.916629,0.63888 4.04061,0 6.060915,0 2.020305,1.34687 3.806477,3.13884 6.060915,4.04061 1.250538,0.50022 2.69374,0 4.04061,0 3.367175,0 6.863906,-0.92503 10.101526,0 1.831474,0.52328 2.272083,3.3332 4.04061,4.04061 0.901171,0.36047 12.10556,0 14.142136,0 1.3468696,0 3.0882288,-0.95238 4.0406097,0 0.952381,0.95239 -0.6023386,2.83594 0,4.04062 0.3011693,0.60233 1.5441146,0.47619 2.0203051,0 1.0647943,-1.0648 1.1167972,-2.83594 2.0203051,-4.04062 1.14285715,-1.5238 2.69374013,-2.69374 4.0406102,-4.04061 2.0203051,-2.0203 4.0406102,-4.04061 6.0609153,-6.06091 1.34687,-1.34687 2.5532406,-2.85072 4.0406106,-4.04061 1.896031,-1.51683 4.164884,-2.52379 6.060915,-4.04061 4.63775,-3.7102 3.883209,-5.59389 10.101525,-8.08122 1.104971,-0.44199 10.409671,0 12.121831,0 1.34687,0 2.69374,0 4.04061,0 1.34687,0 2.835933,-0.60234 4.04061,0 1.703671,0.85183 2.336939,3.18877 4.04061,4.04061 1.204678,0.60234 2.835933,-0.60234 4.040611,0 1.70367,0.85183 2.336939,3.18877 4.04061,4.04061 11.448395,0 0.673435,-1.34687 4.04061,2.0203 0.47619,0.47619 1.719136,-0.60233 2.020305,0 0.08981,0.17962 0.288099,13.27784 0,14.14214 -0.602339,1.80702 -3.438272,2.23359 -4.04061,4.04061 -0.327174,0.98152 0,12.07951 0,14.14214 0,2.14189 -0.30117,4.51326 2.020305,6.06091 1.120663,0.74711 2.835933,-0.60234 4.04061,0 4.986966,2.49348 2.430573,5.25368 8.08122,6.06092 3.333334,0.47619 6.907143,-1.0648 10.101526,0 1.428571,0.47619 0.673435,3.36717 2.020305,4.04061 1.643558,0.82178 12.481446,-0.83035 14.142136,0 1.70367,0.85183 2.33694,3.18877 4.04061,4.04061 1.20468,0.60234 2.83593,-0.60234 4.04061,0 1.70367,0.85183 2.69374,2.69374 4.04061,4.04061 1.34687,1.34687 2.69374,2.69374 4.04061,4.04061 4.04061,4.04061 8.08122,8.08122 12.12183,12.12183 2.69374,2.69374 5.38748,5.38748 8.08122,8.08122 1.34687,1.34687 2.98404,2.45575 4.04061,4.04061 0.37356,0.56033 0,1.34687 0,2.0203 0,1.32694 0.40136,11.51979 0,12.12183 -0.83529,1.25294 -2.97581,0.95551 -4.04061,2.02031 -1.71693,1.71693 -2.79136,3.97883 -4.04061,6.06091 -0.77475,1.29126 -0.95551,2.97582 -2.0203,4.04061 -1.0648,1.0648 -2.83594,1.1168 -4.04061,2.02031 -4.993,3.74474 -4.04061,3.01849 -4.04061,8.08122 0,0.67343 -0.37356,1.45997 0,2.0203 1.05657,1.58486 2.69374,2.69374 4.04061,4.04061 1.34687,1.34687 2.69374,2.69375 4.04061,4.04062 1.34687,1.34687 2.89775,2.5168 4.04061,4.04061 0.9035,1.20467 0.95551,2.97581 2.0203,4.04061 1.0648,1.06479 2.97582,0.95551 4.04061,2.0203 1.0648,1.06479 0.76737,3.20532 2.02031,4.04061 9.60208,6.40139 -1.69839,-7.7593 8.08122,2.02031 4.9629,0.72037 0.83902,4.28899 2.0203,6.06091 1.05657,1.58486 2.89775,2.5168 4.04061,4.04061 4.96291,0.72038 0.83902,4.28899 2.02031,6.06092 1.05657,1.58485 3.3332,2.27208 4.04061,4.04061 0.75032,1.8758 -0.90351,4.2539 0,6.06091 0.67343,1.34687 3.20531,0.76737 4.04061,2.02031 0.74711,1.12066 0,2.69374 0,4.04061 0,3.36717 0,6.73435 0,10.10152 0,1.34687 0,2.69374 0,4.04061 0,0.67344 0.37355,1.45998 0,2.02031 -0.68832,1.03248 -11.08936,11.43351 -12.12183,12.12183 -0.56033,0.37355 -1.45998,-0.37356 -2.02031,0 -1.58486,1.05657 -2.33694,3.18877 -4.04061,4.04061 -1.20468,0.60234 -2.69374,0 -4.04061,0 -1.34687,0 -2.69374,0 -4.04061,0 -5.38748,0 -10.77496,0 -16.16244,0 -2.0203,0 -4.10093,-0.49 -6.06091,0 -10.77497,2.69374 2.0203,0.67343 -6.06092,6.06091 -1.12066,0.74711 -2.76286,-0.42591 -4.04061,0 -0.90351,0.30117 -1.34687,1.34687 -2.02031,2.02031 -2.69374,2.69374 -5.38748,5.38748 -8.08122,8.08122 -0.67343,0.67343 -1.116793,1.71914 -2.020301,2.0203 -1.277753,0.42592 -2.919946,-0.7471 -4.04061,0 -13.740735,9.16049 12.792291,-1.34538 -6.060915,8.08122 -4.04061,2.02031 -3.030458,-1.01015 -6.060915,0 -2.748147,0.91605 -6.765659,3.4298 -8.081221,6.06092 -0.602338,1.20468 0.747109,2.91995 0,4.04061 -0.835293,1.25295 -3.205317,0.76735 -4.04061,2.02035 -0.747109,1.1206 0.326664,2.7339 0,4.0406 -0.365221,1.4609 -1.655084,2.5797 -2.020305,4.0406 -0.384093,1.5363 0,8.4097 0,10.1015 0,0.6734 0,1.3469 0,2.0203 0,0.6734 0.301169,1.418 0,2.0203 -0.425918,0.8518 -1.34687,1.3469 -2.020305,2.0203 -1.34687,1.3469 -2.69374,2.6938 -4.04061,4.0406 -2.69374,2.6938 -5.38748,5.3875 -8.081221,8.0812 -1.34687,1.3469 -2.455752,2.9841 -4.04061,4.0407 -0.499936,0.3332 -7.044062,0 -8.08122,0 -0.828414,0 -9.500418,0.2404 -10.101526,0 -4.247651,-1.6991 -7.009691,-4.9894 -10.101525,-8.0813 -1.34687,-1.3468 -2.40729,-3.0606 -4.04061,-4.0406 -14.9370709,-8.9622 3.204987,6.2006 -12.1218307,-6.0609 -1.4873692,-1.1899 -2.8977531,-2.5168 -4.0406102,-4.0406 C 1.1167972,1018.8326 1.25294,1016.832 0,1015.9967 c -1.1206636,-0.7471 -3.4382716,1.2047 -4.0406102,0 -0.673435,-1.3469 1.1850118,-2.7877 2.0203051,-4.0406 2.05978456,-3.0897 2.78963475,-1.5872 6.0609153,-4.0406 1.5238095,-1.1429 2.4557525,-2.9841 4.0406102,-4.0406 0.5603318,-0.3736 1.4599732,0.3735 2.0203046,0 1.584858,-1.0566 2.33694,-3.1888 4.040611,-4.04065 1.204677,-0.60234 2.69374,0 4.04061,0 0.673435,0 1.544114,0.47615 2.020305,0 0.47619,-0.47619 0.301169,-1.41797 0,-2.0203 -1.362894,-2.72579 -5.953988,-3.50881 -8.08122,-4.04061 -0.653328,-0.16334 -1.459974,0.37355 -2.020306,0 C 8.5166677,992.71676 7.4077853,991.07959 6.0609153,989.73272 4.7140452,988.38585 3.3671751,987.03898 2.0203051,985.69211 1.3468701,985.01868 0.85183542,984.09773 0,983.67181 c -1.2046772,-0.60234 -3.0882292,0.95238 -4.0406102,0 -0.4761905,-0.47619 0.4761905,-1.54412 0,-2.02031 -0.4761905,-0.47619 -1.5441146,0.47619 -2.0203051,0 -0.4761904,-0.47619 0,-1.34687 0,-2.0203 0,-4.71405 0,-9.42809 0,-14.14214 0,-0.67343 -0.4761904,-1.54411 0,-2.0203 0.4761905,-0.47619 1.5441146,0.47619 2.0203051,0 0.4761905,-0.47619 0.6734351,-2.02031 0,-2.02031 -0.9523809,0 -1.34687,2.69374 -2.0203051,2.02031 -0.9523809,-0.95238 0.4259177,-2.76286 0,-4.04061 -0.3011693,-0.90351 -1.7191358,-1.1168 -2.0203051,-2.02031 -0.4259177,-1.27775 0.6023386,-2.83593 0,-4.04061 -0.8518354,-1.70367 -2.9840386,-2.45575 -4.0406106,-4.04061 -0.373554,-0.56033 0.373555,-1.45997 0,-2.0203 -1.056571,-1.58486 -3.188774,-2.33694 -4.04061,-4.04061 -0.33403,-0.66806 0,-8.54668 0,-10.10153 0,-1.34687 0,-2.69374 0,-4.04061 0,-0.67343 -0.660357,-1.88823 0,-2.0203 3.301787,-0.66036 6.7343506,0 10.1015257,0 z"
       id="path4170"
       inkscape:connector-curvature="0" />
    <path
       style="fill:#00ab00;stroke:#000000;stroke-width:1px;stroke-linecap:butt;stroke-linejoin:miter;stroke-opacity:1;fill-opacity:1"
       d="m -139.40105,838.20984 c 2.69374,2.02031 5.49448,3.90531 8.08122,6.06092 1.46328,1.2194 2.33694,3.18877 4.04061,4.04061 2.91512,1.45756 7.87263,-2.22889 12.12183,2.0203 1.06479,1.0648 1.65508,2.57973 2.0203,4.04061 0.40658,1.62629 0,15.54725 0,16.16244 0,1.75077 0.39011,6.91091 0,8.08122 -0.47619,1.42858 -2.0203,2.53477 -2.0203,4.04062 0,0.95238 1.34687,1.34687 2.0203,2.0203 2.02031,2.02031 3.77521,4.34663 6.06092,6.06092 1.20468,0.9035 2.83593,1.11679 4.04061,2.0203 1.52381,1.14286 2.33694,3.18878 4.040611,4.04061 1.204677,0.60234 2.919946,-0.74711 4.04061,0 1.25294,0.83529 1.116797,2.83593 2.020305,4.04061 2.285714,3.04762 5.968077,4.91151 8.08122,8.08122 0.01468,0.022 0.0473,5.96631 0,6.06092 -0.425917,0.85183 -1.492019,1.22787 -2.020305,2.0203 -0.835293,1.25294 -1.116797,2.83593 -2.020305,4.04061 -4.369203,5.82561 -2.918957,2.61941 -8.08122,6.06092 -0.829458,0.55297 -5.647406,6.06091 -6.060916,6.06091 -0.95238,0 -1.22788,-1.49202 -2.0203,-2.0203 -16.16245,-10.77496 7.407781,7.40778 -6.06092,-6.06092 -1.71693,-1.71693 -4.16488,-2.52378 -6.06092,-4.04061 -8.7384,-8.7384 0.53521,-0.31663 -8.08122,-6.06091 -2.37728,-1.58486 -3.68362,-4.47606 -6.06091,-6.06092 -0.56033,-0.37355 -1.54412,0.47619 -2.02031,0 -2.36883,-2.36883 5.1803,-4.48092 2.02031,-6.06091 -1.20468,-0.60234 -2.76286,0.42591 -4.04061,0 -0.90351,-0.30117 -1.2584,-1.44888 -2.02031,-2.02031 -1.94248,-1.45686 -4.16488,-2.52378 -6.06091,-4.04061 -1.48737,-1.18989 -2.33694,-3.18877 -4.04061,-4.04061 -3.86714,-1.93357 -8.22,3.76306 -12.12183,-4.04061 -0.60234,-1.20468 -0.74711,-2.91995 0,-4.04061 0.83529,-1.25294 2.78767,-1.18501 4.04061,-2.0203 1.58486,-1.05658 2.69374,-2.69375 4.04061,-4.04062 2.69374,-2.69374 5.38748,-5.38748 8.08122,-8.08122 2.0203,-2.0203 4.78316,-3.5054 6.06091,-6.06091 0.60234,-1.20468 -0.74711,-2.91995 0,-4.04061 0.8353,-1.25294 2.97582,-0.95551 4.04061,-2.02031 0.065,-0.065 0,-5.57093 0,-6.06091 0,-0.67344 0.47619,-1.54412 0,-2.02031 -0.47619,-0.47619 -1.54411,0.47619 -2.0203,0 -0.47619,-0.47619 0.47619,-1.54411 0,-2.0203 -0.47619,-0.47619 -1.34687,0 -2.02031,0 -0.67343,-3.36718 -1.34687,-6.73435 -2.0203,-10.10153 z"
       id="path4174"
       inkscape:connector-curvature="0" />
    <path
       style="fill:#00ab00;stroke:#000000;stroke-width:1px;stroke-linecap:butt;stroke-linejoin:miter;stroke-opacity:1;fill-opacity:1"
       d="m -52.527932,959.42815 c 0,1.63242 -1.904762,8.79317 2.020305,10.10152 9.197004,0 0.115543,-0.95238 6.060915,2.02031 0.602339,0.30117 1.459973,-0.37356 2.020305,0 1.584858,1.05657 2.336939,3.18877 4.04061,4.04061 1.204678,0.60234 2.835933,-0.60234 4.04061,0 0.602339,0.30117 -0.373554,1.45997 0,2.0203 9.197005,9.19701 1.067925,-0.83683 4.040611,8.08122 0.301169,0.90351 1.719135,1.1168 2.020305,2.02031 0.638876,1.91663 0,4.04061 0,6.06092 0,3.42741 0.755691,7.32556 -2.020305,10.10156 -1.064795,1.0648 -2.975816,0.9555 -4.040611,2.0203 -1.064794,1.0648 -1.34687,2.6937 -2.020305,4.0406 -1.34687,0.6734 -2.835933,1.1168 -4.04061,2.0203 -1.523809,1.1428 -2.897753,2.5168 -4.04061,4.0406 -0.903508,1.2047 -0.767365,3.2053 -2.020305,4.0406 -1.120664,0.7471 -2.835933,-0.6023 -4.04061,0 -0.602339,0.3012 0.602338,1.7191 0,2.0203 -1.204677,0.6023 -3.088229,-0.9524 -4.04061,0 -0.952381,0.9524 0.602338,2.8359 0,4.0406 -0.30117,0.6024 -1.544115,0.4762 -2.020306,0 -0.47619,-0.4762 0.30117,-1.418 0,-2.0203 -0.771644,-1.5433 -5.604898,-4.6929 -6.060915,-6.0609 -0.425917,-1.2778 0.602339,-2.8359 0,-4.0406 -1.315561,-2.6311 -5.333073,-5.1449 -8.08122,-6.0609 -0.638877,-0.213 -1.544115,0.4762 -2.020305,0 -0.0813,-0.081 0,-7.3393 0,-8.08125 0,-0.67343 0,-1.34687 0,-2.0203 0,-0.67344 -0.30117,-1.41797 0,-2.02031 0.851835,-1.70367 2.984038,-2.45575 4.04061,-4.04061 0.835293,-1.25294 1.185012,-2.78767 2.020305,-4.04061 0.613231,-0.91985 7.428267,-7.75474 8.08122,-8.08122 1.204678,-0.60234 3.08823,0.95238 4.040611,0 0.0813,-0.0813 0,-7.33929 0,-8.08122 0,-5.45416 -0.132072,-1.35995 2.020305,-12.12183 z"
       id="path4176"
       inkscape:connector-curvature="0" />
    <path
       style="fill:#00ab00;stroke:#000000;stroke-width:1px;stroke-linecap:butt;stroke-linejoin:miter;stroke-opacity:1;fill-opacity:1"
       d="m 381.83766,514.96103 c -11.59489,0.68601 -2.41876,6.85783 -4.04061,10.10152 -0.42592,0.85184 -1.59439,1.16847 -2.0203,2.02031 -0.0861,0.17222 -0.0861,7.909 0,8.08122 0.42591,0.85184 1.34687,1.34687 2.0203,2.0203 0.67344,0.67344 1.34687,1.34687 2.02031,2.02031 1.34687,1.34687 2.69374,2.69374 4.04061,4.04061 0.67343,0.67344 1.09636,1.78932 2.0203,2.02031 17.38584,4.34645 -4.24907,-5.52646 10.10153,4.04061 0.56033,0.37355 1.34687,0 2.0203,0 4.76852,0 4.75256,-0.95239 8.08122,4.04061 0.4632,0.69478 -0.44289,5.61801 0,6.06091 0.47619,0.47619 1.36698,-0.16333 2.02031,0 2.066,0.5165 3.97268,1.60266 6.06091,2.02031 1.32072,0.26414 2.69374,0 4.04061,0 2.02031,0 4.07985,0.39621 6.06092,0 2.09822,-0.41965 9.42155,-5.51694 10.10152,-6.06092 1.48737,-1.18989 2.55325,-2.85071 4.04061,-4.04061 1.89604,-1.51682 4.16489,-2.52378 6.06092,-4.04061 1.48737,-1.1899 2.33694,-3.18877 4.04061,-4.04061 1.20468,-0.60234 2.83593,0.60234 4.04061,0 4.40795,-2.20398 5.16621,-5.59912 4.04061,-10.10153 -0.0709,-0.2836 -3.64948,-3.45391 -4.04061,-4.04061 -0.83529,-1.25294 -0.95551,-2.97581 -2.02031,-4.04061 -1.06479,-1.06479 -2.61203,-1.54411 -4.04061,-2.0203 -0.63887,-0.21296 -1.54411,0.47619 -2.0203,0 -4.58025,-4.58025 1.20509,-4.44822 -6.06092,-8.08122 -0.66806,-0.33403 -8.54667,0 -10.10152,0 -9.42809,0 -18.85618,0 -28.28427,0 -0.67344,0 -1.34687,0 -2.02031,0 -0.67343,0 -1.41796,0.30117 -2.0203,0 -1.38436,-0.69218 -3.30428,-4.16333 -4.04061,-4.04061 -3.57722,0.5962 -6.99178,5.90646 -10.10153,4.04061 -2.88733,-1.7324 -3.36717,-10.10153 0,-10.10153 3.36718,0 0,6.73435 0,10.10153 z"
       id="path4178"
       inkscape:connector-curvature="0" />
    <path
       style="fill:#00ab00;stroke:#000000;stroke-width:1px;stroke-linecap:butt;stroke-linejoin:miter;stroke-opacity:1;fill-opacity:1"
       d="m 511.13719,486.67676 c -3.36718,3.36717 -6.73435,6.73435 -10.10153,10.10152 -2.0203,2.02031 -4.78316,3.50541 -6.06091,6.06092 -0.60234,1.20468 0,2.69374 0,4.04061 0,0.67343 0,1.34687 0,2.0203 0,0.67344 -0.47619,1.54412 0,2.02031 3.12834,3.12834 10.27194,2.0203 14.14213,2.0203 6.06092,0 12.12183,0 18.18275,0 2.0203,0 4.2539,-0.9035 6.06091,0 4.99299,2.4965 4.04061,3.90114 4.04061,8.08122 0,0.67344 -0.30117,1.41797 0,2.02031 0.42592,0.85183 1.34687,1.34687 2.02031,2.0203 2.54882,2.54883 5.97022,5.26656 8.08122,8.08122 0.90351,1.20468 0.81563,3.13711 2.0203,4.04061 1.70368,1.27776 4.23481,0.92465 6.06092,2.02031 1.63332,0.97999 2.33694,3.18877 4.04061,4.04061 1.20468,0.60234 2.79007,-0.50021 4.04061,0 2.25444,0.90178 3.80648,3.13883 6.06092,4.04061 0.13341,0.0534 13.63785,0.25214 14.14213,0 0.60234,-0.30117 -0.21296,-1.38143 0,-2.0203 0.47619,-1.42858 1.54412,-2.61204 2.02031,-4.04062 0.42591,-1.27775 0,-2.69374 0,-4.04061 0,-1.05645 0.26561,-7.54999 0,-8.08122 -0.42592,-0.85183 -1.59439,-1.16847 -2.02031,-2.0203 -2.97269,-5.94537 4.6802,2.6599 -2.0203,-4.04061 -0.67344,-0.67344 -1.34687,-1.34687 -2.02031,-2.02031 -0.67343,-1.34687 -0.95551,-2.97581 -2.0203,-4.04061 -2.4607,-2.46069 -4.51379,-0.94635 -6.06092,-4.04061 -0.30117,-0.60233 0.30117,-1.41796 0,-2.0203 -0.42592,-0.85184 -1.59439,-1.16847 -2.0203,-2.02031 -0.30117,-0.60234 0.30116,-1.41796 0,-2.0203 -4.62308,-9.24614 0.83736,8.57299 -4.04061,-6.06092 -0.21296,-0.63887 0.37355,-1.45997 0,-2.0203 -1.05658,-1.58486 -2.69375,-2.69374 -4.04062,-4.04061 -1.34687,-1.34687 -2.69374,-2.69374 -4.04061,-4.04061 -2.0203,-2.02031 -3.5054,-4.78316 -6.06091,-6.06092 -1.20468,-0.60234 -3.08823,0.95238 -4.04061,0 -0.95238,-0.95238 0.95238,-3.08823 0,-4.04061 -0.95238,-0.95238 -2.69374,0 -4.04061,0 -1.34687,0 -2.69374,0 -4.04061,0 -3.36718,0 -6.73435,0 -10.10153,0 -2.0203,0 -4.16924,-0.70937 -6.06091,0 -4.22991,1.58622 -8.08122,4.04061 -12.12183,6.06092 z"
       id="path4180"
       inkscape:connector-curvature="0" />
    <path
       style="fill:#00ab00;fill-opacity:1;stroke:#000000;stroke-width:1px;stroke-linecap:butt;stroke-linejoin:miter;stroke-opacity:1"
       d="m 470.73109,589.71232 c 15.91417,3.97854 -0.1322,1.64268 18.18274,-2.02031 3.30179,-0.66036 6.86391,0.92504 10.10153,0 1.83147,-0.52328 2.33694,-3.18877 4.04061,-4.04061 1.20467,-0.60234 2.69374,0 4.04061,0 1.34687,0 2.69374,0 4.04061,0 0.48008,0 7.62841,-0.2264 8.08122,0 0.8359,0.41795 5.49002,5.20458 6.06091,6.06092 0.8353,1.25294 0.95551,2.97581 2.02031,4.04061 1.06479,1.06479 2.97581,0.95551 4.04061,2.0203 1.06479,1.0648 1.1168,2.83594 2.0203,4.04061 1.14286,1.52381 2.98404,2.45576 4.04061,4.04061 0.37356,0.56033 -0.37355,1.45998 0,2.02031 2.11315,3.16971 5.79551,5.0336 8.08122,8.08122 4.96291,0.72038 0.83903,4.28899 2.02031,6.06091 1.05657,1.58486 2.69374,2.69374 4.04061,4.04061 1.34687,1.34687 2.69374,2.69374 4.04061,4.04061 2.69374,2.69374 5.38748,5.38748 8.08122,8.08122 1.34687,1.34687 2.33694,3.18878 4.04061,4.04061 1.20468,0.60234 2.69374,0 4.04061,0 4.04061,0 8.08122,0 12.12183,0 0.67344,0 1.54412,-0.47619 2.02031,0 0.47619,0.47619 0,1.34687 0,2.02031 0,0.67343 0.30117,1.41797 0,2.0203 -0.42592,0.85184 -1.59439,1.16847 -2.02031,2.02031 -0.60234,1.20468 0.95238,3.08823 0,4.04061 -0.47619,0.47619 -1.41797,-0.30117 -2.0203,0 -0.85184,0.42592 -1.16847,1.59439 -2.02031,2.0203 -0.60234,0.30117 -1.41797,-0.30116 -2.0203,0 -0.85184,0.42592 -1.16847,1.59439 -2.02031,2.02031 -0.60234,0.30117 -1.41797,-0.30117 -2.0203,0 -0.81603,0.40801 -8.02067,8.02066 -8.08122,8.08122 -0.67344,0.67344 -1.1168,1.71914 -2.02031,2.02031 -1.27775,0.42591 -2.91995,-0.74711 -4.04061,0 -1.25294,0.83529 -0.76737,3.20531 -2.02031,4.04061 -11.44839,0 -0.67343,-1.34687 -4.04061,2.0203 -0.47619,0.47619 -1.34687,0 -2.0203,0 -0.67344,0 -1.34687,0 -2.02031,0 -4.71404,0 -9.42809,0 -14.14213,0 -1.34687,0 -2.69374,0 -4.04061,0 -1.34687,0 -2.76286,0.42592 -4.04061,0 -0.90351,-0.30117 -1.1168,-1.71914 -2.02031,-2.0203 -1.27775,-0.42592 -2.69374,0 -4.04061,0 -1.34687,-1.34687 -2.45575,-2.98404 -4.04061,-4.04061 -0.56033,-0.37356 -1.71913,0.60233 -2.0203,0 -0.60234,-1.20468 0.74711,-2.91995 0,-4.04061 -0.8353,-1.25294 -2.83594,-1.1168 -4.04061,-2.02031 -14.53201,-10.89901 4.26361,2.24331 -6.06092,-8.08122 -1.06479,-1.06479 -3.20531,-0.76737 -4.04061,-2.02031 -0.74711,-1.12066 0.95238,-3.08822 0,-4.04061 -0.95238,-0.95238 -3.08823,0.95239 -4.04061,0 -0.95238,-0.95238 0,-2.69374 0,-4.04061 0,-0.67343 0,-1.34687 0,-2.0203 0,-1.14195 -0.44262,-9.43759 0,-10.10153 7.26601,-10.899 0.62884,1.39147 8.08122,-6.06091 1.0648,-1.0648 1.1168,-2.83593 2.02031,-4.04061 1.4785,-1.97134 9.16819,-8.23487 10.10152,-10.10153 0.60234,-1.20467 -0.74711,-2.91994 0,-4.04061 0.8353,-1.25294 2.83594,-1.11679 4.04061,-2.0203 1.52381,-1.14286 3.18878,-2.33694 4.04061,-4.04061 0.60234,-1.20468 -0.32666,-2.73396 0,-4.04061 -2.51893,-2.08752 -5.99026,1.03899 -8.08122,2.0203 -0.66394,0.44263 -8.95957,0 -10.10152,0 -8.08122,0 -1.34687,-1.34687 -4.04061,4.04061 -0.39966,0.79932 -4.05105,-1.00493 -6.06092,0 -0.60234,0.30117 0.60234,1.71914 0,2.02031 -1.61661,0.8083 -8.76217,-0.8929 -10.10152,0 -1.25294,0.83529 -0.67344,3.36717 -2.02031,4.04061 -2.83705,1.41852 -1.77797,-5.81858 -2.0203,-6.06092 -3.71917,-3.71916 -8.08122,-6.73435 -12.12183,-10.10152 z"
       id="path4182"
       inkscape:connector-curvature="0"
       sodipodi:nodetypes="csssssssssssscssssssssssssssssccsscssssssccsssssssssssssssssccsssssscc" />
    <path
       style="fill:#00ab00;stroke:#000000;stroke-width:1px;stroke-linecap:butt;stroke-linejoin:miter;stroke-opacity:1;fill-opacity:1"
       d="m 389.91888,660.423 c 0,8.08122 0,16.16244 0,24.24366 0,3.20069 -0.60234,5.45857 2.02031,8.08122 1.06479,1.06479 2.83593,1.11679 4.04061,2.0203 1.52381,1.14286 2.69374,2.69374 4.04061,4.04061 2.69374,2.69374 5.38748,5.38748 8.08122,8.08122 1.34687,1.34687 2.5168,2.89776 4.04061,4.04061 8.11638,6.08729 -0.5091,-2.22394 10.10152,2.02031 1.76853,0.70741 2.33694,3.18877 4.04061,4.04061 1.20468,0.60234 2.83594,-0.60234 4.04061,0 1.70367,0.85183 2.33694,3.18877 4.04061,4.04061 1.20468,0.60234 2.69374,0 4.04061,0 1.34687,0 2.69374,0 4.04061,0 0.67344,0 1.54412,0.47619 2.02031,0 0.47619,-0.47619 -0.47619,-1.54412 0,-2.02031 0.47619,-0.47619 1.41797,0.30117 2.0203,0 4.83782,-2.4189 -1.27318,-4.04061 4.04061,-4.04061 0.67344,0 1.54412,0.47619 2.02031,0 0.47619,-0.47619 -0.47619,-1.54411 0,-2.0203 0.47619,-0.47619 1.54411,-0.47619 2.02031,0 1.06479,1.06479 1.18501,2.78767 2.0203,4.04061 0.52829,0.79243 1.49202,1.22787 2.02031,2.0203 5.74428,8.61642 -2.6775,-0.65718 6.06091,8.08122 1.34687,1.34687 2.33694,3.18878 4.04061,4.04061 2.40936,1.20468 5.67187,-1.20467 8.08122,0 0.60234,0.30117 0,2.69374 0,2.02031 0,-4.71405 0,-9.42809 0,-14.14214 0,-1.34687 0,-2.69374 0,-4.04061 0,-1.34687 -0.60234,-2.83593 0,-4.04061 0.85184,-1.70367 2.98404,-2.45575 4.04061,-4.04061 0.44263,-0.66394 0,-8.95957 0,-10.10152 0,-2.69374 0,-5.38748 0,-8.08122 0,-0.67344 0.60234,-1.71914 0,-2.02031 -1.20468,-0.60234 -3.08823,0.95238 -4.04061,0 -0.95238,-0.95238 0.42592,-2.76286 0,-4.04061 -0.30117,-0.90351 -1.34687,-1.34687 -2.0203,-2.0203 -1.34687,-1.34687 -2.33694,-3.18878 -4.04061,-4.04061 -1.20468,-0.60234 -2.76286,0.42591 -4.04061,0 -0.90351,-0.30117 -1.34687,-1.34687 -2.02031,-2.02031 -1.34687,-1.34687 -2.45575,-2.98404 -4.04061,-4.04061 -0.56033,-0.37355 -1.34687,0 -2.0203,0 -1.34687,0 -2.73396,0.32666 -4.04061,0 -1.46089,-0.36522 -2.57973,-1.65508 -4.04062,-2.0203 -1.30665,-0.32667 -2.69374,0 -4.04061,0 -3.36717,0 -6.73435,0 -10.10152,0 -1.34687,0 -2.69374,0 -4.04061,0 -0.67344,0 -1.71914,0.60233 -2.02031,0 -0.60233,-1.20468 0.60234,-2.83594 0,-4.04061 -0.30117,-0.60234 -1.34687,0 -2.0203,0 -3.36718,0 -6.73435,0 -10.10153,0 -0.67343,0 -1.34687,0 -2.0203,0 -1.4052,0 -9.37092,0.3653 -10.10153,0 -1.70367,-0.85184 -2.33694,-3.18878 -4.04061,-4.04061 -0.60234,-0.30117 -1.34687,0 -2.0203,0 -3.36718,0 -6.73435,0 -10.10153,0 z"
       id="path4184"
       inkscape:connector-curvature="0" />
    <path
       style="fill:#00ab00;stroke:#000000;stroke-width:1px;stroke-linecap:butt;stroke-linejoin:miter;stroke-opacity:1;fill-opacity:1"
       d="m 301.02546,551.32652 c 2.69374,0 5.52571,-0.85184 8.08122,0 1.80701,0.60234 2.45575,2.98404 4.04061,4.04061 0.56033,0.37356 1.38143,-0.21296 2.0203,0 1.42858,0.47619 2.57973,1.65508 4.04061,2.02031 1.30666,0.32666 2.83594,-0.60234 4.04061,0 1.70368,0.85183 2.45576,2.98403 4.04061,4.04061 0.56034,0.37355 1.34687,0 2.02031,0 1.34687,0 2.69374,0 4.04061,0 4.71404,0 9.42809,0 14.14214,0 10.23798,0 -1.80702,-1.20468 6.06091,4.04061 1.04235,0.6949 10.30002,-0.60728 12.12183,0 0.90351,0.30117 1.34687,1.34687 2.02031,2.0203 1.34687,1.34687 2.69374,2.69374 4.04061,4.04061 0.67343,0.67344 1.34687,1.34687 2.0203,2.02031 0.67344,0.67343 1.59439,1.16847 2.02031,2.0203 0.30117,0.60234 -0.30117,1.41797 0,2.02031 0.42591,0.85183 1.34687,1.34687 2.0203,2.0203 0.67344,0.67344 1.1168,1.71914 2.02031,2.02031 1.27775,0.42591 2.91994,-0.74711 4.04061,0 1.25294,0.83529 1.18501,2.78767 2.0203,4.04061 4.01354,6.0203 -0.40406,-2.28968 6.06092,2.0203 1.25294,0.8353 0.76736,3.20532 2.0203,4.04061 1.12067,0.74711 2.76286,-0.42592 4.04061,0 0.90351,0.30117 1.1168,1.71914 2.02031,2.02031 1.68383,0.56127 7.42979,-0.65143 8.08122,0 0.1087,0.1087 0,10.85618 0,12.12183 0,0.67343 0.47619,1.54411 0,2.0203 -0.47619,0.47619 -1.54412,-0.47619 -2.02031,0 -0.95238,0.95238 0.60234,2.83594 0,4.04061 -0.42591,0.85184 -1.34687,1.34687 -2.0203,2.02031 -0.67344,0.67343 -1.16847,1.59439 -2.02031,2.0203 -0.60234,0.30117 -1.41796,-0.30117 -2.0203,0 -1.70367,0.85184 -2.2336,3.43827 -4.04061,4.04061 -1.27776,0.42592 -2.91995,-0.74711 -4.04061,0 -1.25294,0.8353 -0.95551,2.97582 -2.02031,4.04061 -1.06479,1.0648 -2.69374,1.34687 -4.04061,2.02031 -0.67343,1.34687 -1.1168,2.83593 -2.0203,4.04061 -1.14286,1.52381 -2.5168,2.89775 -4.04061,4.04061 -1.20468,0.90351 -3.20532,0.76736 -4.04061,2.0203 -0.74711,1.12067 0.42591,2.76286 0,4.04061 -0.30117,0.90351 -1.71914,1.1168 -2.02031,2.02031 -0.42592,1.27775 0.60234,2.83593 0,4.04061 -1.02525,2.0505 -5.44942,-3.42912 -6.06091,-4.04061 -1.34687,-1.34687 -2.69374,-2.69374 -4.04061,-4.04061 -0.67344,-0.67344 -1.71914,-1.1168 -2.02031,-2.02031 -0.42592,-1.27775 0.95238,-3.08823 0,-4.04061 -0.95238,-0.95238 -2.73395,0.32667 -4.04061,0 -1.46088,-0.36522 -2.97582,-0.95551 -4.04061,-2.0203 -1.06479,-1.0648 -0.76736,-3.20532 -2.0203,-4.04061 -1.12067,-0.74711 -2.69374,0 -4.04061,0 -1.05646,0 -7.55,-0.26561 -8.08122,0 -0.85184,0.42592 -1.34688,1.34687 -2.02031,2.0203 -0.67344,0.67344 -1.59439,1.16847 -2.02031,2.02031 -0.30116,0.60234 0.30117,1.41797 0,2.0203 -0.42591,0.85184 -1.34687,1.34687 -2.0203,2.02031 -0.67344,0.67343 -1.34687,1.34687 -2.02031,2.0203 -1.09515,1.09516 -2.05881,3.0112 -4.04061,2.02031 -4.467,-2.2335 -0.62694,-1.25389 -2.0203,-4.04061 -1.08169,-2.16338 -2.95892,-1.87723 -4.04061,-4.04061 -0.30117,-0.60234 0.30117,-1.41797 0,-2.02031 -0.42592,-0.85183 -1.59439,-1.16847 -2.02031,-2.0203 -0.30117,-0.60234 0.30117,-1.41797 0,-2.02031 -2.2335,-4.467 -1.25388,-0.62694 -4.04061,-2.0203 -4.03922,-2.01961 0.0357,-4.70214 -4.04061,-6.06092 -1.27775,-0.42591 -2.69374,0 -4.04061,0 -0.67343,0 -1.71913,0.60234 -2.0203,0 -0.60234,-1.20467 0.74711,-2.91994 0,-4.04061 -0.83529,-1.25294 -3.20532,-0.76736 -4.04061,-2.0203 -0.74711,-1.12067 0,-2.69374 0,-4.04061 0,-0.67344 -0.30117,-1.41797 0,-2.02031 0.42592,-0.85183 1.34687,-1.34687 2.0203,-2.0203 1.34687,-1.34687 2.98404,-2.45575 4.04061,-4.04061 0.37356,-0.56033 -0.30117,-1.41797 0,-2.02031 0.42592,-0.85183 1.59439,-1.16847 2.02031,-2.0203 0.30117,-0.60234 -0.30117,-1.41797 0,-2.02031 0.42592,-0.85183 1.59439,-1.16847 2.0203,-2.0203 0.30117,-0.60234 -0.47619,-1.54412 0,-2.02031 0.47619,-0.47619 1.54412,0.47619 2.02031,0 1.06479,-1.06479 1.54411,-2.61204 2.0203,-4.04061 0.21296,-0.63887 -0.60233,-1.71913 0,-2.0203 1.20468,-0.60234 3.08823,0.95238 4.04061,0 0.95239,-0.95238 -0.60233,-2.83594 0,-4.04061 0.30117,-0.60234 1.54412,0.47619 2.02031,0 0.47619,-0.47619 0.47619,-1.54412 0,-2.02031 -0.47619,-0.47619 -1.41797,0.30117 -2.02031,0 -0.85183,-0.42592 -1.11679,-1.71913 -2.0203,-2.0203 -1.27775,-0.42592 -2.91995,0.74711 -4.04061,0 -1.25294,-0.8353 -0.76737,-3.20532 -2.02031,-4.04061 -6.06091,-4.04061 -2.0203,2.0203 -6.06091,0 -0.85184,-0.42592 -1.16847,-1.59439 -2.02031,-2.02031 -0.60234,-0.30117 -1.54411,0.47619 -2.0203,0 -0.47619,-0.47619 0.30117,-1.41797 0,-2.0203 -0.42592,-0.85184 -1.59439,-1.16847 -2.02031,-2.02031 -0.30117,-0.60234 -0.11071,-1.35603 0,-2.0203 0.56453,-3.38714 1.34687,-6.73435 2.02031,-10.10153 z"
       id="path4186"
       inkscape:connector-curvature="0" />
    <path
       style="fill:#00ab00;stroke:#000000;stroke-width:1px;stroke-linecap:butt;stroke-linejoin:miter;stroke-opacity:1;fill-opacity:1"
       d="m 541.44176,712.95093 c 2.69374,2.0203 5.49449,3.9053 8.08122,6.06091 1.46328,1.2194 2.69374,2.69374 4.04061,4.04061 1.34687,1.34687 2.98404,2.45576 4.04061,4.04061 0.74711,1.12067 -0.60233,2.83594 0,4.04061 0.42592,0.85184 1.59439,1.16847 2.02031,2.02031 0.53322,1.06643 -0.58651,5.18114 0,6.06091 1.05657,1.58486 2.98404,2.45576 4.04061,4.04061 0.37355,0.56034 -0.47619,1.54412 0,2.02031 0.47619,0.47619 1.41797,-0.30117 2.02031,0 0.85183,0.42592 1.16846,1.59439 2.0203,2.0203 0.60234,0.30117 1.34687,0 2.02031,0 0.67343,0 1.41796,0.30117 2.0203,0 0.81603,-0.40801 8.02066,-8.02066 8.08122,-8.08122 2.02031,-2.0203 4.04061,-4.04061 6.06092,-6.06091 1.34687,-1.34687 2.98403,-2.45575 4.04061,-4.04061 0.37355,-0.56033 0,-1.34687 0,-2.02031 0,-1.34687 0,-2.69374 0,-4.04061 0,-1.14195 0.44262,-9.43758 0,-10.10152 -1.05658,-1.58486 -2.89776,-2.5168 -4.04061,-4.04061 -0.90351,-1.20468 -0.76737,-3.20532 -2.02031,-4.04061 -9.60208,-6.40139 1.69839,7.7593 -8.08122,-2.02031 -1.06479,-1.06479 -0.76736,-3.20531 -2.0203,-4.04061 -2.02031,-1.34687 -4.04061,0.67344 -6.06092,0 -1.42857,-0.47619 -2.57972,-1.65508 -4.04061,-2.0203 -1.30666,-0.32667 -2.91995,0.74711 -4.04061,0 -1.25294,-0.8353 -0.76737,-3.20532 -2.02031,-4.04061 -2.24132,-1.49422 -5.83989,1.49421 -8.08122,0 -1.25294,-0.8353 -0.76736,-3.20532 -2.0203,-4.04061 -1.12066,-0.74711 -2.69374,0 -4.04061,0 -4.71405,0 -9.42809,0 -14.14214,0 -0.67343,0 -1.45997,-0.37356 -2.0203,0 -1.58486,1.05657 -2.33694,3.18877 -4.04061,4.04061 -1.20468,0.60234 -2.76286,-0.42592 -4.04061,0 -2.97269,0.99089 -2.02031,3.8706 -2.02031,6.06091 0,0.67344 0,1.34687 0,2.02031 0,0.67343 -0.47619,1.54411 0,2.0203 0.47619,0.47619 1.41797,-0.30117 2.02031,0 1.70367,0.85184 2.33694,3.18878 4.04061,4.04061 1.2698,0.63491 6.81141,-0.6349 8.08122,0 3.51221,1.75611 6.73435,4.04061 10.10152,6.06092 z"
       id="path4188"
       inkscape:connector-curvature="0" />
    <path
       style="fill:#00ab00;stroke:#000000;stroke-width:1px;stroke-linecap:butt;stroke-linejoin:miter;stroke-opacity:1;fill-opacity:1"
       d="m 363.65492,1296.8191 c -5.00357,-8.6041 -4.04061,-8.1842 -4.04061,-16.1624 0,-0.6735 0,-1.3469 0,-2.0203 0,-0.6735 -0.30117,-1.418 0,-2.0204 0.42591,-0.8518 1.59438,-1.1684 2.0203,-2.0203 0.30117,-0.6023 -0.37355,-1.4599 0,-2.0203 1.05657,-1.5848 2.69374,-2.6937 4.04061,-4.0406 0.67344,-0.6734 1.71914,-1.1168 2.02031,-2.0203 0.42591,-1.2777 -0.60234,-2.8359 0,-4.0406 3.633,-7.266 3.50097,-1.4807 8.08122,-6.0609 1.06479,-1.0648 0.76736,-3.2053 2.0203,-4.0406 1.12067,-0.7471 2.83593,0.6023 4.04061,0 1.70367,-0.8518 2.69374,-2.6938 4.04061,-4.0406 0.67344,-0.6735 1.1168,-1.7192 2.02031,-2.0203 1.27775,-0.4259 2.69374,0 4.04061,0 1.34687,-1.3469 2.33694,-3.1888 4.04061,-4.0406 1.20467,-0.6024 2.83593,0.6023 4.04061,0 1.70367,-0.8519 2.45575,-2.9841 4.04061,-4.0406 0.56033,-0.3736 1.45997,0.3735 2.0203,0 1.58486,-1.0566 2.33694,-3.1888 4.04061,-4.0407 1.20468,-0.6023 2.83594,0.6024 4.04061,0 0.60234,-0.3011 -0.37355,-1.4599 0,-2.0203 3.22009,-4.8301 4.67926,-2.5545 6.06092,-8.0812 0.32666,-1.3066 -0.74711,-2.9199 0,-4.0406 0.83529,-1.2529 3.20532,-0.7674 4.04061,-2.0203 0.74711,-1.1207 0,-2.6937 0,-4.0406 0,-3.3672 0,-6.7344 0,-10.1015 0,-1.3469 0.74711,-2.92 0,-4.0406 -0.83529,-1.253 -2.97582,-0.9556 -4.04061,-2.0204 -1.0648,-1.0647 -0.76737,-3.2053 -2.02031,-4.0406 -9.60208,-6.4013 1.69839,7.7593 -8.08122,-2.0203 -4.58024,-4.5802 1.20509,-4.4482 -6.06091,-8.0812 -1.20468,-0.6023 -2.91995,0.7471 -4.04061,0 -1.25294,-0.8353 -0.95551,-2.9758 -2.02031,-4.0406 -1.06479,-1.0648 -2.83593,-1.1168 -4.04061,-2.0203 -1.52381,-1.1429 -2.69374,-2.6937 -4.04061,-4.0406 -1.34687,-1.3469 -2.89775,-2.5168 -4.04061,-4.0406 -0.90351,-1.2047 -0.76736,-3.2053 -2.0203,-4.0406 -1.12067,-0.7471 -2.73396,0.3266 -4.04061,0 -8.07236,-2.0181 -0.031,-2.0358 -8.08122,-6.0609 -1.20468,-0.6024 -2.91995,0.7471 -4.04061,0 -3.66471,-2.4432 -1.1488,-8.7943 -2.02031,-10.1016 -1.05657,-1.5848 -2.98404,-2.4557 -4.04061,-4.0406 -0.37355,-0.5603 0,-1.3469 0,-2.0203 0,-0.6734 0,-1.3469 0,-2.0203 0,-4.0406 0,-8.0812 0,-12.1218 0,-1.142 -0.44263,-9.4376 0,-10.1015 1.05657,-1.5849 2.69374,-2.6938 4.04061,-4.0407 1.34687,-1.3468 2.45575,-2.984 4.04061,-4.0406 0.56033,-0.3735 1.38143,0.213 2.02031,0 1.42857,-0.4762 2.61204,-1.5441 4.04061,-2.0203 0.63887,-0.2129 1.45997,0.3736 2.0203,0 1.58486,-1.0565 2.33694,-3.1887 4.04061,-4.0406 1.80702,-0.9035 4.04061,0 6.06092,0 0.48008,0 7.62841,-0.2264 8.08122,0 0.85183,0.4259 1.16847,1.5944 2.0203,2.0203 0.60234,0.3012 1.41797,-0.3011 2.02031,0 1.63816,0.8191 4.56697,5.6875 6.06091,6.0609 13.76662,0 -0.83683,-1.4285 10.10153,4.0406 2.40935,1.2047 5.83989,-1.4942 8.08122,0 1.25294,0.8353 0.76736,3.2054 2.0203,4.0407 2.24133,1.4942 5.67187,-1.2047 8.08122,0 0.60234,0.3011 -0.30117,1.4179 0,2.0203 0.42592,0.8518 1.59439,1.1684 2.02031,2.0203 0.30742,0.6148 0,5.151 0,6.0609 0,1.0564 0.26561,7.55 0,8.0812 -0.42592,0.8518 -1.71914,1.1168 -2.02031,2.0203 -0.63887,1.9166 0,4.0406 0,6.0609 0,1.6918 -0.38409,8.5652 0,10.1015 2.69374,10.775 0.67344,-2.0203 6.06092,6.061 0.74711,1.1206 -0.42592,2.7628 0,4.0406 0.30117,0.9035 1.71914,1.1168 2.0203,2.0203 0.42592,1.2777 -0.7471,2.9199 0,4.0406 0.8353,1.2529 2.83594,1.1168 4.04061,2.0203 1.52073,1.1405 8.96098,8.5808 10.10153,10.1015 0.90351,1.2047 0.76737,3.2053 2.02031,4.0406 1.12066,0.7471 2.73395,-0.3266 4.04061,0 1.46088,0.3653 2.61203,1.5441 4.04061,2.0203 0.63887,0.213 1.45997,-0.3735 2.0203,0 1.58486,1.0566 2.33694,3.1888 4.04061,4.0406 1.20468,0.6024 2.69374,0 4.04061,0 1.34687,0 2.69374,0 4.04061,0 0.67344,0 1.71914,-0.6023 2.02031,0 0.0158,0.032 0.0296,10.0126 0,10.1016 -0.30117,0.9035 -1.59439,1.1684 -2.02031,2.0203 -0.0528,0.1057 -0.0528,5.9552 0,6.0609 0.42592,0.8518 1.34687,1.3469 2.02031,2.0203 0.67343,0.6734 1.16847,1.5944 2.0203,2.0203 0.60234,0.3012 1.34687,0 2.02031,0 0.67343,0 1.34687,0 2.0203,0 4.71405,0 9.42809,0 14.14214,0 2.0203,0 4.14428,-0.6389 6.06091,0 2.3035,0.7678 3.80648,3.1388 6.06092,4.0406 1.25054,0.5002 2.69374,0 4.04061,0 1.34687,0 2.69374,0 4.04061,0 0.67343,0 1.71913,-0.6023 2.0203,0 3.81614,7.6323 -0.56119,2.5815 -2.0203,4.0406 -0.47619,0.4762 -0.47619,1.5441 0,2.0203 0.47619,0.4762 1.34687,0 2.0203,0 0.67344,0 1.34687,0 2.02031,0 1.82103,0 8.82995,-0.4238 10.10152,0 1.42858,0.4762 2.83594,1.1168 4.04061,2.0203 3.04762,2.2857 5.03361,5.7955 8.08122,8.0813 1.20468,0.9035 2.97582,0.9555 4.04061,2.0203 1.0648,1.0648 1.1168,2.8359 2.02031,4.0406 1.14286,1.5238 2.5168,2.8977 4.04061,4.0406 1.20468,0.9035 3.20532,0.7673 4.04061,2.0203 6.40139,9.6021 -7.75931,-1.6984 2.02031,8.0812 1.06479,1.0648 3.20531,0.7674 4.04061,2.0203 0.7471,1.1207 0,2.6937 0,4.0406 0,1.3469 0,2.6938 0,4.0406 0,1.3469 0,2.6938 0,4.0406 0,1.3469 0.7471,2.92 0,4.0406 -0.8353,1.253 -2.97582,0.9556 -4.04061,2.0204 -7.45239,7.4523 4.83809,0.8152 -6.06092,8.0812 -0.56033,0.3735 -1.34687,0 -2.02031,0 -1.34687,0.6734 -2.83593,1.1168 -4.04061,2.0203 -1.52072,1.1405 -8.96098,8.5808 -10.10152,10.1015 -0.90351,1.2047 -0.76737,3.2053 -2.02031,4.0406 -1.12066,0.7471 -2.69374,0 -4.04061,0 -0.38023,0 -9.9854,0.077 -10.10152,0 -1.25294,-0.8353 -0.76737,-3.2053 -2.02031,-4.0406 -1.12066,-0.7471 -2.76285,0.4259 -4.04061,0 -0.9035,-0.3012 -1.34687,-1.3469 -2.0203,-2.0203 -1.34687,-1.3469 -2.69374,-2.6937 -4.04061,-4.0406 -1.34687,-1.3469 -2.45575,-2.9841 -4.04061,-4.0406 -0.56033,-0.3736 -1.38143,0.2129 -2.02031,0 -1.42857,-0.4762 -2.61204,-1.5441 -4.04061,-2.0203 -1.17031,-0.3901 -6.33045,0 -8.08122,0 -1.34687,0 -2.91994,0.7471 -4.04061,0 -1.25294,-0.8353 -0.76736,-3.2053 -2.0203,-4.0406 -0.63891,-0.426 -6.89696,0.3947 -8.08122,0 -0.90351,-0.3012 -1.34687,-1.3469 -2.02031,-2.0203 -1.34687,-1.3469 -2.69374,-2.6938 -4.04061,-4.0407 -1.34687,-1.3468 -2.45575,-2.984 -4.04061,-4.0406 -0.56033,-0.3735 -1.54411,0.4762 -2.0203,0 -1.45911,-1.4591 3.59165,-5.8364 -4.04061,-2.0203 -0.60234,0.3012 0,1.3469 0,2.0203 0,0.6735 0,1.3469 0,2.0203 0,4.738 0.47619,-0.9523 -2.02031,4.0407 -0.30117,0.6023 0.30117,1.4179 0,2.0203 -0.42592,0.8518 -1.59439,1.1684 -2.0203,2.0203 -0.30117,0.6023 0.47619,1.5441 0,2.0203 -0.47619,0.4762 -1.54412,-0.4762 -2.02031,0 -0.47619,0.4762 0.47619,1.5441 0,2.0203 -0.47619,0.4762 -1.34687,0 -2.0203,0 -1.432,0 -11.59948,-0.2612 -12.12184,0 -0.85183,0.4259 -1.16846,1.5944 -2.0203,2.0203 -0.60234,0.3011 -1.54411,-0.4762 -2.02031,0 -0.47619,0.4762 0.4762,1.5441 0,2.0203 -0.70916,0.7091 -8.70603,-0.6978 -10.10152,0 -0.85184,0.4259 -1.16847,1.5944 -2.02031,2.0203 -1.20467,0.6023 -2.83593,-0.6024 -4.04061,0 -0.85183,0.4259 -1.16847,1.5944 -2.0203,2.0203 -0.60234,0.3012 -1.54412,-0.4762 -2.02031,0 -1.06479,1.0648 -1.54411,2.612 -2.0203,4.0406 -0.21296,0.6389 0.60234,1.7191 0,2.0203 -1.20468,0.6023 -3.08823,-0.9524 -4.04061,0 -0.95238,0.9524 0.42592,2.7629 0,4.0406 -0.49189,1.4757 -7.58933,6.6056 -8.08122,8.0812 -0.42592,1.2778 0.95238,3.0883 0,4.0406 -0.95238,0.9524 -2.69374,0 -4.04061,0 -1.34687,0 -2.69374,0 -4.04061,0 -3.36718,0 -6.73435,0 -10.10153,0 -0.67343,0 -1.54411,0.4762 -2.0203,0 -0.47619,-0.4761 0.47619,-1.5441 0,-2.0203 -0.95238,-0.9523 -2.83594,0.6024 -4.04061,0 -0.85184,-0.4259 -1.16847,-1.5943 -2.02031,-2.0203 -1.20468,-0.6023 -3.08823,0.9524 -4.04061,0 -0.47619,-0.4762 0.30117,-1.4179 0,-2.0203 -0.42592,-0.8518 -1.59439,-1.1684 -2.0203,-2.0203 -0.30117,-0.6023 0.30117,-1.4179 0,-2.0203 -0.42592,-0.8518 -1.59439,-1.1684 -2.02031,-2.0203 -0.60234,-1.2047 1.15493,-3.3476 0,-4.0406 -3.10975,-1.8658 -6.73435,-2.6937 -10.10152,-4.0406 z"
       id="path4190"
       inkscape:connector-curvature="0" />
    <path
       style="fill:#00ab00;stroke:#000000;stroke-width:1px;stroke-linecap:butt;stroke-linejoin:miter;stroke-opacity:1;fill-opacity:1"
       d="m 593.9697,1068.5246 c 0,18.6408 1.25053,1.6841 -4.04061,20.2031 -0.37002,1.295 0,2.6937 0,4.0406 0,8.7546 0,17.5093 0,26.264 0,1.2912 -0.29139,11.539 0,12.1218 0.85183,1.7037 3.18877,2.3369 4.04061,4.0406 0.60233,1.2047 0,2.6937 0,4.0406 0,1.3469 0,2.6937 0,4.0406 0,1.3469 0,2.6938 0,4.0406 0,1.3469 0.74711,2.92 0,4.0406 -0.8353,1.253 -2.83594,1.1168 -4.04061,2.0203 -1.52073,1.1406 -8.96098,8.5808 -10.10153,10.1016 -5.38748,10.7749 2.02031,-2.0203 -6.06091,6.0609 -1.0648,1.0648 -0.95552,2.9758 -2.02031,4.0406 -1.06479,1.0648 -2.83593,1.1168 -4.04061,2.0203 -1.52381,1.1429 -2.69374,2.6937 -4.04061,4.0406 -2.02031,2.0203 -4.04061,4.0406 -6.06092,6.0609 -1.34687,1.3469 -2.45575,2.9841 -4.04061,4.0406 -0.56033,0.3736 -1.34687,0 -2.0203,0 -1.34687,0 -2.69374,0 -4.04061,0 -4.04061,0 -8.08122,0 -12.12183,0 -0.67344,0 -1.45997,-0.3735 -2.02031,0 -1.58485,1.0566 -2.33694,3.1888 -4.04061,4.0406 -1.20467,0.6024 -2.69374,0 -4.04061,0 -0.65955,0 -9.66761,0.434 -10.10152,0 -2.02031,-2.0203 1.01015,-4.0406 0,-6.0609 -0.85184,-1.7036 -3.18878,-2.3369 -4.04061,-4.0406 -0.30117,-0.6023 0.30117,-1.418 0,-2.0203 -0.42592,-0.8518 -1.59439,-1.1685 -2.02031,-2.0203 -0.30117,-0.6023 0.37356,-1.46 0,-2.0203 -1.05657,-1.5849 -2.98404,-2.4558 -4.04061,-4.0406 -0.37355,-0.5603 0.47619,-1.5441 0,-2.0203 -0.47619,-0.4762 -1.54411,0.4762 -2.0203,0 -0.47619,-0.4762 0.47619,-1.5441 0,-2.0203 -0.47619,-0.4762 -1.54412,0.4762 -2.02031,0 -0.47619,-0.4762 0,-1.3469 0,-2.0203 0,-0.9099 -0.30742,-5.4461 0,-6.0609 2.23351,-4.467 1.25389,-0.627 4.04061,-2.0203 0.85184,-0.426 1.16847,-1.5944 2.02031,-2.0204 0.60234,-0.3011 1.41796,0.3012 2.0203,0 0.85184,-0.4259 1.16847,-1.5943 2.02031,-2.0203 1.32293,-0.6614 8.30864,0.5977 10.10152,0 14.63391,-4.8779 -3.18522,0.5825 6.06092,-4.0406 1.20468,-0.6023 2.83593,0.6024 4.04061,0 0.85183,-0.4259 1.34687,-1.3468 2.0203,-2.0203 2.93308,-2.933 2.02031,-2.187 2.02031,-6.0609 0,-0.6734 0,-1.3469 0,-2.0203 0,-0.6734 0.30117,-1.418 0,-2.0203 -0.42592,-0.8518 -1.34687,-1.3469 -2.02031,-2.0203 -1.34687,-1.3469 -2.98403,-2.4558 -4.04061,-4.0406 -0.37355,-0.5603 0.30117,-1.418 0,-2.0203 -0.42591,-0.8519 -1.71913,-1.1168 -2.0203,-2.0203 -0.63888,-1.9167 0,-4.0406 0,-6.0609 0,-3.3672 0,-6.7344 0,-10.1016 0,-0.6734 0.47619,-1.5441 0,-2.0203 -0.47619,-0.4762 -1.54412,0.4762 -2.02031,0 -4.1292,-4.1292 -3.08302,-7.1026 -8.08122,-10.1015 -1.8261,-1.0957 -4.39798,-0.69 -6.06091,-2.0203 -1.89603,-1.5168 -2.32368,-4.344 -4.04061,-6.0609 -1.71693,-1.7169 -4.16489,-2.5238 -6.06092,-4.0406 -2.97474,-2.3798 -5.38748,-5.3875 -8.08122,-8.0812 -1.34687,-1.3469 -2.45575,-2.9841 -4.04061,-4.0407 -0.56033,-0.3735 -1.54411,0.4762 -2.0203,0 -0.47619,-0.4761 0,-1.3468 0,-2.0203 0,-7.315 -0.80836,-0.8077 4.04061,-8.0812 0.37355,-0.5603 0,-1.3469 0,-2.0203 0.67343,-1.3469 1.11679,-2.8359 2.0203,-4.0406 1.14286,-1.5238 3.18878,-2.3369 4.04061,-4.0406 0.60234,-1.2047 -0.74711,-2.92 0,-4.0406 0.8353,-1.253 2.83594,-1.1168 4.04061,-2.0203 1.52381,-1.1429 2.89776,-2.5168 4.04061,-4.0406 0.90351,-1.2047 1.1168,-2.836 2.02031,-4.0406 1.14285,-1.5239 3.18877,-2.337 4.04061,-4.0407 0.0158,-0.032 0.0296,-10.0126 0,-10.1015 -0.30117,-0.9035 -1.59439,-1.1684 -2.02031,-2.0203 -0.30117,-0.6023 0.30117,-1.418 0,-2.0203 -0.42592,-0.8518 -1.34687,-1.3469 -2.0203,-2.0203 -1.34687,-1.3469 -2.69374,-2.6937 -4.04061,-4.0406 -2.69374,-2.6937 -5.38748,-5.3875 -8.08122,-8.0812 -0.67344,-0.6735 -1.59439,-1.1685 -2.02031,-2.0203 -0.30117,-0.6024 0.47619,-1.5441 0,-2.0203 -0.47619,-0.4762 -2.0203,0.6734 -2.0203,0 0,-0.9524 1.08642,-1.8336 2.0203,-2.0203 3.96215,-0.7925 8.08122,0 12.12183,0 1.65403,0 8.79254,-0.4364 10.10153,0 1.42857,0.4762 2.57972,1.655 4.04061,2.0203 1.30665,0.3266 2.83593,-0.6024 4.04061,0 1.70367,0.8518 2.33694,3.1887 4.04061,4.0406 1.20468,0.6023 2.91994,-0.7471 4.04061,0 1.25294,0.8353 1.1168,2.8359 2.0203,4.0406 1.14286,1.5238 2.69374,2.6937 4.04061,4.0406 1.34687,1.3469 2.5168,2.8977 4.04061,4.0406 0.72038,4.9629 4.28899,0.839 6.06092,2.0203 3.16971,2.1132 4.67388,6.3776 8.08122,8.0812 1.20468,0.6024 2.83593,-0.6023 4.04061,0 0.17689,0.088 10.01308,9.9247 10.10153,10.1016 0.60233,1.2046 -0.95239,3.0882 0,4.0406 0.95238,0.9523 3.08822,-0.9524 4.04061,0 0.95238,0.9523 -0.95239,3.0882 0,4.0406 0.95238,0.9524 2.91994,-0.7471 4.04061,0 1.25294,0.8353 0.95551,2.9758 2.0203,4.0406 1.0648,1.0648 3.20532,0.7674 4.04061,2.0203 0.74711,1.1207 -0.86224,3.0059 0,4.0406 2.76053,3.3126 6.73435,5.3875 10.10153,8.0812 3.36717,2.6938 6.73435,5.3875 0,0 z"
       id="path4192"
       inkscape:connector-curvature="0" />
    <path
       style="fill:#00ab00;stroke:#000000;stroke-width:1px;stroke-linecap:butt;stroke-linejoin:miter;stroke-opacity:1;fill-opacity:1"
       d="m -32.324881,1272.5754 c -3.367176,2.0203 -6.906184,3.7786 -10.101526,6.061 -1.549968,1.1071 -2.69374,2.6937 -4.04061,4.0406 -2.69374,2.6937 -5.38748,5.3874 -8.08122,8.0812 -1.34687,1.3469 -2.693741,2.6937 -4.040611,4.0406 -1.34687,1.3469 -3.188774,2.3369 -4.04061,4.0406 -0.602338,1.2047 0.326664,2.734 0,4.0406 -0.365221,1.4609 -1.655083,2.5797 -2.020305,4.0406 -0.326664,1.3067 0.747109,2.92 0,4.0406 -0.835293,1.253 -3.205317,0.7674 -4.04061,2.0203 -0.747109,1.1207 0.602339,2.836 0,4.0406 -0.851835,1.7037 -3.188775,2.337 -4.04061,4.0407 -0.602339,1.2046 0.602338,2.8359 0,4.0406 -1.703671,3.4073 -6.37755,4.6738 -8.081221,8.0812 -0.602338,1.2047 0.74711,2.9199 0,4.0406 -0.835293,1.2529 -2.835933,1.1168 -4.04061,2.0203 -1.523809,1.1429 -2.897753,2.5168 -4.04061,4.0406 -9.301691,12.4023 3.953616,-3.8666 -2.020305,8.0812 -0.851835,1.7037 -3.188775,2.337 -4.04061,4.0406 -0.602339,1.2047 0.747109,2.92 0,4.0407 -0.835294,1.2529 -3.205317,0.7673 -4.04061,2.0203 -0.747109,1.1206 0.602338,2.8359 0,4.0406 -0.851836,1.7036 -3.188771,2.3369 -4.040611,4.0406 -0.60234,1.2047 0.74711,2.9199 0,4.0406 -0.83529,1.2529 -3.20532,0.7674 -4.04061,2.0203 -0.31195,0.4679 0.28453,6.9431 0,8.0812 -0.36522,1.4609 -1.54411,2.6121 -2.0203,4.0406 -0.18236,0.5471 -0.0761,9.8731 0,10.1016 0.30116,0.9035 1.34687,1.3468 2.0203,2.0203 1.34687,1.3468 2.69374,2.6937 4.04061,4.0406 5.387481,5.3874 10.774961,10.7749 16.162441,16.1624 1.34687,1.3469 2.69374,2.6937 4.04061,4.0406 1.34687,1.3469 2.897753,2.5168 4.040611,4.0406 0.903507,1.2047 1.544114,2.6121 2.020305,4.0406 1.25064,3.752 -4.013537,2.0339 4.04061,6.061 1.204677,0.6023 2.835933,-0.6024 4.04061,0 1.703671,0.8518 2.69374,2.6937 4.04061,4.0406 1.34687,1.3468 3.188775,2.3369 4.04061,4.0406 0.732317,1.4646 -0.736249,12.3015 0,14.1421 0.901776,2.2544 2.954729,3.8892 4.04061,6.0609 0.30117,0.6024 -0.212958,1.3815 0,2.0203 0.476191,1.4286 1.655084,2.5798 2.020306,4.0406 0.326664,1.3067 -0.602339,2.836 0,4.0407 9.426604,18.8532 -1.07927,-7.6799 8.08122,6.0609 0.747109,1.1206 -0.602339,2.8359 0,4.0406 0.851835,1.7036 2.897753,2.5168 4.04061,4.0406 0.903508,1.2047 0.955511,2.9758 2.020305,4.0406 1.064794,1.0648 3.205317,0.7674 4.04061,2.0203 0.747109,1.1207 -0.602338,2.8359 0,4.0406 0.851836,1.7037 3.188775,2.337 4.040611,4.0406 0.602338,1.2047 -0.952381,3.0883 0,4.0406 0.952381,0.9524 2.835933,-0.6023 4.04061,0 0.602338,0.3012 -0.212959,1.3815 0,2.0203 1.147169,3.4415 3.137445,5.8887 6.060915,8.0813 0.720378,4.9629 4.288991,0.839 6.060915,2.0203 3.169716,2.1131 4.911505,5.968 8.0812206,8.0812 0.5603319,0.3735 1.3468701,0 2.0203051,0 2.0203051,0 4.0798432,-0.3962 6.0609153,0 1.476604,0.2953 2.6120388,1.5441 4.0406102,2.0203 0.6388765,0.2129 1.34687,0 2.0203051,0 3.3671751,0 6.7343507,0 10.1015257,0 1.34687,0 2.69374,0 4.04061,0 1.34687,0 2.733954,0.3267 4.04061,0 1.460886,-0.3652 2.579725,-1.6551 4.04061,-2.0203 1.138117,-0.2845 7.613298,0.3119 8.081221,0 1.25294,-0.8353 0.767365,-3.2053 2.020305,-4.0406 1.120663,-0.7471 2.835933,0.6023 4.04061,0 1.34687,-1.3469 2.69374,-2.6938 4.04061,-4.0406 1.34687,-1.3469 2.336939,-3.1888 4.04061,-4.0406 1.204677,-0.6024 3.088229,0.9523 4.04061,0 0.952381,-0.9524 -0.952381,-3.0883 0,-4.0407 0.952381,-0.9523 2.835933,0.6024 4.040611,0 0.602338,-0.3011 -0.476191,-1.5441 0,-2.0203 0.47619,-0.4762 1.34687,0 2.020305,0 1.34687,-1.3468 2.897753,-2.5168 4.04061,-4.0406 0.903508,-1.2046 0.767365,-3.2053 2.020305,-4.0406 4.353789,-2.9025 4.169376,3.8475 8.08122,-2.0203 0.747109,-1.1207 -0.425917,-2.7628 0,-4.0406 0.30117,-0.9035 1.34687,-1.3469 2.020305,-2.0203 1.34687,-1.3469 2.455753,-2.984 4.040611,-4.0406 0.560331,-0.3736 1.459973,0.3735 2.020305,0 1.584857,-1.0566 2.5168,-2.8978 4.04061,-4.0406 1.204677,-0.9035 2.975816,-0.9555 4.04061,-2.0203 10.324521,-10.3246 -8.471094,2.8178 6.060915,-8.0812 1.204678,-0.9036 2.975816,-0.9556 4.040606,-2.0204 1.0648,-1.0647 1.1168,-2.8359 2.02031,-4.0406 1.14286,-1.5238 2.69374,-2.6937 4.04061,-4.0406 1.34687,-1.3468 2.5168,-2.8977 4.04061,-4.0406 1.20468,-0.9035 2.83593,-1.1168 4.04061,-2.0203 1.52381,-1.1428 2.55324,-2.8507 4.04061,-4.0406 4.97006,-3.976 6.44299,-3.2032 10.10153,-8.0812 0.9035,-1.2047 1.11679,-2.836 2.0203,-4.0406 1.14286,-1.5238 2.69374,-2.6938 4.04061,-4.0406 1.34687,-1.3469 2.69374,-2.6938 4.04061,-4.0407 1.34687,-1.3468 2.98404,-2.4557 4.04061,-4.0406 0.37356,-0.5603 -0.30117,-1.4179 0,-2.0203 3.10341,-6.2068 1.13952,3.3415 6.06092,-4.0406 0.74711,-1.1206 0,-2.6937 0,-4.0406 0,-0.7419 0.0813,-7.9999 0,-8.0812 -0.47619,-0.4762 -1.41797,0.3012 -2.02031,0 -8.40802,-4.204 2.15978,0.1395 -2.0203,-4.0406 -1.0648,-1.0648 -2.97582,-0.9555 -4.04061,-2.0203 -10.32453,-10.3245 8.47109,2.8178 -6.06092,-8.0812 -1.20468,-0.9035 -2.97581,-0.9556 -4.04061,-2.0203 -1.06479,-1.0648 -1.1168,-2.836 -2.0203,-4.0407 -10.89901,-14.532 2.2433,4.2637 -8.08122,-6.0609 -1.0648,-1.0648 -1.1168,-2.8359 -2.02031,-4.0406 -1.14286,-1.5238 -2.69374,-2.6937 -4.04061,-4.0406 -1.34687,-1.3469 -2.5168,-2.8977 -4.04061,-4.0406 -1.20468,-0.9035 -2.83593,-1.1168 -4.04061,-2.0203 -10.720814,-8.0406 0.01,0.019 -4.04061,-8.0812 -0.85184,-1.7037 -2.69374,-2.6938 -4.040611,-4.0406 -1.34687,-1.3469 -2.69374,-2.6938 -4.04061,-4.0406 -1.34687,-1.3469 -2.897753,-2.5168 -4.04061,-4.0407 -0.903508,-1.2046 -1.116797,-2.8359 -2.020305,-4.0406 -1.142857,-1.5238 -3.188775,-2.3369 -4.04061,-4.0406 -0.602339,-1.2047 0.602338,-2.8359 0,-4.0406 -0.851836,-1.7037 -3.188775,-2.3369 -4.04061,-4.0406 -1.34687,-2.6937 1.34687,-7.4078 0,-10.1015 -0.851836,-1.7037 -3.188775,-2.337 -4.040611,-4.0406 -0.602338,-1.2047 0.602339,-2.836 0,-4.0406 -0.851835,-1.7037 -3.188774,-2.337 -4.04061,-4.0407 -1.34687,-2.6937 1.34687,-7.4077 0,-10.1015 -0.851835,-1.7037 -3.188775,-2.3369 -4.04061,-4.0406 -0.602339,-1.2047 0.425918,-2.7628 0,-4.0406 -0.301169,-0.9035 -1.719136,-1.1168 -2.020305,-2.0203 -0.729414,-2.1882 0.804472,-12.5332 0,-14.1421 -0.851835,-1.7037 -3.188775,-2.337 -4.04061,-4.0407 -0.602339,-1.2046 0.952381,-3.0882 0,-4.0406 -0.952381,-0.9523 -2.835933,0.6024 -4.04061,0 -0.602339,-0.3011 0.47619,-1.5441 0,-2.0203 -0.476191,-0.4762 -1.459974,0.3736 -2.020305,0 -9.197005,-9.197 0.836837,-1.0679 -8.081221,-4.0406 -0.903508,-0.3011 -1.116797,-1.7191 -2.020305,-2.0203 -1.91663,-0.6389 -4.04061,0 -6.060915,0 -3.367175,0 -6.734351,0 -10.101526,0 -5.38748,0 -10.77496,0 -16.16244,0 -2.020305,0 -4.100932,-0.49 -6.0609156,0 -1.4608857,0.3652 -2.6120388,1.5441 -4.0406102,2.0203 -1.8182746,0.6061 -4.24264071,-0.6061 -6.0609153,0 -0.9035079,0.3012 -1.1684697,1.5944 -2.0203051,2.0203 -0.5312219,0.2656 -7.0247618,0 -8.0812208,0 -0.909859,0 -5.446067,-0.3074 -6.060915,0 -2.107661,1.0539 -3.194982,4.8863 -4.04061,4.0406 -0.673435,-0.6734 1.34687,-1.3468 2.020305,-2.0203 -4.04061,0.6735 -8.08122,1.3469 -12.12183,2.0203 z"
       id="path4194"
       inkscape:connector-curvature="0" />
    <path
       style="fill:#00ab00;stroke:#000000;stroke-width:1px;stroke-linecap:butt;stroke-linejoin:miter;stroke-opacity:1;fill-opacity:1"
       d="m -165.66502,1411.9765 c 4.3063,7.0237 10.40806,12.4284 16.16244,18.1827 1.34687,1.3469 3.18878,2.337 4.04061,4.0406 0.60234,1.2047 -0.74711,2.92 0,4.0407 0.8353,1.2529 2.97582,0.9555 4.04061,2.0203 1.0648,1.0648 1.1168,2.8359 2.02031,4.0406 4.99299,6.6573 4.04061,0.959 4.04061,8.0812 0,2.0203 -0.90351,4.2539 0,6.0609 0.85183,1.7037 2.98404,2.4558 4.04061,4.0406 0.37355,0.5603 0,1.3469 0,2.0203 0,1.327 -0.40136,11.5198 0,12.1219 0.83529,1.2529 2.97582,0.9555 4.04061,2.0203 9.77961,9.7796 -4.38108,-1.5209 2.0203,8.0812 3.91185,5.8677 3.72744,-0.8822 8.08122,2.0203 1.25294,0.8353 0.76737,3.2053 2.02031,4.0406 2.24133,1.4942 5.83989,-1.4942 8.08122,0 7.867931,5.2453 -4.17707,4.0406 6.06092,4.0406 2.062626,0 13.160611,-0.3272 14.142131,0 0.903508,0.3012 1.116797,1.7191 2.020305,2.0203 2.477987,0.826 4.866606,0.3683 6.060916,-2.0203 0.112748,-0.2255 0.112748,-9.876 0,-10.1015 -0.425918,-0.8519 -1.594388,-1.1685 -2.020306,-2.0203 -0.301169,-0.6024 0,-1.3469 0,-2.0203 0,-1.3469 0.425918,-2.7629 0,-4.0406 -0.301169,-0.9036 -1.719135,-1.1168 -2.020305,-2.0203 -0.425917,-1.2778 0.747109,-2.92 0,-4.0407 -0.835293,-1.2529 -3.205317,-0.7673 -4.04061,-2.0203 -1.34687,-2.0203 0.673435,-4.0406 0,-6.0609 -0.47619,-1.4286 -1.544114,-2.612 -2.020305,-4.0406 -1.264911,-3.7947 1.897367,-0.3688 0,-6.0609 -0.301169,-0.9035 -1.34687,-1.3469 -2.020305,-2.0203 -0.673435,-0.6734 -1.16847,-1.5944 -2.020305,-2.0203 -0.602339,-0.3012 -1.417967,0.3012 -2.020305,0 -0.851836,-0.4259 -1.16847,-1.5944 -2.020305,-2.0203 -0.602339,-0.3012 -1.417967,0.3011 -2.020305,0 -0.851836,-0.4259 -1.168471,-1.5944 -2.020301,-2.0203 -0.60234,-0.3012 -1.41797,0.3011 -2.02031,0 -0.85183,-0.4259 -1.16847,-1.5944 -2.0203,-2.0203 -0.80104,-0.4005 -5.6479,0.413 -6.06092,0 -0.47619,-0.4762 0.47619,-1.5441 0,-2.0203 -0.95238,-0.9524 -2.83593,0.6023 -4.04061,0 -0.85184,-0.426 -1.16847,-1.5944 -2.02031,-2.0203 -1.20467,-0.6024 -2.76285,0.4259 -4.04061,0 -1.42857,-0.4762 -2.61203,-1.5442 -4.04061,-2.0203 -1.81827,-0.6061 -4.24264,0.606 -6.06091,0 -0.90351,-0.3012 -1.34687,-1.3469 -2.02031,-2.0204 -0.67343,-0.6734 -1.34687,-1.3468 -2.0203,-2.0203 -1.34687,-1.3468 -2.69374,-2.6937 -4.04061,-4.0406 -1.34687,-1.3468 -3.18878,-2.3369 -4.04061,-4.0406 -0.60234,-1.2047 0.60234,-2.8359 0,-4.0406 -0.30117,-0.6023 -1.54412,0.4762 -2.02031,0 -0.95238,-0.9524 0.60234,-2.8359 0,-4.0406 -6.7005,-6.7005 0.95238,1.9048 -2.0203,-4.0406 -0.42592,-0.8518 -1.59439,-1.1685 -2.02031,-2.0203 -0.30117,-0.6024 0,-1.3469 0,-2.0203 0,-1.0565 0.26561,-7.55 0,-8.0812 -0.42591,-0.8519 -1.16847,-1.5944 -2.0203,-2.0203 -0.60234,-0.3012 -1.34687,0 -2.02031,0 -0.67343,0 -1.54411,-0.4762 -2.0203,0 -0.47619,0.4761 0.47619,1.5441 0,2.0203 -0.47619,0.4762 -1.34687,0 -2.02031,0 -2.69374,3.3671 -5.38748,6.7343 -8.08122,10.1015 z"
       id="path4196"
       inkscape:connector-curvature="0" />
  </g>
</svg>
