<?xml version="1.0" encoding="UTF-8" standalone="no"?>
<!-- Created with Inkscape (http://www.inkscape.org/) -->

<svg
   xmlns:dc="http://purl.org/dc/elements/1.1/"
   xmlns:cc="http://creativecommons.org/ns#"
   xmlns:rdf="http://www.w3.org/1999/02/22-rdf-syntax-ns#"
   xmlns:svg="http://www.w3.org/2000/svg"
   xmlns="http://www.w3.org/2000/svg"
   xmlns:sodipodi="http://sodipodi.sourceforge.net/DTD/sodipodi-0.dtd"
   xmlns:inkscape="http://www.inkscape.org/namespaces/inkscape"
   width="744.09448819"
   height="1052.3622047"
   id="svg3206"
   version="1.1"
   inkscape:version="0.48.3.1 r9886"
   sodipodi:docname="mdp2p.svg">
  <defs
     id="defs3208" />
  <sodipodi:namedview
     id="base"
     pagecolor="#ffffff"
     bordercolor="#666666"
     borderopacity="1.0"
     inkscape:pageopacity="0.0"
     inkscape:pageshadow="2"
     inkscape:zoom="0.7"
     inkscape:cx="458.66561"
     inkscape:cy="558.8741"
     inkscape:document-units="px"
     inkscape:current-layer="layer1"
     showgrid="false"
     inkscape:window-width="1366"
     inkscape:window-height="720"
     inkscape:window-x="0"
     inkscape:window-y="27"
     inkscape:window-maximized="1" />
  <metadata
     id="metadata3211">
    <rdf:RDF>
      <cc:Work
         rdf:about="">
        <dc:format>image/svg+xml</dc:format>
        <dc:type
           rdf:resource="http://purl.org/dc/dcmitype/StillImage" />
        <dc:title />
      </cc:Work>
    </rdf:RDF>
  </metadata>
  <g
     inkscape:label="Layer 1"
     inkscape:groupmode="layer"
     id="layer1">
    <text
       xml:space="preserve"
       style="font-size:70.68112183px;font-style:normal;font-weight:normal;line-height:125%;letter-spacing:0px;word-spacing:0px;fill:#000000;fill-opacity:1;stroke:none;font-family:Sans"
       x="262.78445"
       y="182.02234"
       id="text3155"
       sodipodi:linespacing="125%"><tspan
         sodipodi:role="line"
         x="262.78445"
         y="182.02234"
         id="tspan3157"><tspan
           x="262.78445"
           y="182.02234"
           id="tspan3159">MDP2P</tspan></tspan></text>
    <path
       sodipodi:type="star"
       style="fill:#0031c6;fill-opacity:1;stroke:#000000;stroke-width:2;stroke-miterlimit:4;stroke-opacity:1;stroke-dasharray:none;stroke-dashoffset:0"
       id="path3043"
       sodipodi:sides="6"
       sodipodi:cx="-1022.8571"
       sodipodi:cy="666.64789"
       sodipodi:r1="256.07715"
       sodipodi:r2="221.76932"
       sodipodi:arg1="1.0471976"
       sodipodi:arg2="1.5707963"
       inkscape:flatsided="true"
       inkscape:rounded="0"
       inkscape:randomized="0"
       d="m -894.81855,888.41721 -256.07715,-10e-6 -128.0386,-221.76932 128.0386,-221.76931 256.07717,10e-6 128.03856,221.76932 z"
       transform="matrix(0.49084112,0,0,0.49084112,655.45298,276.60101)" />
    <path
       sodipodi:type="star"
       style="fill:#0031c6;fill-opacity:1;stroke:#000000;stroke-width:2;stroke-miterlimit:4;stroke-opacity:1;stroke-dasharray:none;stroke-dashoffset:0"
       id="path3043-0"
       sodipodi:sides="6"
       sodipodi:cx="-1022.8571"
       sodipodi:cy="666.64789"
       sodipodi:r1="256.07715"
       sodipodi:r2="221.76932"
       sodipodi:arg1="1.0471976"
       sodipodi:arg2="1.5707963"
       inkscape:flatsided="true"
       inkscape:rounded="0"
       inkscape:randomized="0"
       d="m -894.81855,888.41721 -256.07715,-10e-6 -128.0386,-221.76932 128.0386,-221.76931 256.07717,10e-6 128.03856,221.76932 z"
       transform="matrix(0.49084112,0,0,0.49084112,874.22778,147.57989)" />
    <path
       sodipodi:type="star"
       style="fill:#0031c6;fill-opacity:1;stroke:#000000;stroke-width:2;stroke-miterlimit:4;stroke-opacity:1;stroke-dasharray:none;stroke-dashoffset:0"
       id="path3043-1"
       sodipodi:sides="6"
       sodipodi:cx="-1022.8571"
       sodipodi:cy="666.64789"
       sodipodi:r1="256.07715"
       sodipodi:r2="221.76932"
       sodipodi:arg1="1.0471976"
       sodipodi:arg2="1.5707963"
       inkscape:flatsided="true"
       inkscape:rounded="0"
       inkscape:randomized="0"
       d="m -894.81855,888.41721 -256.07715,-10e-6 -128.0386,-221.76932 128.0386,-221.76931 256.07717,10e-6 128.03856,221.76932 z"
       transform="matrix(0.49084112,0,0,0.49084112,871.42302,404.2197)" />
    <path
       sodipodi:type="star"
       style="fill:#0031c6;fill-opacity:1;stroke:#000000;stroke-width:2;stroke-miterlimit:4;stroke-opacity:1;stroke-dasharray:none;stroke-dashoffset:0"
       id="path3043-6"
       sodipodi:sides="6"
       sodipodi:cx="-1022.8571"
       sodipodi:cy="666.64789"
       sodipodi:r1="256.07715"
       sodipodi:r2="221.76932"
       sodipodi:arg1="1.0471976"
       sodipodi:arg2="1.5707963"
       inkscape:flatsided="true"
       inkscape:rounded="0"
       inkscape:randomized="0"
       d="m -894.81855,888.41721 -256.07715,-10e-6 -128.0386,-221.76932 128.0386,-221.76931 256.07717,10e-6 128.03856,221.76932 z"
       transform="matrix(0.49084112,0,0,0.49084112,1088.7955,276.60101)" />
    <path
       sodipodi:type="star"
       style="fill:#0031c6;fill-opacity:1;stroke:#000000;stroke-width:2;stroke-miterlimit:4;stroke-opacity:1;stroke-dasharray:none;stroke-dashoffset:0"
       id="path3043-3"
       sodipodi:sides="6"
       sodipodi:cx="-1022.8571"
       sodipodi:cy="666.64789"
       sodipodi:r1="256.07715"
       sodipodi:r2="221.76932"
       sodipodi:arg1="1.0471976"
       sodipodi:arg2="1.5707963"
       inkscape:flatsided="true"
       inkscape:rounded="0"
       inkscape:randomized="0"
       d="m -894.81855,888.41721 -256.07715,-10e-6 -128.0386,-221.76932 128.0386,-221.76931 256.07717,10e-6 128.03856,221.76932 z"
       transform="matrix(0.49084112,0,0,0.49084112,1091.6003,28.375624)" />
    <path
       style="fill:none;stroke:#000000;stroke-width:4.90841103;stroke-linecap:butt;stroke-linejoin:miter;stroke-miterlimit:4;stroke-opacity:1;stroke-dasharray:9.81682229, 4.90841115;stroke-dashoffset:0"
       d="m 238.93921,553.33267 c 30.85287,-21.03607 50.48652,-35.06012 50.48652,-35.06012"
       id="path3852"
       inkscape:connector-curvature="0"
       sodipodi:nodetypes="cc" />
    <path
       style="fill:none;stroke:#000000;stroke-width:4.90841103;stroke-linecap:butt;stroke-linejoin:miter;stroke-miterlimit:4;stroke-opacity:1;stroke-dasharray:9.81682229, 4.90841115;stroke-dashoffset:0"
       d="m 453.50689,430.62244 c 30.85287,-21.03607 50.48652,-35.06012 50.48652,-35.06012"
       id="path3852-4"
       inkscape:connector-curvature="0"
       sodipodi:nodetypes="cc" />
    <path
       style="fill:none;stroke:#000000;stroke-width:4.90841103;stroke-linecap:butt;stroke-linejoin:miter;stroke-miterlimit:4;stroke-opacity:1;stroke-dasharray:9.81682229, 4.90841115;stroke-dashoffset:0"
       d="m 453.5069,685.85981 c 30.85287,-21.03607 50.48651,-35.06012 50.48651,-35.06012"
       id="path3852-7"
       inkscape:connector-curvature="0"
       sodipodi:nodetypes="cc" />
    <path
       style="fill:none;stroke:#000000;stroke-width:4.90841103;stroke-linecap:butt;stroke-linejoin:miter;stroke-miterlimit:4;stroke-opacity:1;stroke-dasharray:9.81682229, 4.90841115;stroke-dashoffset:0"
       d="m 588.13761,507.75452 c -2.80481,-30.85289 -1.40243,-54.69366 -1.40243,-54.69366"
       id="path3852-44"
       inkscape:connector-curvature="0"
       sodipodi:nodetypes="cc" />
    <path
       style="fill:none;stroke:#000000;stroke-width:4.90841103;stroke-linecap:butt;stroke-linejoin:miter;stroke-miterlimit:4;stroke-opacity:1;stroke-dasharray:9.81682229, 4.90841115;stroke-dashoffset:0"
       d="m 371.64161,629.76362 c -2.8048,-30.85289 -1.4024,-54.69366 -1.4024,-54.69366"
       id="path3852-44-5"
       inkscape:connector-curvature="0"
       sodipodi:nodetypes="cc" />
    <path
       style="fill:none;stroke:#000000;stroke-width:4.90841103;stroke-linecap:butt;stroke-linejoin:miter;stroke-miterlimit:4;stroke-opacity:1;stroke-dasharray:9.81682229, 4.90841115;stroke-dashoffset:0"
       d="m 510.47953,538.6074 c -24.19817,-14.73863 -47.68101,-29.44909 -47.6817,-29.45044"
       id="path3852-44-2"
       inkscape:connector-curvature="0"
       sodipodi:nodetypes="cc" />
    <path
       style="fill:none;stroke:#000000;stroke-width:4.90841103;stroke-linecap:butt;stroke-linejoin:miter;stroke-miterlimit:4;stroke-opacity:1;stroke-dasharray:9.81682229, 4.90841115;stroke-dashoffset:0"
       d="m 104.30851,373.1239 c 29.45046,1.40235 64.51055,1.40235 64.51055,1.40235"
       id="path3852-0"
       inkscape:connector-curvature="0"
       sodipodi:nodetypes="cc" />
    <text
       xml:space="preserve"
       style="font-size:23.56037331px;font-style:normal;font-weight:normal;line-height:125%;letter-spacing:0px;word-spacing:0px;fill:#000000;fill-opacity:1;stroke:none;font-family:Sans"
       x="66.443657"
       y="402.91385"
       id="text3133"
       sodipodi:linespacing="125%"><tspan
         sodipodi:role="line"
         x="66.443657"
         y="402.91385"
         id="tspan3135"><tspan
           x="66.443657"
           y="402.91385"
           id="tspan3137">Data Traffic</tspan></tspan></text>
    <path
       style="fill:none;stroke:#000000;stroke-width:4.90841103;stroke-linecap:butt;stroke-linejoin:miter;stroke-miterlimit:4;stroke-opacity:1;stroke-dasharray:9.81682229, 4.90841115;stroke-dashoffset:0"
       d="m 278.2065,694.27418 c -24.19816,-14.73862 -47.681,-29.449 -47.68171,-29.45044"
       id="path3852-44-2-7"
       inkscape:connector-curvature="0"
       sodipodi:nodetypes="cc" />
    <text
       xml:space="preserve"
       style="font-size:23.56037331px;font-style:normal;font-weight:normal;line-height:125%;letter-spacing:0px;word-spacing:0px;fill:#000000;fill-opacity:1;stroke:none;font-family:Sans"
       x="131.703"
       y="699.08234"
       id="text3103"
       sodipodi:linespacing="125%"><tspan
         sodipodi:role="line"
         x="131.703"
         y="699.08234"
         id="tspan3105"><tspan
           x="131.703"
           y="699.08234"
           id="tspan3107">Isles</tspan></tspan></text>
    <text
       xml:space="preserve"
       style="font-size:23.56037331px;font-style:normal;font-weight:normal;line-height:125%;letter-spacing:0px;word-spacing:0px;fill:#000000;fill-opacity:1;stroke:none;font-family:Sans"
       x="321.72449"
       y="396.00519"
       id="text3109"
       sodipodi:linespacing="125%"><tspan
         sodipodi:role="line"
         x="321.72449"
         y="396.00519"
         id="tspan3111"><tspan
           x="321.72449"
           y="396.00519"
           id="tspan3113">Isles</tspan><tspan
           dx="0"
           x="374.27515"
           y="396.00519"
           id="tspan3115" /></tspan></text>
    <text
       xml:space="preserve"
       style="font-size:23.56037331px;font-style:normal;font-weight:normal;line-height:125%;letter-spacing:0px;word-spacing:0px;fill:#000000;fill-opacity:1;stroke:none;font-family:Sans"
       x="69.746391"
       y="330.75131"
       id="text3139"
       sodipodi:linespacing="125%"><tspan
         sodipodi:role="line"
         x="69.746391"
         y="330.75131"
         id="tspan3141"><tspan
           x="69.746391"
           y="330.75131"
           id="tspan3143">TCP/IP </tspan></tspan><tspan
         sodipodi:role="line"
         x="69.746391"
         y="360.20178"
         id="tspan3145"><tspan
           x="69.746391"
           y="360.20178"
           id="tspan3147">Connection</tspan></tspan></text>
    <text
       xml:space="preserve"
       style="font-size:31.41383171px;font-style:normal;font-weight:normal;line-height:125%;letter-spacing:0px;word-spacing:0px;fill:#000000;fill-opacity:1;stroke:none;font-family:Sans"
       x="275.4039"
       y="891.77045"
       id="text3089"
       sodipodi:linespacing="125%"><tspan
         sodipodi:role="line"
         x="275.4039"
         y="891.77045"
         id="tspan3091"><tspan
           x="275.4039"
           y="891.77045"
           id="tspan3093">Archipelago</tspan></tspan></text>
    <text
       xml:space="preserve"
       style="font-size:23.56037331px;font-style:normal;font-weight:normal;line-height:125%;letter-spacing:0px;word-spacing:0px;fill:#000000;fill-opacity:1;stroke:none;font-family:Sans"
       x="526.06897"
       y="442.47681"
       id="text3125"
       sodipodi:linespacing="125%"><tspan
         sodipodi:role="line"
         x="526.06897"
         y="442.47681"
         id="tspan3127"><tspan
           x="526.06897"
           y="442.47681"
           id="tspan3129">Isles</tspan><tspan
           dx="0"
           x="578.61963"
           y="442.47681"
           id="tspan3131" /></tspan></text>
    <text
       xml:space="preserve"
       style="font-size:23.56037331px;font-style:normal;font-weight:normal;line-height:125%;letter-spacing:0px;word-spacing:0px;fill:#000000;fill-opacity:1;stroke:none;font-family:Sans"
       x="597.22705"
       y="531.11719"
       id="text3117"
       sodipodi:linespacing="125%"><tspan
         sodipodi:role="line"
         x="597.22705"
         y="531.11719"
         id="tspan3119"><tspan
           x="597.22705"
           y="531.11719"
           id="tspan3121">Isles</tspan><tspan
           dx="0"
           x="649.77771"
           y="531.11719"
           id="tspan3123" /></tspan></text>
    <text
       xml:space="preserve"
       style="font-size:23.56037331px;font-style:normal;font-weight:normal;line-height:125%;letter-spacing:0px;word-spacing:0px;fill:#000000;fill-opacity:1;stroke:none;font-family:Sans"
       x="382.00797"
       y="652.61584"
       id="text3095"
       sodipodi:linespacing="125%"><tspan
         sodipodi:role="line"
         x="382.00797"
         y="652.61584"
         id="tspan3097"><tspan
           x="382.00797"
           y="652.61584"
           id="tspan3099">Isles</tspan><tspan
           dx="0"
           x="434.55865"
           y="652.61584"
           id="tspan3101" /></tspan></text>
    <text
       xml:space="preserve"
       style="font-size:17.67028046px;font-style:normal;font-weight:normal;line-height:125%;letter-spacing:0px;word-spacing:0px;fill:#000000;fill-opacity:1;stroke:none;font-family:Sans"
       x="184.2411"
       y="211.93219"
       id="text3149"
       sodipodi:linespacing="125%"><tspan
         sodipodi:role="line"
         x="184.2411"
         y="211.93219"
         id="tspan3151"><tspan
           x="184.2411"
           y="211.93219"
           id="tspan3153">Multi-Directional Player To Player Connection</tspan></tspan></text>
    <path
       style="fill:#00ab00;fill-opacity:1;stroke:#000000;stroke-width:0.49084112px;stroke-linecap:butt;stroke-linejoin:miter;stroke-opacity:1"
       d="m 116.22893,537.55566 c -0.75655,1.00895 -2.0091,1.8101 -2.80481,2.80479 -0.52645,0.65807 -0.87594,1.4455 -1.4024,2.10357 -0.20649,0.25818 -0.49471,0.44305 -0.7012,0.70122 -0.84024,1.0503 -0.85845,1.44487 -1.4024,2.8048 -0.23374,0.58432 -0.57778,1.13587 -0.7012,1.75305 -0.1146,0.57294 0,1.16864 0,1.75296 0,0.23371 0.10452,0.49215 0,0.70122 -0.14783,0.29563 -0.55338,0.40549 -0.7012,0.70122 -0.10454,0.20907 0,0.46742 0,0.70113 0,0.2338 0,0.46751 0,0.70122 0,0.70122 0,1.40244 0,2.10357 0,0.70122 0,1.40244 0,2.10366 0,0.23371 -0.10454,0.49216 0,0.70122 0.14782,0.29564 0.46746,0.46742 0.7012,0.70122 0.23373,0.23371 0.38337,0.61032 0.7012,0.70113 1.1237,0.32109 2.36003,-0.22919 3.506,0 0.61714,0.12349 1.16868,0.46751 1.75301,0.70122 0.58434,0.23371 1.16867,0.46751 1.753,0.70122 0.58434,0.23371 1.20658,0.38898 1.75301,0.70122 0.28699,0.16403 0.40554,0.55336 0.70119,0.70113 0.20907,0.10454 0.49215,-0.10444 0.70121,0 0.29565,0.14787 0.46747,0.46751 0.7012,0.70122 0.23374,0.23381 0.46746,0.46752 0.70121,0.70123 0.4209,0.42093 1.25497,1.16331 1.4024,1.75296 0.36651,1.46608 -0.17774,2.19736 -0.70121,3.5061 -0.23372,0.58423 -0.46746,1.16864 -0.70119,1.75296 -0.70121,1.75296 -1.40241,3.50601 -2.10362,5.25906 -0.23372,0.58423 -0.46746,1.16864 -0.70119,1.75296 -0.23374,0.58432 -0.57778,1.13587 -0.7012,1.75296 -0.1146,0.57304 0.1146,1.18002 0,1.75305 -0.12343,0.61709 -0.57779,1.13588 -0.7012,1.75297 -0.2292,1.14598 0.22919,2.36002 0,3.50601 -0.12343,0.61718 -0.52831,1.14788 -0.70121,1.75305 -0.0779,0.27252 0,1.7414 0,2.10357 0,0.22405 -0.0506,2.00247 0,2.10357 0.14783,0.29564 0.46747,0.46751 0.70121,0.70122 0.46746,0.46742 0.88616,0.98945 1.4024,1.40244 -0.55787,1.48369 1.10384,0.50218 1.4024,0.70122 0.27503,0.18334 0.43676,0.50281 0.7012,0.70122 0.20906,0.15671 0.51642,0.16574 0.70121,0.35052 1.69713,1.69718 -0.76029,-0.26395 0.35059,1.40244 0.14496,0.21746 0.58434,0.1169 0.7012,0.35061 0.1568,0.31351 0,0.70113 0,1.05174 0,0.58441 0,1.16873 0,1.75305 0,0.58432 0.1146,1.18002 0,1.75306 -0.12341,0.61708 -0.59773,1.13217 -0.7012,1.75296 -0.13448,0.80692 0,1.63606 0,2.45418 0,0.81812 0,1.63615 0,2.45418 0,2.19213 -0.22473,2.8251 0.7012,4.90845 0.13425,0.30205 0.46747,0.46751 0.70121,0.70122 0.46746,0.46742 0.93494,0.93493 1.4024,1.40235 0.47873,0.47871 1.08958,1.18128 1.75301,1.40244 0.33261,0.11086 0.71166,-0.0848 1.05179,0 3.67288,0.91823 -0.15515,0.70122 3.50601,0.70122 0.81808,0 1.63614,0 2.45421,0 0.23373,0 0.49214,-0.10453 0.7012,0 0.29566,0.14778 0.43676,0.5029 0.7012,0.70113 0.20906,0.1568 0.44768,0.28724 0.7012,0.35061 0.26662,0.0668 1.45942,0 1.75301,0 0.23373,0 0.47946,0.074 0.7012,0 0.15679,-0.0523 0.21838,-0.2514 0.3506,-0.35061 0.3371,-0.25275 0.7012,-0.46742 1.0518,-0.70113 0.3506,-0.2338 0.67492,-0.51273 1.05181,-0.70122 1.83643,-0.91823 1.54992,-0.70122 3.506,-0.70122 0.58434,0 1.16868,0 1.75301,0 0.23373,0 0.49214,-0.10453 0.7012,0 0.29565,0.14787 0.4142,0.5372 0.7012,0.70122 0.54642,0.31225 1.1901,0.41976 1.75301,0.70122 0.60949,0.30476 1.16866,0.70113 1.753,1.05174 0.58434,0.35061 1.186,0.67387 1.75301,1.05183 0.0549,0.0361 4.89611,3.49997 4.90841,3.50611 0.76097,0.38049 1.63613,0.46742 2.4542,0.70113 0.81807,0.2338 1.63614,0.46751 2.4542,0.70122 0.81807,0.23371 1.61196,0.58089 2.45421,0.70122 0.80984,0.11563 1.63613,0 2.45421,0 0.58433,0 1.16867,0 1.75301,0 0.58432,0 1.19331,0.1679 1.75299,0 1.58575,-0.47573 1.70185,-0.9751 2.45421,-2.10357 0.23374,-0.35061 0.59901,-0.64309 0.7012,-1.05183 0.14173,-0.5669 0,-1.16864 0,-1.75305 0,-0.81804 0.11569,-1.64437 0,-2.45428 -0.12032,-0.84222 -0.46746,-1.63606 -0.7012,-2.45418 -0.23374,-0.81803 -0.46747,-1.63606 -0.7012,-2.45418 -0.23374,-0.81803 -0.41505,-1.65294 -0.7012,-2.45418 -0.29935,-0.83816 -0.70948,-1.63263 -1.05181,-2.45427 -0.24205,-0.58089 -0.46746,-1.16864 -0.7012,-1.75296 -0.23374,-0.58432 -0.46747,-1.16873 -0.7012,-1.75296 -0.23373,-0.2338 -0.55338,-0.40559 -0.7012,-0.70122 -0.10453,-0.20907 0.10453,-0.49216 0,-0.70122 -0.14783,-0.29564 -0.55337,-0.40559 -0.7012,-0.70122 -0.10453,-0.20907 0,-0.46742 0,-0.70113 0,-0.2338 -0.10453,-0.49225 0,-0.70122 0.14783,-0.29564 0.46747,-0.46752 0.7012,-0.70123 0.23373,-0.2338 0.46747,-0.46742 0.7012,-0.70122 0.23373,-0.23371 0.46746,-0.46742 0.7012,-0.70122 0.23374,-0.23371 0.3943,-0.57845 0.7012,-0.70122 0.32553,-0.13017 0.7192,0.11095 1.05181,0 0.39974,-0.13315 0.66057,-0.54469 1.0518,-0.70113 0.21702,-0.0867 0.46746,0 0.7012,0 2.32695,0 1.17906,0 3.50601,0 4.20721,0 8.41442,0 12.62163,0 1.16867,0 2.33734,0 3.50601,0 0.58433,0 1.18001,0.11456 1.75301,0 0.61712,-0.12349 1.19009,-0.41975 1.75299,-0.70122 0.60951,-0.30475 1.16867,-0.70122 1.75301,-1.05183 0.58433,-0.35061 1.22089,-0.62611 1.753,-1.05174 0.64529,-0.51625 1.16867,-1.16873 1.753,-1.75305 0.58434,-0.58432 1.16868,-1.16864 1.75301,-1.75305 0.58434,-0.58432 1.27911,-1.07602 1.753,-1.75296 0.36091,-0.51554 0.38896,-1.20656 0.70121,-1.75296 0.164,-0.28706 0.55337,-0.40559 0.7012,-0.70122 0.10452,-0.20907 -0.23374,-0.70122 0,-0.70122 0.62935,0 1.1502,0.52041 1.753,0.70122 0.57077,0.17115 1.16867,0.23371 1.75301,0.35061 0.58433,0.23371 1.15595,0.50217 1.753,0.70113 0.80714,0.26909 1.63614,0.46751 2.45421,0.70122 0.81807,0.2338 1.61194,0.58089 2.4542,0.70122 0.80985,0.11573 1.64727,-0.1345 2.4542,0 0.62079,0.10345 1.13588,0.57782 1.75301,0.70122 0.57299,0.11455 1.16867,0 1.753,0 0.23374,0 0.49215,0.10453 0.70121,0 0.29565,-0.14786 0.59667,-0.38762 0.7012,-0.70122 0.14783,-0.4435 0,-0.93493 0,-1.40244 0,-0.58423 0.0961,-1.17659 0,-1.75296 -0.13987,-0.83925 -0.46747,-1.63615 -0.7012,-2.45418 -0.23374,-0.81812 -0.46747,-1.63615 -0.70121,-2.45428 -0.23372,-0.81803 -0.46746,-1.63606 -0.7012,-2.45418 -0.23373,-0.81803 -0.37397,-1.66883 -0.7012,-2.45418 -0.51462,-1.23508 -1.73696,-2.75857 -2.8048,-3.50601 -0.51559,-0.3609 -1.16867,-0.46742 -1.75301,-0.70122 -0.58433,-0.23371 -1.16866,-0.46742 -1.753,-0.70122 -0.58434,-0.23371 -1.13587,-0.57773 -1.75301,-0.70122 -0.57299,-0.11455 -1.19114,0.16059 -1.753,0 -0.31783,-0.0908 -0.3943,-0.57836 -0.70121,-0.70113 -0.32552,-0.13026 -0.72627,0.13017 -1.05179,0 -0.0385,-0.0154 -1.29288,-1.31479 -1.40241,-1.40244 -0.98339,-0.78671 -2.17201,-1.31687 -3.15541,-2.10357 -0.51623,-0.41299 -0.93493,-0.93493 -1.4024,-1.40244 -0.23373,-0.23371 -0.46747,-0.46742 -0.70119,-0.70122 -0.23374,-0.23371 -0.55339,-0.4055 -0.70121,-0.70113 -0.10453,-0.20907 0.10453,-0.49216 0,-0.70122 -0.14782,-0.29564 -0.55338,-0.40559 -0.70121,-0.70123 -0.10452,-0.20906 0.10453,-0.49215 0,-0.70122 -0.14783,-0.29563 -0.55336,-0.40549 -0.70119,-0.70122 -0.10453,-0.20906 0.10452,-0.49206 0,-0.70113 -0.14783,-0.29572 -0.46748,-0.46751 -0.7012,-0.70122 -0.23374,-0.23371 -0.46747,-0.46751 -0.70121,-0.70122 -0.23373,-0.23371 -0.40555,-0.55335 -0.7012,-0.70113 -0.20906,-0.10462 -0.46746,0 -0.7012,0 -0.3506,0 -0.7012,0 -1.0518,0 -1.05181,0 -2.1036,0 -3.15541,0 -0.23373,0 -0.49215,-0.10462 -0.7012,0 -0.29565,0.14778 -0.44309,0.49459 -0.7012,0.70113 -0.32904,0.26323 -0.72277,0.438 -1.0518,0.70122 -0.51623,0.41299 -0.85234,1.03568 -1.40241,1.40235 -0.0972,0.065 -0.25336,-0.065 -0.3506,0 -0.83822,0.55887 -0.44332,0.81208 -1.40241,1.05183 -0.22675,0.0569 -0.49214,-0.10453 -0.70119,0 -0.56042,0.2802 -0.84199,1.12225 -1.40241,1.40245 -0.20906,0.10453 -0.46747,0 -0.7012,0 -0.23373,0 -0.49214,0.10453 -0.7012,0 -0.29565,-0.14787 -0.40555,-0.55345 -0.7012,-0.70122 -0.43099,-0.21548 -0.94528,-0.19824 -1.40241,-0.35062 -0.59704,-0.19904 -1.16866,-0.46742 -1.753,-0.70122 -1.75301,-0.70122 -3.506,-1.40235 -5.25901,-2.10357 -0.58434,-0.23371 -1.14788,-0.52826 -1.75301,-0.70122 -0.35093,-0.1002 -1.86932,0.11717 -2.1036,0 -0.42072,-0.21033 -0.63108,-0.84141 -1.05181,-1.05174 -0.10452,-0.0523 -0.25336,0.065 -0.3506,0 -0.27503,-0.18343 -0.46746,-0.46751 -0.7012,-0.70122 -0.69295,-0.693 -0.70944,-0.70952 -1.4024,-1.40244 -0.23373,-0.23371 -0.49471,-0.44314 -0.7012,-0.70122 -0.26323,-0.32903 -0.43797,-0.7227 -0.7012,-1.05174 -0.20649,-0.25817 -0.53721,-0.41425 -0.7012,-0.70122 -0.62449,-1.09281 -0.77793,-2.4132 -1.40241,-3.50601 -0.328,-0.57403 -1.00575,-0.87355 -1.4024,-1.40235 -0.47691,-0.63596 -0.19304,-0.97312 -1.05181,-1.40244 -0.96721,-0.48358 -0.62719,0.84917 -1.4024,-0.70122 -0.40151,-0.80305 0.23985,-0.77497 0.7012,-1.05183 2.40212,-1.44126 -0.56981,-0.0388 2.80481,-1.05183 0.60281,-0.18082 1.16867,-0.46742 1.75301,-0.70113 1.753,-0.70123 3.506,-1.40245 5.25901,-2.10367 1.16866,-0.46742 2.33734,-0.93493 3.50601,-1.40235 0.58433,-0.23371 1.1901,-0.41975 1.753,-0.70122 0.6095,-0.30475 1.1435,-0.74707 1.75301,-1.05183 2.36976,-1.18489 1.2306,-0.12764 3.506,-1.75296 0.26898,-0.19218 0.46747,-0.46751 0.7012,-0.70122 0.99915,-0.99911 0.51785,-0.42617 1.40241,-1.75296 0.23373,-0.35061 0.56795,-0.65211 0.7012,-1.05183 0.11087,-0.33265 0,-0.70122 0,-1.05183 0,-0.58432 0,-1.16864 0,-1.75296 0,-0.35061 0,-0.70122 0,-1.05183 0,-0.23371 0.10453,-0.49216 0,-0.70122 -0.14783,-0.29564 -0.55337,-0.4055 -0.7012,-0.70122 -0.10453,-0.20898 0.10452,-0.49207 0,-0.70113 -0.29565,-0.59136 -1.10675,-0.81117 -1.40241,-1.40244 -0.10452,-0.20907 0.10453,-0.49216 0,-0.70122 -0.14782,-0.29564 -0.55337,-0.4055 -0.7012,-0.70113 -0.14625,-0.29257 0.16325,-1.23924 0,-1.40245 -0.16527,-0.16528 -0.49214,0.10454 -0.7012,0 -0.29565,-0.14786 -0.42617,-0.51788 -0.7012,-0.70122 -0.0972,-0.065 -0.23373,0 -0.3506,0 -0.23374,0 -0.47445,0.0569 -0.70121,0 -0.25351,-0.0632 -0.45328,-0.26792 -0.7012,-0.35061 -0.35059,-0.11681 -0.7012,0.2338 -1.05179,0 -0.21745,-0.14497 -0.13318,-0.55624 -0.3506,-0.70122 -0.38896,-0.25925 -0.98429,0.20907 -1.40241,0 -0.29565,-0.14777 -0.40556,-0.55335 -0.7012,-0.70113 -0.20906,-0.10453 -0.47201,0.046 -0.7012,0 -2.30736,-0.46146 0.19334,-0.35061 -2.10361,-0.35061 -0.23374,0 -0.53593,0.16529 -0.7012,0 -0.16528,-0.16528 -0.20906,-0.59668 0,-0.70122 0.41811,-0.20906 0.94401,0.0917 1.4024,0 0.72478,-0.14497 1.39716,-0.48385 2.10361,-0.70122 2.40628,-0.7404 2.28782,-0.38202 4.2072,-1.75296 0.26898,-0.19218 0.55339,-0.40558 0.70121,-0.70122 0.10453,-0.20907 -0.10453,-0.49215 0,-0.70122 0.14782,-0.29564 0.55337,-0.40558 0.7012,-0.70122 0.10453,-0.20907 0,-0.46742 0,-0.70113 0,-0.95524 -0.0338,-1.41372 -1.0518,-1.75305 -0.17627,-0.0587 -2.01203,0 -2.1036,0 -1.16868,0 -2.33735,0 -3.50601,0 -2.32696,0 -1.17906,0 -3.50602,0 -0.58433,0 -1.18001,-0.11455 -1.753,0 -0.61713,0.1234 -1.13587,0.57782 -1.75301,0.70122 -0.57298,0.11455 -1.18001,-0.11464 -1.753,0 -0.61712,0.1234 -1.13588,0.57773 -1.753,0.70122 -0.57298,0.11455 -1.18002,-0.11464 -1.75301,0 -4.32385,0.8647 -0.1189,0.2347 -2.4542,1.40235 -0.20906,0.10453 -0.49215,-0.10453 -0.7012,0 -0.29565,0.14786 -0.46746,0.46751 -0.7012,0.70122 -0.46748,0.46751 -0.88618,0.98945 -1.40241,1.40244 -0.65807,0.52646 -1.44553,0.8759 -2.1036,1.40235 -0.25812,0.20654 -0.46747,0.46751 -0.70121,0.70122 -0.70119,0.70122 -1.4024,1.40244 -2.1036,2.10357 -0.23373,0.2338 -0.44309,0.49478 -0.7012,0.70122 -0.32903,0.26323 -0.72277,0.438 -1.0518,0.70122 -0.25812,0.20645 -0.44308,0.49469 -0.7012,0.70122 -0.32904,0.26323 -0.72277,0.438 -1.05181,0.70123 -0.25811,0.20644 -0.44308,0.49468 -0.7012,0.70113 -0.32903,0.26322 -0.7012,0.46751 -1.0518,0.70122 -0.3506,0.23371 -0.65206,0.56798 -1.0518,0.70122 -0.33262,0.11085 -0.72628,-0.13026 -1.05181,0 -0.3069,0.12276 -0.39429,0.57845 -0.7012,0.70122 -0.32552,0.13017 -0.70119,0 -1.0518,0 -0.23373,0 -0.48419,0.0867 -0.7012,0 -0.39123,-0.15653 -0.65206,-0.56798 -1.0518,-0.70122 -0.33261,-0.11086 -0.71919,0.11085 -1.0518,0 -0.39975,-0.13324 -0.67492,-0.51274 -1.05181,-0.70122 -1.12581,-0.56293 -2.41315,-0.77795 -3.50601,-1.40235 -0.28699,-0.16403 -0.39429,-0.57846 -0.7012,-0.70123 -0.32553,-0.13026 -0.71919,0.11086 -1.0518,0 -0.39975,-0.13323 -0.66057,-0.54469 -1.0518,-0.70122 -0.19176,-0.0767 -1.80648,0 -2.10361,0 -0.19817,0 -1.63778,-0.0767 -1.75299,0 -0.55008,0.36668 -0.81111,1.10672 -1.40242,1.40245 -0.20906,0.10444 -0.49213,-0.10454 -0.70119,0 -0.29565,0.14777 -0.40555,0.55335 -0.7012,0.70113 -0.20906,0.10453 -0.50673,-0.12963 -0.7012,0 -0.21744,0.14497 -0.16582,0.51643 -0.35061,0.70122 -0.18478,0.18478 -0.49214,0.19381 -0.7012,0.35061 -2.52186,1.89143 0.7399,-0.38934 -1.0518,1.40244 -0.18479,0.18478 -0.51642,0.16582 -0.7012,0.35052 -0.86126,0.12502 -0.14561,0.74437 -0.35061,1.05183 -0.18335,0.27505 -0.55337,0.40558 -0.70119,0.70122 -0.20907,0.41813 0.25929,1.01346 0,1.40244 -0.14496,0.21737 -0.49215,0.19381 -0.70121,0.35052 -1.86047,1.3954 0.002,0 -0.7012,1.40244 -0.14783,0.29563 -0.55338,0.40558 -0.70121,0.70122 -0.20905,0.41813 0.14783,0.95894 0,1.40235 -0.51586,1.54769 -0.35059,-1.27371 -0.35059,1.05183 0,0.23371 0,0.46751 0,0.70122 0,0.11681 0.10453,0.29835 0,0.35061 -0.20905,0.10453 -0.53593,-0.16528 -0.70121,0 -0.16527,0.16529 0.0739,0.47943 0,0.70122 -0.28949,0.8684 -1.92814,0.0352 -2.1036,0 z"
       id="path4140"
       inkscape:connector-curvature="0" />
    <path
       style="fill:#00ab00;fill-opacity:1;stroke:#000000;stroke-width:0.49084112px;stroke-linecap:butt;stroke-linejoin:miter;stroke-opacity:1"
       d="m 101.8543,629.4131 c 0.28107,-1.47782 1.22001,-0.0839 1.753,-0.35061 0.14783,-0.074 0.20277,-0.27668 0.3506,-0.35061 0.1066,-0.0533 1.16031,0 1.4024,0 0.23374,0 0.49215,-0.10453 0.70121,0 0.29565,0.14786 0.50287,0.43673 0.7012,0.70122 0.74486,0.99315 0.0752,2.05374 0.3506,3.1554 0.12676,0.50705 0.58782,0.89214 0.7012,1.40244 0.12676,0.57033 0,1.16864 0,1.75296 0.23373,0.58432 0.52831,1.14788 0.70121,1.75296 0.0642,0.22478 -0.10454,0.49216 0,0.70122 0.14782,0.29564 0.46746,0.46751 0.7012,0.70123 0.92393,0.92391 0.47847,0.47852 1.4024,1.40235 2.32559,2.32563 -0.33055,-0.66105 0.7012,1.40244 0.0523,0.10453 0.25337,-0.065 0.35061,0 0.27502,0.18334 0.40554,0.55344 0.7012,0.70122 0.20905,0.10453 0.50671,-0.12963 0.70119,0 0.21744,0.14488 0.13317,0.55624 0.3506,0.70122 0.11407,0.0758 1.48823,0 1.75301,0 2.32559,0 -0.49583,-0.16529 1.0518,0.35061 0.0396,0.0135 1.65807,0.0316 1.75301,0 2.33733,-0.77913 -0.81808,0.19471 1.0518,-1.05183 0.19448,-0.12963 0.50672,0.12963 0.70121,0 0.21742,-0.14498 0.13315,-0.55625 0.35059,-0.70122 0.21036,-0.14028 0.77132,0.0704 1.0518,0 0.35854,-0.0894 0.69327,-0.26098 1.0518,-0.35061 0.14534,-0.0361 1.99153,-0.037 2.10361,0 0.24791,0.0821 0.45329,0.26801 0.7012,0.35061 0.11087,0.037 0.25337,-0.065 0.35061,0 1.89139,1.26098 -0.24148,0.10913 1.0518,1.40244 0.18478,0.18478 0.49214,0.19372 0.7012,0.35061 2.52186,1.89134 -0.73991,-0.38934 1.0518,1.40235 0.18479,0.18478 0.49214,0.19381 0.70121,0.35061 0.0822,0.0614 1.36002,1.38123 1.40239,1.40244 0.20906,0.10444 0.49215,-0.10453 0.7012,0 0.29566,0.14777 0.43677,0.5029 0.70121,0.70113 0.20905,0.15689 0.49214,0.1939 0.7012,0.35061 0.26444,0.19841 0.46746,0.46751 0.7012,0.70122 0.23373,0.23371 0.46747,0.46751 0.7012,0.70122 0.23374,0.23371 0.46747,0.46742 0.7012,0.70122 0.23373,0.23371 0.50288,0.43673 0.70121,0.70113 0.15679,0.20907 0.1938,0.49225 0.35059,0.70122 0.19833,0.26449 0.46747,0.46751 0.70121,0.70122 0.7012,0.70122 1.4024,1.40244 2.1036,2.10366 0.23374,0.23362 0.49471,0.44305 0.7012,0.70113 0.26323,0.32904 0.43798,0.7228 0.7012,1.05183 0.2065,0.25809 0.46747,0.46751 0.70121,0.70122 0.7012,0.70113 1.4024,1.40235 2.1036,2.10358 0.23373,0.2338 0.51784,0.42616 0.70121,0.70122 0.0648,0.0972 -0.0648,0.25329 0,0.35061 0.18334,0.27505 0.55336,0.40558 0.70119,0.70122 0.10453,0.20897 0,0.46742 0,0.70122 0,0.23371 0,0.46742 0,0.70113 0,0.23371 0,0.46751 0,0.70122 0,0.23371 0.10453,0.49215 0,0.70122 -0.14783,0.29563 -0.46747,0.46742 -0.70119,0.70122 -0.50341,0.50335 -1.20252,1.31262 -1.75301,1.75296 -0.32904,0.26323 -0.75385,0.40324 -1.0518,0.70122 -0.18479,0.18478 -0.16582,0.51644 -0.3506,0.70113 -0.29796,0.29798 -0.70121,0.46751 -1.05181,0.70122 -0.3506,0.2338 -0.7012,0.46751 -1.0518,0.70122 -0.3506,0.2338 -0.64302,0.59903 -1.0518,0.70122 -0.56688,0.14173 -1.16867,0 -1.753,0 -0.58434,0 -1.16867,0 -1.75301,0 -2.1036,0 -4.20721,0 -6.31081,0 -0.7012,0 -1.4024,0 -2.10361,0 -0.23373,0 -0.47201,-0.046 -0.7012,0 -1.06902,0.21376 -2.14707,0.87598 -2.8048,1.75305 -0.1568,0.20898 -0.19381,0.49207 -0.35061,0.70113 -1.89139,2.52189 0.3893,-0.73985 -1.40239,1.05183 -0.18479,0.18479 -0.13318,0.55625 -0.35062,0.70122 -0.19446,0.12963 -0.47946,-0.074 -0.70119,0 -0.1568,0.0524 -0.19381,0.29835 -0.35061,0.35061 -0.25913,0.0867 -1.59594,-0.1048 -1.753,0 -0.27503,0.18334 -0.42616,0.51779 -0.7012,0.70113 -0.0972,0.065 -0.23374,0 -0.3506,0 -0.46746,0 -0.93493,0 -1.4024,0 -0.23374,0 -0.46747,0 -0.70121,0 -0.11686,0 -0.24606,0.0524 -0.3506,0 -0.37689,-0.18839 -0.66056,-0.54469 -1.0518,-0.70113 -0.43403,-0.17368 -0.9489,0.11329 -1.4024,0 -0.25352,-0.0632 -0.44768,-0.28724 -0.7012,-0.35061 -0.45352,-0.11338 -0.96837,0.17359 -1.4024,0 -2.15377,-0.86154 -0.3148,-0.31486 -1.40241,-1.40244 -0.5959,-0.59587 -1.44553,-0.87598 -2.10361,-1.40235 -0.25811,-0.20654 -0.44308,-0.49477 -0.70119,-0.70122 -0.32903,-0.26323 -0.72277,-0.43799 -1.0518,-0.70122 -0.25812,-0.20654 -0.46748,-0.46742 -0.7012,-0.70122 -0.46747,-0.46742 -0.93494,-0.93493 -1.40241,-1.40244 -0.23374,-0.23371 -0.46747,-0.46742 -0.7012,-0.70113 -0.23374,-0.23371 -0.553378,-0.40559 -0.701205,-0.70122 -0.104533,-0.20907 0.104524,-0.49216 0,-0.70122 -0.147827,-0.29564 -0.467465,-0.46751 -0.701202,-0.70122 -0.467465,-0.46742 -0.989418,-0.88619 -1.402405,-1.40235 -0.526457,-0.65807 -0.875948,-1.4455 -1.402405,-2.10357 -0.206493,-0.25818 -0.553375,-0.40559 -0.701202,-0.70122 -0.104524,-0.20907 0.104533,-0.49216 0,-0.70122 -0.147827,-0.29564 -0.553376,-0.40559 -0.701202,-0.70122 -0.104524,-0.20907 0.104533,-0.49216 0,-0.70123 -0.147827,-0.29563 -0.553367,-0.40549 -0.701194,-0.70122 -0.104533,-0.20897 0,-0.46742 0,-0.70113 0,-0.58432 0,-1.16873 0,-1.75305 0,-0.22405 -0.05055,-2.00246 0,-2.10357 0.630467,-1.26098 0.607547,-0.257 1.402396,-1.05183 1.791705,-1.79169 -1.470053,0.489 1.051804,-1.40235 1.023837,-0.76793 0.482296,0.17494 1.402404,-1.05183 0.156791,-0.20907 0.193811,-0.49215 0.350601,-0.70122 0.198334,-0.26449 0.553376,-0.40558 0.701203,-0.70122 0.104533,-0.20907 0,-0.46742 0,-0.70122 0,-0.23371 0.104533,-0.49206 0,-0.70113 -0.147827,-0.29573 -0.467465,-0.46751 -0.701203,-0.70122 -0.350601,-0.35061 -0.701202,-0.70122 -1.051803,-1.05183 -0.233728,-0.23371 -0.517845,-0.42617 -0.701202,-0.70113 -0.06481,-0.0973 0.05227,-0.24617 0,-0.35061 -0.07393,-0.14787 -0.276688,-0.20284 -0.350602,-0.35061 -0.05335,-0.1067 0,-0.89395 0,-1.05183 0,-0.70122 0,-1.40244 0,-2.10366 0,-0.58432 0,-1.16865 0,-1.75297 0,-0.23371 0,-0.46751 0,-0.70122 0,-0.11681 -0.06481,-0.25338 0,-0.35061 0.183358,-0.27496 0.553385,-0.40549 0.701212,-0.70113 0.08106,-0.16212 -0.08702,-1.66603 0,-1.75305 0.165267,-0.16528 0.535917,0.16529 0.701193,0 0.165276,-0.16528 -0.07393,-0.47942 0,-0.70113 0.0854,-0.25618 1.317045,-1.14634 1.402405,-1.40244 0.07393,-0.2217 0,-0.46751 0,-0.70122 0.233737,-0.11681 0.556246,-0.13315 0.701202,-0.35061 0.129647,-0.19444 -0.104533,-0.49215 0,-0.70122 0.05227,-0.10453 0.267965,0.0831 0.350605,0 0.0826,-0.0821 0,-0.23371 0,-0.35061 0.58433,-0.35061 1.16866,-0.70122 1.753,-1.05174 z"
       id="path4144"
       inkscape:connector-curvature="0" />
    <path
       style="fill:#00ab00;fill-opacity:1;stroke:#000000;stroke-width:0.49084112px;stroke-linecap:butt;stroke-linejoin:miter;stroke-opacity:1"
       d="m 86.077267,564.20132 c 3.175225,2.38133 0.441738,0.009 1.753006,1.75296 0.198324,0.26449 0.553367,0.40558 0.701193,0.70122 0.104533,0.20906 -0.08684,0.48421 0,0.70122 1.662799,4.15695 -0.207251,-1.46635 1.402405,1.75296 0.104533,0.20906 -0.104533,0.49215 0,0.70122 0.147827,0.29563 0.553376,0.40549 0.701202,0.70122 1.031755,2.06349 -1.624388,-0.9232 0.701203,1.40235 1.168667,1.16864 2.337335,2.33737 3.506003,3.50601 0.233737,0.23371 0.467474,0.46751 0.701202,0.70122 0.233737,0.23371 0.436764,0.5029 0.701202,0.70122 0.209058,0.1568 0.492146,0.19381 0.701212,0.35061 0.42984,0.32236 0.913969,0.85107 1.051794,1.40235 0.05669,0.22676 0,0.46751 0,0.70122 0,1.05183 0,2.10357 0,3.15541 0,0.81803 0,1.63615 0,2.45427 0,0.23371 0.03313,0.46976 0,0.70113 -0.08431,0.58991 -0.291302,1.16006 -0.350601,1.75305 -0.05813,0.58143 0,1.16864 0,1.75296 0,0.58432 0,1.16864 0,1.75305 0,0.81803 0,1.63615 0,2.45418 0,0.23371 0,0.46742 0,0.70122 0,0.23371 -0.05669,0.47446 0,0.70122 0.06337,0.25348 0.267968,0.45325 0.350601,0.70113 0.175305,0.52592 -0.350601,0.35061 0,1.05183 0.147827,0.29564 0.553376,0.4055 0.701203,0.70122 0.104524,0.20907 -0.104533,0.49216 0,0.70113 0.147826,0.29573 0.553375,0.40559 0.701202,0.70122 0.104524,0.20907 0,0.46751 0,0.70122 0,0.2338 0,0.46751 0,0.70122 0,0.23371 0,0.46742 0,0.70122 0,0.11681 0.03701,0.23967 0,0.35062 -0.3854,1.15618 -1.230413,1.40496 -2.103607,2.10357 -2.089615,1.67171 0.68721,-0.26928 -1.402405,1.40244 -0.329026,0.26314 -0.722768,0.43799 -1.051803,0.70113 -0.258111,0.20654 -0.443084,0.49477 -0.701194,0.70122 -0.329035,0.26323 -0.722768,0.43799 -1.051803,0.70122 -0.516239,0.41299 -0.93494,0.93493 -1.402405,1.40235 -0.233737,0.2338 -0.405549,0.55345 -0.701202,0.70122 -0.209058,0.10462 -0.492146,-0.10453 -0.701203,0 -0.295653,0.14786 -0.405549,0.55345 -0.701202,0.70122 -0.209057,0.10453 -0.535926,-0.16529 -0.701203,0 -0.165267,0.16528 0.165277,0.53593 0,0.70122 -0.165267,0.16528 -0.535926,-0.16529 -0.701202,0 -0.165276,0.16528 0.165276,0.53594 0,0.70122 -0.330543,0.33048 -1.071852,-0.33057 -1.402396,0 -0.165276,0.1652 0.104525,0.49215 0,0.70122 -0.147826,0.29564 -0.517854,0.42608 -0.701202,0.70122 -0.06481,0.0972 0.0826,0.26792 0,0.35052 -0.08269,0.0831 -0.267968,-0.0821 -0.350601,0 -0.08269,0.0831 0.05227,0.24608 0,0.35061 -0.04658,0.0931 -0.958717,1.00525 -1.051804,1.05183 -0.104533,0.0524 -0.246077,-0.0524 -0.350601,0 -0.147827,0.074 -0.19381,0.29835 -0.350601,0.35061 -0.33261,0.11085 -0.701202,0 -1.051804,0 -0.116864,0 -0.246068,0.0524 -0.350601,0 -0.212569,-0.10634 -1.252249,-1.28978 -1.402405,-1.40244 -0.209057,-0.1568 -0.544411,-0.14154 -0.701202,-0.35061 -1.710913,-2.28122 1.253468,0.20167 -1.051803,-2.10357 -0.184775,-0.18478 -0.556247,-0.13324 -0.701194,-0.35061 -0.129655,-0.19453 0.104524,-0.49215 0,-0.70122 -0.147827,-0.29564 -0.553375,-0.40559 -0.701202,-0.70122 -0.05055,-0.1011 0,-1.87952 0,-2.10357 0,-0.26982 -0.05795,-1.63706 0,-1.75296 0.562637,-1.12531 0.839767,-0.27722 1.402396,-1.40244 0.104533,-0.20907 -0.129647,-0.50669 0,-0.70122 0.144956,-0.21738 0.516418,-0.16583 0.701202,-0.35061 1.791705,-1.79169 -1.470053,0.48899 1.051803,-1.40235 0.209067,-0.1568 0.492146,-0.19382 0.701203,-0.35062 0.264438,-0.19832 0.467465,-0.46751 0.701202,-0.70122 0.701203,-0.70122 1.402405,-1.40244 2.103607,-2.10366 0.233737,-0.23371 0.467466,-0.46742 0.701203,-0.70113 0.116864,-0.1169 0.298334,-0.19381 0.350601,-0.35061 0.07393,-0.22179 0,-0.46751 0,-0.70122 0,-0.46751 0.07682,-0.94125 0,-1.40235 -0.1015,-0.60905 -1.253486,-2.07965 -1.753006,-2.45427 -0.209057,-0.1568 -0.483768,-0.20564 -0.701202,-0.35061 -0.137518,-0.0916 -0.233738,-0.23371 -0.350602,-0.35061 -0.116864,-0.11681 -0.276687,-0.20275 -0.350601,-0.35061 -0.05227,-0.10444 0.05227,-0.24599 0,-0.35052 -0.281318,-0.56266 -0.419884,-0.13857 -0.701202,-0.70122 -0.05335,-0.1067 0,-0.89395 0,-1.05183 0,-1.05183 0,-2.10357 0,-3.1554 0,-0.23371 -0.129647,-0.50669 0,-0.70113 1.627683,-0.81388 0.05949,0.23145 0.701202,-1.05183 0.05227,-0.10463 0.253362,0.065 0.350601,0 0.233738,-0.2338 0.467466,-0.46751 0.701203,-0.70122 0,-0.1169 -0.06481,-0.25339 0,-0.35061 0.183357,-0.27506 0.467465,-0.46742 0.701202,-0.70122 0.116864,-0.11681 0.298335,-0.19382 0.350601,-0.35061 0.07393,-0.22171 -0.104533,-0.49216 0,-0.70123 0.147818,-0.29563 0.467466,-0.46742 0.701203,-0.70122 0.116864,-0.11681 0.298334,-0.19372 0.350601,-0.35052 0.07393,-0.22179 0,-0.46751 0,-0.70122 0.233728,-0.23371 0.517845,-0.42616 0.701193,-0.70122 0.07682,-0.11518 0,-1.55481 0,-1.75296 0,-0.81812 0,-1.63615 0,-2.45418 0,-0.1169 0.104533,-0.29834 0,-0.35061 -0.209048,-0.10462 -0.506715,0.12963 -0.701193,0 -0.217434,-0.14497 -0.165818,-0.51644 -0.350601,-0.70122 -0.184793,-0.18478 -0.556246,-0.13324 -0.701203,-0.35061 -1.110894,-1.6663 1.346537,0.29473 -0.350601,-1.40244 -1.791705,-1.79169 0.488995,1.47005 -1.402405,-1.05183 -0.15679,-0.20898 -0.165817,-0.51635 -0.350601,-0.70113 -0.184783,-0.18478 -0.467465,-0.23371 -0.701202,-0.35061 -0.233728,0 -0.535926,0.16528 -0.701203,0 -0.165276,-0.16529 0.104534,-0.49216 0,-0.70122 -0.05227,-0.10453 -0.267958,0.083 -0.350601,0 -0.0826,-0.0822 0.06481,-0.25339 0,-0.35061 -0.183357,-0.27506 -0.553375,-0.4055 -0.701202,-0.70113 -0.05127,-0.10264 0,-1.81669 0,-2.10366 0,-0.1169 -0.0826,-0.26793 0,-0.35061 0.0826,-0.0821 0.267968,0.0831 0.350601,0 0.0826,-0.0821 -0.0826,-0.26793 0,-0.35061 0.0826,-0.0821 0.233737,0 0.350601,0 0.116873,0 0.233737,0 0.350601,0 0.701203,0 1.402405,0 2.103608,0 0.116864,0 0.233728,0 0.350601,0 0.116864,0 0.246068,0.0523 0.350601,0 0.433235,-0.21665 0.350601,-0.33852 0.350601,-0.70122 0,-0.11681 -0.114598,-0.32769 0,-0.35052 0.572982,-0.11465 1.168668,0 1.753006,0 z"
       id="path4146"
       inkscape:connector-curvature="0" />
    <path
       style="fill:#00ab00;fill-opacity:1;stroke:#000000;stroke-width:0.49084112px;stroke-linecap:butt;stroke-linejoin:miter;stroke-opacity:1"
       d="m 208.43694,604.52041 c -0.46747,0.23371 -1.16866,1.16864 -1.4024,0.70113 -0.23374,-0.46742 1.63613,-1.16864 1.4024,-0.70113 -0.33466,0.66926 -1.22386,0.87327 -1.753,1.40235 -0.0826,0.083 0.0523,0.24607 0,0.35061 -0.72956,1.45913 0.0242,-0.3748 -0.7012,0.35061 -0.16527,0.16528 0.10453,0.49215 0,0.70122 -0.0739,0.14777 -0.27669,0.20275 -0.35061,0.35052 -0.0523,0.10462 0.0523,0.24617 0,0.35061 -0.14782,0.29572 -0.55337,0.40558 -0.7012,0.70122 -0.0533,0.10661 0,1.16033 0,1.40244 0,0.23371 0,0.46742 0,0.70122 0,0.23371 -0.0739,0.47943 0,0.70122 0.0523,0.15671 0.23374,0.23371 0.3506,0.35061 0.23374,0.23371 0.42617,0.51779 0.70121,0.70113 0.0972,0.065 0.25336,-0.065 0.3506,0 0.27503,0.18334 0.43676,0.5029 0.7012,0.70122 0.20906,0.1568 0.49214,0.19381 0.7012,0.35061 0.26444,0.19833 0.40555,0.55336 0.7012,0.70122 0.20906,0.10444 0.49215,-0.10453 0.70121,0 0.29564,0.14777 0.40555,0.55336 0.7012,0.70113 0.0806,0.0406 1.6724,0.0406 1.753,0 0.29565,-0.14777 0.40555,-0.55336 0.70121,-0.70113 0.20905,-0.10453 0.50671,0.12963 0.70119,0 0.21743,-0.14497 0.16582,-0.51643 0.3506,-0.70122 0.18479,-0.18478 0.49215,-0.19381 0.7012,-0.35061 0.26444,-0.19832 0.46747,-0.46751 0.70121,-0.70122 0.23373,-0.23371 0.50287,-0.43673 0.7012,-0.70113 0.86125,-0.12502 0.1456,-0.74437 0.3506,-1.05183 0.18336,-0.27505 0.55338,-0.40558 0.7012,-0.70122 0.058,-0.116 0,-1.48323 0,-1.75305 0,-0.23371 -0.12965,-0.50669 0,-0.70122 0.42577,-0.21286 0.78411,-0.29961 1.05181,-0.70113 0.39742,-0.59615 0.29357,-1.02331 1.0518,-1.40244 0.20906,-0.10454 0.49214,0.10453 0.70119,0 0.10454,-0.0524 0,-0.23371 0,-0.35061 0,-0.1169 0.0523,-0.24608 0,-0.35052 -0.0739,-0.14787 -0.23373,-0.2338 -0.3506,-0.35061 -0.11686,-0.1169 -0.23373,-0.2338 -0.35059,-0.35061 -0.82223,-0.82228 0.24791,0.0821 -1.0518,-0.35061 -0.53857,-0.17955 -0.27167,-0.7655 -0.70121,-1.05183 -0.19448,-0.12963 -0.46746,0 -0.7012,0 -0.16531,0 -1.73712,-0.0153 -1.753,0 -0.0826,0.083 0.0827,0.26801 0,0.35061 -0.16528,0.16528 -0.49215,-0.10454 -0.70121,0 -0.29565,0.14786 -0.40555,0.55335 -0.7012,0.70122 -0.10452,0.0523 -0.24607,-0.0524 -0.3506,0 -0.29565,0.14786 -0.40555,0.55335 -0.7012,0.70122 -0.20906,0.10444 -0.49214,-0.10454 -0.7012,0 -0.29565,0.14777 -0.40555,0.55335 -0.7012,0.70113 -0.10453,0.0524 -0.23374,0 -0.3506,0 -0.87325,0 -0.24608,0.0524 -1.75301,-0.70113 z"
       id="path4148"
       inkscape:connector-curvature="0" />
    <path
       style="fill:#00ab00;fill-opacity:1;stroke:#000000;stroke-width:0.49084112px;stroke-linecap:butt;stroke-linejoin:miter;stroke-opacity:1"
       d="m 187.7515,616.09018 c 0,-0.46742 -0.46747,-1.40235 0,-1.40235 0.46747,0 0.0465,0.93719 0,1.40235 -0.0708,0.70736 -0.26243,1.3982 -0.35061,2.10357 -0.029,0.232 -0.12965,0.50678 0,0.70122 0.14496,0.21747 0.55625,0.13324 0.7012,0.35061 0.12966,0.19454 -0.10452,0.49216 0,0.70122 0.14783,0.29564 0.46747,0.46752 0.70121,0.70123 0.23373,0.2338 0.46746,0.46751 0.7012,0.70122 0.11686,0.1169 0.19381,0.29834 0.3506,0.35061 0.22174,0.074 0.49214,-0.10454 0.7012,0 0.29566,0.14777 0.42617,0.51788 0.7012,0.70122 0.0972,0.065 0.23373,0 0.35061,0 0.23373,0 0.46746,0 0.7012,0 0.34442,0 1.87172,0.0776 2.1036,0 0.24791,-0.083 0.44768,-0.28724 0.70121,-0.35061 0.22675,-0.0569 0.50671,0.12962 0.7012,0 0.21742,-0.14498 0.1938,-0.49216 0.35059,-0.70122 -0.86514,-1.06149 0.95365,-0.60301 1.05181,-0.70122 0.0826,-0.0821 -0.10453,-0.29835 0,-0.35061 0.20905,-0.10454 0.53592,0.16528 0.7012,0 0.16527,-0.16529 0,-0.46752 0,-0.70123 0,-0.43176 -0.0523,-0.64895 0.3506,-1.05183 0.0827,-0.0821 0.24607,0.0524 0.3506,0 0.14783,-0.074 0.20277,-0.27667 0.3506,-0.35061 0.10453,-0.0524 0.24608,0.0524 0.3506,0 0.14783,-0.074 0.23373,-0.23371 0.3506,-0.35061 0.11687,-0.11681 0.27669,-0.20274 0.3506,-0.35052 0.009,-0.0181 0.009,-1.0335 0,-1.05183 -0.0739,-0.14786 -0.27668,-0.20274 -0.3506,-0.35061 -0.43176,-0.86352 1.0177,0.31649 -0.3506,-1.05183 -0.18478,-0.18469 -0.49214,-0.19372 -0.7012,-0.35052 -1.22681,-0.92012 -0.28393,-0.37859 -1.0518,-1.40244 -0.92011,-1.22677 -0.37858,-0.2839 -1.40241,-1.05174 -0.26444,-0.19841 -0.42616,-0.51797 -0.7012,-0.70122 -0.0972,-0.065 -0.23373,0 -0.35059,0 -0.23374,0 -0.46748,0 -0.70121,0 -0.70121,0 -1.4024,0 -2.1036,0 -0.2721,0 -2.01755,-0.0578 -2.10361,0 -0.27504,0.18325 -0.40555,0.55336 -0.7012,0.70122 -0.62962,0.31477 -0.86433,-0.45659 -1.40241,0.35052 -1.11088,1.66639 1.34655,-0.29473 -0.35059,1.40244 -0.18479,0.18479 -0.70121,0.0894 -0.70121,0.35061 0,0.62937 1.14623,1.30802 0.70121,1.75296 -0.44502,0.44504 -1.12366,-0.70122 -1.753,-0.70122 -0.23374,0 0,0.46751 0,0.70122 0,0.1169 -0.11688,0.35061 0,0.35061 0.5959,0 1.16866,-0.23371 1.753,-0.35061 z"
       id="path4150"
       inkscape:connector-curvature="0" />
    <path
       style="fill:#00ab00;fill-opacity:1;stroke:#000000;stroke-width:0.49084112px;stroke-linecap:butt;stroke-linejoin:miter;stroke-opacity:1"
       d="m 353.76613,505.87445 c -2.81774,-1.68616 -4.69672,-3.70505 -6.94155,-5.9499 -2.06924,-2.06927 -1.98329,-1.17008 -1.98329,-3.96657 0,-0.33057 -0.14782,-0.69598 0,-0.99162 0.20905,-0.41813 0.6611,-0.66114 0.99165,-0.99171 0.33055,-0.33048 0.60269,-0.73227 0.99164,-0.99162 0.615,-0.41001 1.46066,-0.46904 1.98331,-0.99162 0.52264,-0.52267 0.469,-1.46067 0.99164,-1.98333 0.52265,-0.52267 1.46066,-0.46905 1.98331,-0.99162 5.0677,-5.06769 -4.15797,1.38303 2.97494,-3.96666 0.59131,-0.44341 1.46065,-0.46896 1.9833,-0.99162 0.52264,-0.52267 0.469,-1.46067 0.99164,-1.98333 0.52265,-0.52258 1.26624,-0.81235 1.9833,-0.99162 0.64137,-0.16032 1.9833,0.66114 1.9833,0 0,-0.93493 -1.3222,-1.32219 -1.9833,-1.98324 -0.6611,-0.66115 -1.12395,-1.61503 -1.9833,-1.98334 -10.01786,-4.29335 0.10679,2.75262 -9.91648,-2.97495 -0.81176,-0.4639 -1.25323,-1.39928 -1.9833,-1.98333 -6.25477,-5.00378 -0.16955,0.82209 -4.95824,-3.96657 -0.66111,-0.66105 -1.14707,-1.5652 -1.98331,-1.98333 -0.59129,-0.29564 -1.39198,0.29573 -1.98329,0 -0.83623,-0.41804 -1.14707,-1.56511 -1.9833,-1.98324 -0.5913,-0.29564 -1.39199,0.29563 -1.9833,0 -0.83623,-0.41813 -1.3222,-1.32219 -1.98329,-1.98333 -1.9833,-1.98324 -3.9666,-3.96657 -5.9499,-5.9499 -3.30549,-3.30543 -6.61099,-6.61096 -9.91648,-9.91648 -1.3222,-1.32219 -2.6444,-2.64438 -3.9666,-3.96657 -0.6611,-0.66114 -1.42233,-1.23535 -1.98329,-1.98333 -0.44348,-0.59127 -0.54818,-1.39197 -0.99165,-1.98324 -0.56097,-0.74798 -1.3222,-1.32219 -1.9833,-1.98333 -0.6611,-0.66114 -1.25324,-1.39928 -1.9833,-1.98333 -0.93065,-0.74446 -1.98329,-1.32219 -2.97495,-1.98324 -0.99165,-0.66114 -1.84429,-1.60645 -2.97494,-1.98333 -0.94076,-0.3136 -2.03419,0.3136 -2.97495,0 -1.13065,-0.37688 -1.86837,-1.54065 -2.97495,-1.98333 -0.61381,-0.24545 -1.39198,0.29572 -1.98329,0 -0.83623,-0.41805 -1.14707,-1.56511 -1.9833,-1.98324 -0.28605,-0.14308 -5.31611,0 -5.94989,0 -1.3222,0 -3.3055,0.66105 -1.9833,-1.98334 0.14783,-0.29563 0.66752,0.065 0.99165,0 1.33642,-0.26729 2.61203,-0.84113 3.96659,-0.99162 1.64264,-0.18252 3.33759,0.32417 4.95825,0 0.1128,-0.0226 9.72075,-3.91069 9.91648,-3.96657 0.63567,-0.18162 1.392,0.29564 1.98331,0 0.83623,-0.41813 1.14706,-1.5652 1.98329,-1.98333 1.18261,-0.59127 2.78399,0.59127 3.9666,0 0.83623,-0.41813 1.14707,-1.5652 1.98329,-1.98333 0.5913,-0.29563 1.3222,0 1.9833,0 1.9833,0 3.9666,0 5.94989,0 0.66111,0 1.43323,-0.36668 1.98331,0 2.79221,0.0614 0.25251,2.23582 0.99163,2.97495 0.46748,0.46751 1.392,-0.29563 1.98331,0 0.83623,0.41813 1.14706,1.5652 1.98329,1.98333 0.29566,0.14787 0.69601,-0.14786 0.99165,0 4.69869,2.34938 -6.69987,-0.58053 3.9666,2.97495 0.94076,0.3136 1.98329,0 2.97494,0 0.99166,0.66105 1.86838,1.54065 2.97495,1.98324 0.61382,0.24554 1.3222,0 1.9833,0 1.65275,0 3.36909,-0.45396 4.95824,0 0.89897,0.25691 1.11524,1.63616 1.9833,1.98334 0.44233,0.17693 5.9419,0 6.94155,0 0.66109,0 1.51583,-0.46742 1.98329,0 0.46747,0.46751 -0.29565,1.39197 0,1.98333 0.14783,0.29563 0.75791,0.23371 0.99165,0 0.52265,-0.52267 0.54817,-1.39197 0.99165,-1.98333 0.56096,-0.74789 1.3222,-1.32219 1.98329,-1.98334 0.99166,-0.99162 1.9833,-1.98324 2.97495,-2.97486 0.66111,-0.66114 1.25323,-1.39928 1.9833,-1.98333 0.93065,-0.74455 2.0443,-1.23878 2.97495,-1.98333 2.27639,-1.82111 1.90603,-2.74566 4.95824,-3.96657 0.54237,-0.21692 5.1095,0 5.9499,0 0.66109,0 1.3222,0 1.98329,0 0.6611,0 1.39199,-0.29563 1.9833,0 0.83623,0.41813 1.14706,1.5652 1.9833,1.98333 0.5913,0.29564 1.39199,-0.29572 1.98329,0 0.83623,0.41804 1.14707,1.56511 1.9833,1.98324 5.61934,0 0.33055,-0.66105 1.9833,0.99171 0.23373,0.23371 0.84381,-0.29572 0.99164,0 0.044,0.0885 0.14142,6.51725 0,6.94153 -0.29565,0.8869 -1.68764,1.09633 -1.98329,1.98324 -0.16059,0.48177 0,5.92914 0,6.94161 0,1.05129 -0.14783,2.21523 0.99165,2.97495 0.55007,0.36668 1.39199,-0.29573 1.9833,0 2.4478,1.22389 1.19302,2.57866 3.96659,2.97495 1.63614,0.23371 3.39031,-0.52266 4.95824,0 0.70121,0.23371 0.33056,1.65267 0.99165,1.98324 0.80673,0.40342 6.12641,-0.40757 6.94155,0 0.83623,0.41813 1.14707,1.5652 1.98329,1.98333 0.59131,0.29564 1.39199,-0.29563 1.9833,0 0.83624,0.41813 1.3222,1.32219 1.9833,1.98324 0.6611,0.66114 1.3222,1.32228 1.9833,1.98333 1.98329,1.98333 3.9666,3.96658 5.94989,5.94991 1.3222,1.32219 2.6444,2.64438 3.9666,3.96657 0.6611,0.66114 1.46468,1.20538 1.98329,1.98333 0.18336,0.27505 0,0.66105 0,0.99162 0,0.6513 0.19701,5.65445 0,5.9499 -0.40999,0.61501 -1.46064,0.46905 -1.98329,0.99162 -0.84275,0.84277 -1.37012,1.953 -1.9833,2.97495 -0.38028,0.63388 -0.469,1.46067 -0.99165,1.98333 -0.52265,0.52267 -1.392,0.54822 -1.9833,0.99162 -2.45077,1.83809 -1.98329,1.48161 -1.98329,3.96667 0,0.33047 -0.18336,0.71656 0,0.99162 0.5186,0.77786 1.3222,1.32219 1.98329,1.98324 0.6611,0.66114 1.3222,1.32228 1.9833,1.98333 0.6611,0.66114 1.42234,1.23535 1.9833,1.98333 0.44347,0.59127 0.469,1.46066 0.99165,1.98324 0.52265,0.52266 1.46065,0.46904 1.98329,0.99171 0.52265,0.52257 0.37666,1.57332 0.99165,1.98324 4.7131,3.14213 -0.83364,-3.80851 3.9666,0.99171 2.43599,0.35359 0.41182,2.1052 0.99165,2.97495 0.5186,0.77786 1.42233,1.23535 1.98329,1.98324 2.436,0.35359 0.41182,2.1052 0.99165,2.97495 0.51861,0.77795 1.63608,1.11529 1.9833,1.98333 0.36829,0.92067 -0.44348,2.08796 0,2.97495 0.33055,0.66105 1.5733,0.37661 1.9833,0.99162 0.36671,0.55011 0,1.3222 0,1.98334 0,1.65276 0,3.30543 0,4.95819 0,0.66114 0,1.32219 0,1.98333 0,0.33057 0.18336,0.71665 0,0.99162 -0.33786,0.50678 -5.44312,5.61202 -5.94989,5.9499 -0.27504,0.18334 -0.71663,-0.18334 -0.99165,0 -0.77792,0.5186 -1.14707,1.5652 -1.98331,1.98333 -0.59129,0.29564 -1.32219,0 -1.98329,0 -0.6611,0 -1.3222,0 -1.9833,0 -2.64439,0 -5.28879,0 -7.93318,0 -0.99165,0 -2.01292,-0.24057 -2.97495,0 -5.2888,1.32219 0.99164,0.33057 -2.97495,2.97495 -0.55007,0.36668 -1.35613,-0.20906 -1.9833,0 -0.44348,0.14778 -0.6611,0.66105 -0.99165,0.99162 -1.3222,1.32219 -2.6444,2.64438 -3.9666,3.96657 -0.33054,0.33057 -0.54816,0.84385 -0.99164,0.99171 -0.62718,0.20907 -1.43324,-0.36676 -1.9833,0 -6.74451,4.49628 6.27898,-0.66041 -2.97495,3.96658 -1.98329,0.99162 -1.48747,-0.49586 -2.97494,0 -1.3489,0.44963 -3.32086,1.68345 -3.9666,2.97495 -0.29564,0.59127 0.36671,1.43322 0,1.98324 -0.41,0.61501 -1.5733,0.3767 -1.98329,0.99171 -0.36672,0.55002 0.16033,1.34187 0,1.98333 -0.17927,0.71702 -0.81239,1.26622 -0.99165,1.98324 -0.18853,0.75412 0,4.12788 0,4.95828 0,0.33048 0,0.66105 0,0.99162 0,0.33048 0.14782,0.69599 0,0.99162 -0.20906,0.41813 -0.66111,0.66114 -0.99166,0.99162 -0.66109,0.66114 -1.32219,1.32228 -1.98329,1.98333 -1.3222,1.32219 -2.6444,2.64438 -3.9666,3.96657 -0.6611,0.66115 -1.20538,1.46473 -1.9833,1.98334 -0.24538,0.16357 -3.45751,0 -3.96659,0 -0.40662,0 -4.66319,0.11798 -4.95824,0 -2.08492,-0.83392 -3.44065,-2.44895 -4.95825,-3.96658 -0.66109,-0.66114 -1.18159,-1.50228 -1.98329,-1.98333 -7.33174,-4.39896 1.57314,3.04347 -5.9499,-2.97495 -0.73006,-0.58405 -1.42233,-1.23535 -1.9833,-1.98324 -0.44347,-0.59136 -0.37664,-1.57332 -0.99164,-1.98333 -0.55007,-0.36668 -1.68765,0.59136 -1.9833,0 -0.33055,-0.66114 0.58166,-1.36832 0.99165,-1.98333 1.01102,-1.51654 1.36926,-0.77903 2.97495,-1.98324 0.74794,-0.56103 1.20538,-1.46473 1.98329,-1.98333 0.27504,-0.18334 0.71661,0.18334 0.99165,0 0.77791,-0.5186 1.14707,-1.5652 1.98329,-1.98333 0.59131,-0.29564 1.3222,0 1.98331,0 0.33055,0 0.75791,0.2338 0.99165,0 0.23373,-0.23371 0.14782,-0.69599 0,-0.99162 -0.66897,-1.3379 -2.92246,-1.72227 -3.9666,-1.98324 -0.32068,-0.0803 -0.71661,0.18334 -0.99165,0 -0.77791,-0.5187 -1.3222,-1.32228 -1.9833,-1.98333 -0.6611,-0.66114 -1.32219,-1.32219 -1.9833,-1.98333 -0.33054,-0.33057 -0.57353,-0.78256 -0.99164,-0.99162 -0.5913,-0.29564 -1.51584,0.46742 -1.9833,0 -0.23374,-0.23371 0.23374,-0.75792 0,-0.99163 -0.23374,-0.2338 -0.75792,0.23371 -0.99165,0 -0.23374,-0.2338 0,-0.66114 0,-0.99171 0,-2.31381 0,-4.62762 0,-6.94152 0,-0.33057 -0.23374,-0.75791 0,-0.99162 0.23373,-0.23371 0.75791,0.23371 0.99165,0 0.23374,-0.23371 0.33055,-0.99171 0,-0.99171 -0.46748,0 -0.66111,1.32228 -0.99165,0.99171 -0.46746,-0.46751 0.20906,-1.35613 0,-1.98333 -0.14783,-0.4435 -0.84383,-0.54812 -0.99166,-0.99162 -0.20904,-0.6272 0.29566,-1.39197 0,-1.98333 -0.4181,-0.83618 -1.46468,-1.20538 -1.98329,-1.98324 -0.18336,-0.27505 0.18336,-0.71666 0,-0.99171 -0.5186,-0.77786 -1.56518,-1.14707 -1.98329,-1.98324 -0.16396,-0.32795 0,-4.19514 0,-4.95828 0,-0.66114 0,-1.32219 0,-1.98333 0,-0.33048 -0.32413,-0.92681 0,-0.99163 1.62065,-0.32416 3.30549,0 4.95824,0 z"
       id="path4170"
       inkscape:connector-curvature="0" />
    <path
       style="fill:#00ab00;fill-opacity:1;stroke:#000000;stroke-width:0.49084112px;stroke-linecap:butt;stroke-linejoin:miter;stroke-opacity:1"
       d="m 288.31731,462.2419 c 1.3222,0.99171 2.69691,1.91689 3.96659,2.97495 0.71824,0.59858 1.14707,1.5652 1.9833,1.98333 1.43087,0.71539 3.86421,-1.09408 5.94989,0.99162 0.52265,0.52267 0.81239,1.26622 0.99165,1.98333 0.19957,0.79826 0,7.63119 0,7.93314 0,0.85938 0.19148,3.39219 0,3.96658 -0.23373,0.70122 -0.99165,1.24419 -0.99165,1.98333 0,0.46751 0.66111,0.66114 0.99165,0.99162 0.99166,0.99171 1.85303,2.13354 2.97495,2.97495 0.59131,0.4435 1.39199,0.54821 1.9833,0.99171 0.74795,0.56094 1.14706,1.5652 1.9833,1.98324 0.5913,0.29573 1.43322,-0.36668 1.98329,0 0.615,0.41001 0.54817,1.39206 0.99165,1.98333 1.12193,1.49587 2.92938,2.41076 3.9666,3.96657 0.007,0.0108 0.0232,2.92855 0,2.97495 -0.20907,0.41813 -0.73235,0.60274 -0.99165,0.99171 -0.41,0.61493 -0.54817,1.39197 -0.99165,1.98324 -2.14458,2.8595 -1.43275,1.28572 -3.96659,2.97495 -0.40714,0.27145 -2.77198,2.97496 -2.97495,2.97496 -0.46747,0 -0.60269,-0.73237 -0.99164,-0.99162 -7.9332,-5.28886 3.63603,3.636 -2.97495,-2.97496 -0.84275,-0.84276 -2.0443,-1.23878 -2.97495,-1.98333 -4.28918,-4.28919 0.2627,-0.15544 -3.9666,-2.97495 -1.16687,-0.77786 -1.80807,-2.197 -2.97495,-2.97495 -0.27503,-0.18334 -0.75791,0.2338 -0.99164,0 -1.16272,-1.16268 2.5427,-2.19944 0.99164,-2.97495 -0.5913,-0.29564 -1.35612,0.20907 -1.98329,0 -0.44348,-0.14777 -0.61768,-0.71115 -0.99166,-0.99162 -0.95344,-0.71512 -2.04429,-1.23878 -2.97494,-1.98333 -0.73006,-0.58405 -1.14706,-1.56511 -1.98329,-1.98324 -1.89815,-0.9491 -4.03472,1.84702 -5.9499,-1.98333 -0.29565,-0.59127 -0.36671,-1.43323 0,-1.98333 0.40999,-0.61492 1.3683,-0.58162 1.9833,-0.99162 0.77791,-0.51861 1.3222,-1.32219 1.9833,-1.98333 1.32219,-1.32219 2.64439,-2.64439 3.96659,-3.96658 0.99165,-0.99162 2.34777,-1.72055 2.97494,-2.97495 0.29566,-0.59127 -0.3667,-1.43322 0,-1.98324 0.41,-0.61501 1.46066,-0.46904 1.98331,-0.99171 0.0319,-0.0316 0,-2.73438 0,-2.97495 0,-0.33048 0.23373,-0.75791 0,-0.99162 -0.23374,-0.23371 -0.75792,0.23371 -0.99165,0 -0.23374,-0.23371 0.23373,-0.75791 0,-0.99162 -0.23374,-0.23371 -0.6611,0 -0.99166,0 -0.33054,-1.65276 -0.66109,-3.30552 -0.99164,-4.95828 z"
       id="path4174"
       inkscape:connector-curvature="0" />
    <path
       style="fill:#00ab00;fill-opacity:1;stroke:#000000;stroke-width:0.49084112px;stroke-linecap:butt;stroke-linejoin:miter;stroke-opacity:1"
       d="m 330.95821,521.74083 c 0,0.80124 -0.93493,4.3161 0.99164,4.95828 4.51427,0 0.0567,-0.46751 2.97495,0.99162 0.29566,0.14787 0.71662,-0.18334 0.99165,0 0.77792,0.51861 1.14707,1.5652 1.9833,1.98333 0.5913,0.29564 1.39199,-0.29572 1.9833,0 0.29565,0.14778 -0.18336,0.71657 0,0.99162 4.51426,4.51425 0.52417,-0.41073 1.98329,3.96658 0.14783,0.44349 0.84383,0.54821 0.99165,0.99171 0.31359,0.9407 0,1.98324 0,2.97495 0,1.68228 0.37093,3.59565 -0.99165,4.95819 -0.52264,0.52266 -1.46065,0.46904 -1.98329,0.99171 -0.52265,0.52257 -0.6611,1.3221 -0.99166,1.98324 -0.66109,0.33057 -1.39198,0.54821 -1.98329,0.99162 -0.74795,0.56094 -1.42234,1.23535 -1.9833,1.98333 -0.44348,0.59136 -0.37665,1.57332 -0.99164,1.98333 -0.55007,0.36668 -1.392,-0.29563 -1.98331,0 -0.29565,0.14777 0.29566,0.84376 0,0.99162 -0.59129,0.29564 -1.51583,-0.46751 -1.98329,0 -0.46747,0.46751 0.29565,1.39197 0,1.98324 -0.14783,0.29573 -0.75792,0.2338 -0.99165,0 -0.23374,-0.23371 0.14783,-0.69598 0,-0.99162 -0.37876,-0.75746 -2.75112,-2.30343 -2.97495,-2.97495 -0.20906,-0.6272 0.29565,-1.39197 0,-1.98324 -0.64572,-1.2915 -2.61769,-2.52531 -3.96659,-2.97495 -0.31359,-0.10453 -0.75792,0.23371 -0.99166,0 -0.0399,-0.0397 0,-3.60242 0,-3.96666 0,-0.33048 0,-0.66105 0,-0.99162 0,-0.33057 -0.14782,-0.69599 0,-0.99162 0.41813,-0.83627 1.4647,-1.20538 1.98331,-1.98333 0.41,-0.61502 0.58165,-1.36832 0.99165,-1.98324 0.30099,-0.45154 3.64609,-3.80635 3.96659,-3.96667 0.59131,-0.29563 1.51583,0.46751 1.9833,0 0.0399,-0.0397 0,-3.60242 0,-3.96657 0,-2.67715 -0.0648,-0.66755 0.99165,-5.9499 z"
       id="path4176"
       inkscape:connector-curvature="0" />
    <path
       style="fill:#00ab00;fill-opacity:1;stroke:#000000;stroke-width:0.49084112px;stroke-linecap:butt;stroke-linejoin:miter;stroke-opacity:1"
       d="m 544.16271,303.57814 c -5.69125,0.33671 -1.18724,3.36609 -1.98329,4.95819 -0.20909,0.41813 -0.78259,0.57358 -0.99165,0.99171 -0.0422,0.0849 -0.0422,3.88199 0,3.96657 0.20906,0.41814 0.66107,0.66105 0.99165,0.99162 0.33053,0.33057 0.66107,0.66114 0.99165,0.99162 0.66106,0.66114 1.32218,1.32229 1.98329,1.98334 0.33054,0.33057 0.53811,0.87824 0.99165,0.99162 8.53367,2.13345 -2.08564,-2.71254 4.95823,1.98333 0.27501,0.18334 0.66111,0 0.99164,0 2.34058,0 2.33278,-0.46751 3.96659,1.98333 0.22736,0.34104 -0.2174,2.75749 0,2.97495 0.23374,0.23371 0.67098,-0.0803 0.99165,0 1.01407,0.25348 1.94996,0.78661 2.97493,0.99162 0.64831,0.12963 1.32223,0 1.98334,0 0.99165,0 2.00254,0.19444 2.97495,0 1.02988,-0.206 4.62446,-2.70793 4.95822,-2.97495 0.73008,-0.58405 1.25323,-1.39928 1.9833,-1.98333 0.93063,-0.74446 2.04431,-1.23878 2.97494,-1.98324 0.73008,-0.58405 1.14709,-1.5652 1.98329,-1.98333 0.59132,-0.29564 1.39203,0.29563 1.98329,0 2.16363,-1.08181 2.53584,-2.74829 1.98335,-4.95829 -0.0349,-0.13919 -1.79133,-1.69527 -1.98335,-1.98324 -0.40994,-0.61501 -0.46899,-1.46066 -0.99164,-1.98333 -0.52265,-0.52266 -1.28208,-0.75791 -1.98329,-0.99162 -0.31356,-0.10453 -0.75791,0.23371 -0.99165,0 -2.24815,-2.24818 0.59151,-2.18337 -2.97494,-3.96657 -0.32793,-0.16402 -4.19507,0 -4.95823,0 -4.6277,0 -9.2554,0 -13.8831,0 -0.33053,0 -0.66111,0 -0.99165,0 -0.33053,0 -0.69601,0.14777 -0.99164,0 -0.67952,-0.33978 -1.62189,-2.04354 -1.9833,-1.98333 -1.75583,0.29266 -3.43185,2.89912 -4.95823,1.98333 -1.41725,-0.85035 -1.65276,-4.95828 0,-4.95828 1.65272,0 0,3.30552 0,4.95828 z"
       id="path4178"
       inkscape:connector-curvature="0" />
    <path
       style="fill:#00ab00;fill-opacity:1;stroke:#000000;stroke-width:0.49084112px;stroke-linecap:butt;stroke-linejoin:miter;stroke-opacity:1"
       d="m 607.62823,289.695 c -1.65276,1.65277 -3.30553,3.30553 -4.95824,4.95829 -0.99164,0.99162 -2.34779,1.72055 -2.97493,2.97495 -0.29568,0.59127 0,1.32219 0,1.98324 0,0.33057 0,0.66114 0,0.99171 0,0.33048 -0.23374,0.75791 0,0.99162 1.5355,1.5355 5.04187,0.99162 6.94152,0.99162 2.97494,0 5.94987,0 8.92482,0 0.99164,0 2.08799,-0.44341 2.97494,0 2.45077,1.22542 1.98334,1.91491 1.98334,3.96666 0,0.33048 -0.14785,0.69599 0,0.99162 0.20905,0.41813 0.66106,0.66105 0.99165,0.99162 1.25105,1.25106 2.93042,2.58508 3.96658,3.96657 0.44348,0.59136 0.40033,1.53984 0.99164,1.98333 0.83625,0.6272 2.07861,0.45388 2.97495,0.99162 0.80169,0.48106 1.14704,1.5652 1.98329,1.98334 0.59132,0.29563 1.36949,-0.24554 1.98329,0 1.1066,0.44259 1.86839,1.54064 2.97494,1.98333 0.0655,0.0262 6.69403,0.12376 6.94157,0 0.29563,-0.14787 -0.10455,-0.67812 0,-0.99171 0.23374,-0.70113 0.75791,-1.28202 0.99164,-1.98325 0.20906,-0.62719 0,-1.32219 0,-1.98333 0,-0.51851 0.13037,-3.70587 0,-3.96657 -0.20905,-0.41813 -0.78259,-0.57358 -0.99164,-0.99162 -1.45913,-2.91826 2.29723,1.30558 -0.99164,-1.98333 -0.33059,-0.33057 -0.66112,-0.66114 -0.99165,-0.99162 -0.33058,-0.66114 -0.469,-1.46066 -0.99165,-1.98333 -1.20782,-1.20782 -2.21556,-0.46453 -2.97498,-1.98333 -0.1478,-0.29564 0.14783,-0.69599 0,-0.99162 -0.20905,-0.41813 -0.78256,-0.57349 -0.99165,-0.99162 -0.14779,-0.29573 0.14784,-0.69599 0,-0.99171 -2.26917,-4.53835 0.41103,4.20804 -1.9833,-2.97495 -0.10449,-0.31351 0.18338,-0.71657 0,-0.99162 -0.51857,-0.77786 -1.32218,-1.32219 -1.98329,-1.98333 -0.66112,-0.66105 -1.32217,-1.32219 -1.98329,-1.98324 -0.99164,-0.99162 -1.7206,-2.34776 -2.97494,-2.97496 -0.59132,-0.29563 -1.51581,0.46742 -1.98329,0 -0.46748,-0.46751 0.46748,-1.51582 0,-1.98333 -0.46748,-0.46742 -1.32223,0 -1.9833,0 -0.66111,0 -1.32223,0 -1.98328,0 -1.65277,0 -3.30553,0 -4.95829,0 -0.99164,0 -2.04642,-0.34817 -2.97494,0 -2.07621,0.77859 -3.96658,1.98333 -5.94987,2.97495 z"
       id="path4180"
       inkscape:connector-curvature="0" />
    <path
       style="fill:#00ab00;fill-opacity:1;stroke:#000000;stroke-width:0.49084112px;stroke-linecap:butt;stroke-linejoin:miter;stroke-opacity:1"
       d="m 587.79525,340.26908 c 7.81134,1.95282 -0.0649,0.8063 8.92482,-0.99162 1.62066,-0.32416 3.36908,0.45406 4.95828,0 0.89892,-0.25682 1.14704,-1.5652 1.98329,-1.98333 0.59127,-0.29563 1.32218,0 1.98329,0 0.66111,0 1.32218,0 1.9833,0 0.23565,0 3.74433,-0.11112 3.96658,0 0.41029,0.20519 2.69472,2.55465 2.97494,2.97495 0.41,0.61502 0.469,1.46067 0.99165,1.98333 0.52264,0.52267 1.46064,0.46905 1.98329,0.99162 0.52265,0.52267 0.54817,1.39206 0.99165,1.98334 0.56097,0.74798 1.46472,1.20538 1.98334,1.98333 0.18333,0.27496 -0.18339,0.71656 0,0.99162 1.0372,1.55581 2.84466,2.4707 3.96658,3.96657 2.436,0.35359 0.41182,2.10519 0.99165,2.97495 0.51862,0.77795 1.32218,1.32219 1.98329,1.98333 0.66111,0.66105 1.32218,1.32219 1.9833,1.98324 1.32217,1.32219 2.6444,2.64438 3.96658,3.96666 0.66111,0.66105 1.1471,1.56511 1.98329,1.98324 0.59132,0.29564 1.32223,0 1.9833,0 1.98333,0 3.96663,0 5.94992,0 0.33053,0 0.75791,-0.23371 0.99164,0 0.23375,0.23371 0,0.66114 0,0.99171 0,0.33048 0.14785,0.69599 0,0.99162 -0.20905,0.41814 -0.78259,0.57349 -0.99164,0.99162 -0.29569,0.59137 0.46748,1.51582 0,1.98333 -0.23374,0.23371 -0.69602,-0.14786 -0.99164,0 -0.41815,0.20907 -0.57355,0.78256 -0.99165,0.99162 -0.29568,0.14787 -0.69601,-0.14777 -0.99165,0 -0.41815,0.20907 -0.57355,0.78265 -0.99165,0.99163 -0.29568,0.14786 -0.69601,-0.14778 -0.99164,0 -0.40058,0.20031 -3.93689,3.93687 -3.96664,3.96666 -0.33053,0.33057 -0.54816,0.84375 -0.99164,0.99162 -0.62715,0.20906 -1.43321,-0.36668 -1.98329,0 -0.61498,0.41001 -0.37668,1.57332 -0.99165,1.98333 -5.61935,0 -0.33053,-0.66114 -1.98329,0.99162 -0.23374,0.23371 -0.66112,0 -0.99165,0 -0.33053,0 -0.66111,0 -0.99165,0 -2.31387,0 -4.6277,0 -6.94152,0 -0.66111,0 -1.32223,0 -1.98334,0 -0.66107,0 -1.3561,0.20906 -1.98329,0 -0.44348,-0.14786 -0.54818,-0.84385 -0.99165,-0.99162 -0.62715,-0.20907 -1.32218,0 -1.9833,0 -0.66111,-0.66114 -1.20535,-1.46473 -1.98328,-1.98333 -0.27503,-0.18334 -0.84381,0.29563 -0.99165,0 -0.29563,-0.59127 0.36671,-1.43323 0,-1.98333 -0.41,-0.61493 -1.39198,-0.54813 -1.98329,-0.99162 -7.13291,-5.3497 2.09274,1.10111 -2.97495,-3.96658 -0.52264,-0.52266 -1.57328,-0.37669 -1.98329,-0.99171 -0.36671,-0.55001 0.46743,-1.51582 0,-1.98324 -0.46747,-0.46751 -1.51586,0.46742 -1.98329,0 -0.46748,-0.46751 0,-1.32219 0,-1.98333 0,-0.33057 0,-0.66105 0,-0.99162 0,-0.56049 -0.2173,-4.6324 0,-4.95828 3.56645,-5.3496 0.30864,0.68299 3.96658,-2.97495 0.52265,-0.52258 0.54818,-1.39197 0.99165,-1.98324 0.72571,-0.96761 4.50013,-4.04204 4.95824,-4.95828 0.29562,-0.59127 -0.36672,-1.43323 0,-1.98324 0.41,-0.61502 1.39197,-0.54822 1.98328,-0.99171 0.74795,-0.56094 1.5652,-1.14707 1.9833,-1.98324 0.29568,-0.59137 -0.16031,-1.34196 0,-1.98334 -1.23638,-1.02465 -2.94023,0.50994 -3.96658,0.99162 -0.32588,0.21729 -4.39775,0 -4.95824,0 -3.96658,0 -0.66111,-0.66105 -1.98329,1.98334 -0.19619,0.39231 -1.98844,-0.49324 -2.97494,0 -0.29569,0.14777 0.29563,0.84384 0,0.99162 -0.79355,0.39673 -4.30085,-0.43827 -4.95828,0 -0.61497,0.41 -0.33053,1.65276 -0.99165,1.98333 -1.39252,0.69625 -0.87267,-2.85598 -0.99164,-2.97495 -1.82549,-1.82554 -3.96658,-3.30553 -5.94988,-4.95829 z"
       id="path4182"
       inkscape:connector-curvature="0"
       sodipodi:nodetypes="csssssssssssscssssssssssssssssccsscssssssccsssssssssssssssssccsssssscc" />
    <path
       style="fill:#00ab00;fill-opacity:1;stroke:#000000;stroke-width:0.49084112px;stroke-linecap:butt;stroke-linejoin:miter;stroke-opacity:1"
       d="m 548.1293,374.97679 c 0,3.96666 0,7.93323 0,11.8998 0,1.57107 -0.29569,2.67932 0.99164,3.96657 0.52266,0.52267 1.39198,0.54821 1.9833,0.99171 0.74794,0.56094 1.32218,1.32219 1.98329,1.98324 1.32223,1.32219 2.64441,2.64447 3.96659,3.96666 0.66111,0.66106 1.23534,1.42231 1.98329,1.98325 3.98386,2.98795 -0.24989,-1.09155 4.95828,0.99171 0.86806,0.34718 1.14705,1.5651 1.98329,1.98324 0.59132,0.29563 1.39198,-0.29564 1.9833,0 0.83624,0.41813 1.14705,1.56519 1.98328,1.98333 0.59132,0.29563 1.32218,0 1.9833,0 0.66111,0 1.32218,0 1.98329,0 0.33058,0 0.75791,0.23371 0.99165,0 0.23374,-0.23371 -0.23374,-0.75791 0,-0.99162 0.23374,-0.2338 0.69601,0.14777 0.99165,0 2.37459,-1.18733 -0.62494,-1.98333 1.98329,-1.98333 0.33058,0 0.75796,0.23371 0.99164,0 0.23375,-0.23371 -0.23368,-0.75791 0,-0.99162 0.23375,-0.2338 0.75796,-0.2338 0.9917,0 0.5226,0.52257 0.58165,1.36822 0.99165,1.98324 0.25926,0.38897 0.73233,0.60273 0.99164,0.99171 2.81949,4.22926 -1.31422,-0.32263 2.97494,3.96657 0.66107,0.66105 1.14705,1.5652 1.98329,1.98324 1.18258,0.59136 2.78401,-0.59127 3.96658,0 0.29564,0.14786 0,1.32228 0,0.99171 0,-2.3139 0,-4.62771 0,-6.94152 0,-0.66114 0,-1.32228 0,-1.98333 0,-0.66114 -0.29562,-1.39197 0,-1.98333 0.41811,-0.83618 1.46468,-1.20539 1.9833,-1.98325 0.21724,-0.32587 0,-4.39779 0,-4.95828 0,-1.32219 0,-2.64438 0,-3.96657 0,-0.33057 0.29568,-0.84385 0,-0.99171 -0.59132,-0.29563 -1.51581,0.46751 -1.9833,0 -0.46747,-0.46742 0.20906,-1.35604 0,-1.98324 -0.14783,-0.4435 -0.66111,-0.66114 -0.99163,-0.99162 -0.66113,-0.66114 -1.14705,-1.5652 -1.9833,-1.98333 -0.59131,-0.29564 -1.35615,0.20907 -1.98329,0 -0.44347,-0.14786 -0.66112,-0.66114 -0.99165,-0.99162 -0.66111,-0.66114 -1.20541,-1.46473 -1.98329,-1.98333 -0.27507,-0.18334 -0.66112,0 -0.99165,0 -0.66112,0 -1.34195,0.16032 -1.98329,0 -0.71707,-0.17928 -1.26627,-0.81235 -1.98334,-0.99162 -0.64133,-0.16041 -1.32218,0 -1.98329,0 -1.65272,0 -3.30548,0 -4.95824,0 -0.66111,0 -1.32217,0 -1.98329,0 -0.33053,0 -0.84381,0.29563 -0.99164,0 -0.29564,-0.59136 0.29562,-1.39206 0,-1.98333 -0.14785,-0.29564 -0.66112,0 -0.99165,0 -1.65276,0 -3.30552,0 -4.95824,0 -0.33058,0 -0.66111,0 -0.99163,0 -0.68974,0 -4.59968,0.17927 -4.95829,0 -0.8362,-0.41814 -1.14704,-1.5652 -1.98329,-1.98333 -0.29564,-0.14778 -0.66111,0 -0.99165,0 -1.65276,0 -3.30547,0 -4.95823,0 z"
       id="path4184"
       inkscape:connector-curvature="0" />
    <path
       style="fill:#00ab00;fill-opacity:1;stroke:#000000;stroke-width:0.49084112px;stroke-linecap:butt;stroke-linejoin:miter;stroke-opacity:1"
       d="m 504.49675,321.42776 c 1.3222,0 2.71224,-0.41814 3.9666,0 0.88695,0.29572 1.20538,1.46472 1.98329,1.98333 0.27504,0.18334 0.67807,-0.10454 0.99165,0 0.7012,0.23371 1.26624,0.81234 1.98329,0.99162 0.64136,0.16041 1.392,-0.29564 1.98331,0 0.83623,0.41813 1.20539,1.46473 1.98329,1.98333 0.27504,0.18334 0.6611,0 0.99163,0 0.66111,0 1.32223,0 1.98329,0 2.31388,0 4.62771,0 6.94158,0 5.02523,0 -0.88695,-0.59127 2.97493,1.98333 0.51161,0.34104 5.05567,-0.29807 5.94989,0 0.44347,0.14777 0.66111,0.66105 0.99164,0.99162 0.66112,0.66105 1.32223,1.32219 1.98329,1.98324 0.33058,0.33057 0.66112,0.66114 0.99165,0.99171 0.33058,0.33057 0.7826,0.57349 0.99169,0.99162 0.1478,0.29564 -0.14783,0.69599 0,0.99162 0.20906,0.41813 0.66107,0.66114 0.99165,0.99171 0.33053,0.33057 0.54818,0.84376 0.99165,0.99162 0.62715,0.20907 1.4332,-0.36668 1.98329,0 0.61498,0.41001 0.58165,1.36832 0.99165,1.98333 1.96999,2.955 -0.19835,-1.12386 2.97493,0.99162 0.61498,0.41001 0.37668,1.57333 0.99165,1.98333 0.55009,0.36668 1.35615,-0.20906 1.98329,0 0.44348,0.14778 0.54818,0.84376 0.99165,0.99162 0.82648,0.27551 3.64685,-0.31973 3.96659,0 0.0534,0.0533 0,5.32867 0,5.94991 0,0.33057 0.23374,0.75791 0,0.99162 -0.23375,0.23371 -0.75791,-0.23371 -0.99165,0 -0.46748,0.46751 0.29568,1.39197 0,1.98333 -0.20905,0.41813 -0.66107,0.66105 -0.99164,0.99162 -0.33054,0.33057 -0.5735,0.78264 -0.99165,0.99162 -0.29564,0.14786 -0.69597,-0.14777 -0.99165,0 -0.83625,0.41813 -1.09634,1.68769 -1.98329,1.98333 -0.6272,0.20907 -1.43321,-0.36668 -1.9833,0 -0.61497,0.41001 -0.46899,1.46066 -0.99164,1.98333 -0.52264,0.52258 -1.32223,0.66105 -1.98329,0.99162 -0.33058,0.66114 -0.54818,1.39197 -0.99165,1.98333 -0.56098,0.74789 -1.23535,1.4223 -1.98329,1.98324 -0.59132,0.4435 -1.57334,0.3767 -1.9833,0.99171 -0.36675,0.55002 0.20906,1.35613 0,1.98324 -0.14783,0.4435 -0.84385,0.54821 -0.99169,0.99171 -0.20905,0.62711 0.29568,1.39197 0,1.98324 -0.50321,1.00652 -2.67479,-1.68309 -2.97494,-1.98324 -0.66106,-0.66114 -1.32218,-1.32228 -1.98329,-1.98333 -0.33053,-0.33057 -0.84381,-0.54821 -0.99165,-0.99162 -0.20904,-0.6272 0.46748,-1.51591 0,-1.98333 -0.46747,-0.46751 -1.34191,0.16032 -1.98329,0 -0.71707,-0.17928 -1.46065,-0.46904 -1.9833,-0.99162 -0.52264,-0.52266 -0.37667,-1.57332 -0.99164,-1.98333 -0.55008,-0.36668 -1.32218,0 -1.98329,0 -0.51857,0 -3.70585,-0.13035 -3.96659,0 -0.41815,0.20907 -0.66111,0.66114 -0.99165,0.99162 -0.33057,0.33057 -0.78259,0.57358 -0.99169,0.99171 -0.14779,0.29564 0.14785,0.69599 0,0.99162 -0.20905,0.41813 -0.66107,0.66105 -0.99165,0.99162 -0.33053,0.33057 -0.66106,0.66114 -0.99164,0.99171 -0.53752,0.53747 -1.01054,1.478 -1.98328,0.99162 -2.19259,-1.09633 -0.30773,-0.61546 -0.99165,-1.98333 -0.53093,-1.06185 -1.45236,-0.92139 -1.98329,-1.98324 -0.14783,-0.29572 0.14783,-0.69598 0,-0.99171 -0.20906,-0.41804 -0.78259,-0.57349 -0.99166,-0.99162 -0.14782,-0.29564 0.14783,-0.69598 0,-0.99162 -1.09629,-2.19258 -0.61545,-0.30773 -1.98329,-0.99171 -1.98262,-0.99126 0.0175,-2.30794 -1.9833,-2.97495 -0.62717,-0.20898 -1.3222,0 -1.9833,0 -0.33054,0 -0.84381,0.29572 -0.99164,0 -0.29565,-0.59127 0.36671,-1.43322 0,-1.98324 -0.41,-0.61501 -1.5733,-0.3767 -1.9833,-0.99162 -0.36671,-0.55011 0,-1.32228 0,-1.98333 0,-0.33057 -0.14783,-0.69599 0,-0.99162 0.20905,-0.41814 0.6611,-0.66114 0.99164,-0.99171 0.66111,-0.66105 1.4647,-1.20538 1.9833,-1.98324 0.18337,-0.27506 -0.14783,-0.69608 0,-0.99172 0.20907,-0.41813 0.7826,-0.57348 0.99166,-0.99162 0.14782,-0.29563 -0.14783,-0.69598 0,-0.99162 0.20905,-0.41813 0.78259,-0.57357 0.99164,-0.99171 0.14783,-0.29563 -0.23373,-0.75791 0,-0.99162 0.23373,-0.23371 0.75792,0.23371 0.99165,0 0.52265,-0.52266 0.75791,-1.28211 0.99165,-1.98333 0.10453,-0.31351 -0.29565,-0.84375 0,-0.99162 0.5913,-0.29563 1.51583,0.46751 1.98329,0 0.46748,-0.46742 -0.29564,-1.39197 0,-1.98333 0.14783,-0.29563 0.75792,0.2338 0.99166,0 0.23373,-0.23371 0.23373,-0.75791 0,-0.99162 -0.23374,-0.23371 -0.696,0.14786 -0.99166,0 -0.4181,-0.20907 -0.54816,-0.84385 -0.99164,-0.99162 -0.62718,-0.20907 -1.43323,0.36668 -1.9833,0 -0.61499,-0.41001 -0.37665,-1.57332 -0.99165,-1.98333 -2.97494,-1.98324 -0.99164,0.99162 -2.97494,0 -0.41812,-0.20907 -0.57353,-0.78255 -0.99166,-0.99162 -0.29565,-0.14786 -0.75791,0.23371 -0.99164,0 -0.23373,-0.23371 0.14782,-0.69599 0,-0.99162 -0.20906,-0.41813 -0.78259,-0.57358 -0.99165,-0.99171 -0.14783,-0.29564 -0.0543,-0.66556 0,-0.99162 0.27709,-1.66251 0.66109,-3.30552 0.99165,-4.95828 z"
       id="path4186"
       inkscape:connector-curvature="0" />
    <path
       style="fill:#00ab00;fill-opacity:1;stroke:#000000;stroke-width:0.49084112px;stroke-linecap:butt;stroke-linejoin:miter;stroke-opacity:1"
       d="m 622.50297,400.75973 c 1.32218,0.99162 2.69692,1.91689 3.96658,2.97495 0.71825,0.59849 1.32218,1.32219 1.9833,1.98324 0.66111,0.66114 1.46466,1.20538 1.98329,1.98333 0.36671,0.55002 -0.29563,1.39197 0,1.98324 0.20905,0.41813 0.78259,0.57358 0.99165,0.99171 0.26171,0.52339 -0.28788,2.5431 0,2.97495 0.51862,0.77786 1.46472,1.20538 1.98329,1.98324 0.18338,0.27506 -0.23374,0.75791 0,0.99171 0.23373,0.23371 0.69601,-0.14786 0.99164,0 0.41815,0.20907 0.57355,0.78256 0.99165,0.99162 0.29568,0.14787 0.66111,0 0.99165,0 0.33058,0 0.69601,0.14787 0.99165,0 0.40057,-0.20031 3.93689,-3.93687 3.96663,-3.96657 0.99165,-0.99171 1.98329,-1.98333 2.97493,-2.97495 0.66112,-0.66114 1.46468,-1.20538 1.9833,-1.98333 0.18333,-0.27506 0,-0.66105 0,-0.99162 0,-0.66114 0,-1.32219 0,-1.98333 0,-0.56049 0.21724,-4.63232 0,-4.95819 -0.51862,-0.77795 -1.42236,-1.23535 -1.9833,-1.98333 -0.44347,-0.59128 -0.37667,-1.57333 -0.99164,-1.98334 -4.7131,-3.14204 0.83364,3.8086 -3.96659,-0.99162 -0.52264,-0.52266 -0.37667,-1.57332 -0.99164,-1.98333 -0.99169,-0.66105 -1.98334,0.33057 -2.97499,0 -0.70117,-0.23371 -1.26622,-0.81234 -1.98329,-0.99162 -0.64133,-0.16032 -1.43321,0.36668 -1.98329,0 -0.61498,-0.41001 -0.37668,-1.57332 -0.99165,-1.98333 -1.10012,-0.73335 -2.86646,0.73345 -3.96659,0 -0.61502,-0.40992 -0.37667,-1.57323 -0.99164,-1.98324 -0.55008,-0.36677 -1.32223,0 -1.9833,0 -2.31387,0 -4.62769,0 -6.94157,0 -0.33053,0 -0.71658,-0.18334 -0.99164,0 -0.77789,0.51861 -1.14705,1.5652 -1.9833,1.98324 -0.59131,0.29573 -1.35609,-0.20897 -1.98329,0 -1.45913,0.48638 -0.99164,1.89992 -0.99164,2.97495 0,0.33057 0,0.66114 0,0.99171 0,0.33048 -0.23375,0.75791 0,0.99162 0.23374,0.23371 0.69601,-0.14786 0.99164,0 0.83624,0.41814 1.1471,1.5652 1.98329,1.98333 0.62327,0.31162 3.34332,-0.3117 3.96659,0 1.72398,0.86191 3.30552,1.98325 4.95828,2.97496 z"
       id="path4188"
       inkscape:connector-curvature="0" />
    <path
       style="fill:#00ab00;fill-opacity:1;stroke:#000000;stroke-width:0.49084112px;stroke-linecap:butt;stroke-linejoin:miter;stroke-opacity:1"
       d="m 535.23785,687.3462 c -2.45592,-4.22321 -1.98329,-4.01712 -1.98329,-7.93314 0,-0.33057 0,-0.66114 0,-0.99162 0,-0.33057 -0.14785,-0.69599 0,-0.99171 0.20904,-0.41813 0.7826,-0.57349 0.99164,-0.99162 0.14784,-0.29564 -0.18333,-0.71657 0,-0.99171 0.51863,-0.77786 1.32223,-1.3221 1.9833,-1.98324 0.33058,-0.33057 0.84385,-0.54822 0.99164,-0.99162 0.20905,-0.6272 -0.29563,-1.39206 0,-1.98333 1.78323,-3.5665 1.71844,-0.72677 3.96663,-2.97496 0.5226,-0.52266 0.37663,-1.57332 0.99165,-1.98324 0.55003,-0.36676 1.39198,0.29564 1.98329,0 0.83621,-0.41813 1.32219,-1.32228 1.9833,-1.98333 0.33053,-0.33057 0.54817,-0.84384 0.99165,-0.99162 0.62714,-0.20906 1.32217,0 1.98328,0 0.66112,-0.66114 1.14705,-1.5652 1.9833,-1.98333 0.59131,-0.29563 1.39197,0.29564 1.98329,0 0.83625,-0.41813 1.20541,-1.46473 1.9833,-1.98324 0.27506,-0.18343 0.71663,0.18325 0.99164,0 0.77794,-0.51869 1.1471,-1.5652 1.98329,-1.98342 0.59131,-0.29564 1.39203,0.29573 1.98329,0 0.29568,-0.14777 -0.18333,-0.71657 0,-0.99162 1.58057,-2.37077 2.2968,-1.25386 2.97499,-3.96657 0.16031,-0.64137 -0.3667,-1.43322 0,-1.98333 0.41,-0.61492 1.5733,-0.37661 1.9833,-0.99162 0.3667,-0.55011 0,-1.32219 0,-1.98324 0,-1.65276 0,-3.30552 0,-4.95828 0,-0.66115 0.3667,-1.43323 0,-1.98334 -0.41,-0.61501 -1.46065,-0.46904 -1.9833,-0.99162 -0.52265,-0.52266 -0.37667,-1.57332 -0.99165,-1.98333 -4.7131,-3.14204 0.83361,3.8086 -3.96663,-0.99162 -2.24815,-2.24818 0.59151,-2.18337 -2.97493,-3.96657 -0.59132,-0.29563 -1.43321,0.36668 -1.9833,0 -0.61498,-0.41001 -0.469,-1.46066 -0.99165,-1.98333 -0.52264,-0.52266 -1.39197,-0.54812 -1.98329,-0.99162 -0.74795,-0.56103 -1.32217,-1.32219 -1.98329,-1.98333 -0.66111,-0.66114 -1.42236,-1.23535 -1.98329,-1.98324 -0.44348,-0.59136 -0.37667,-1.57332 -0.99165,-1.98333 -0.55009,-0.36668 -1.34196,0.16032 -1.98329,0 -3.96227,-0.99054 -0.0153,-0.9993 -3.96664,-2.97495 -0.59126,-0.29573 -1.4332,0.36668 -1.98329,0 -1.79878,-1.19925 -0.56388,-4.31664 -0.99164,-4.95828 -0.51858,-0.77796 -1.46467,-1.20539 -1.9833,-1.98334 -0.18333,-0.27505 0,-0.66114 0,-0.99162 0,-0.33057 0,-0.66114 0,-0.99171 0,-1.98324 0,-3.96657 0,-5.94981 0,-0.56058 -0.21724,-4.6324 0,-4.95828 0.51863,-0.77786 1.32223,-1.32219 1.9833,-1.98333 0.66111,-0.66105 1.20541,-1.46464 1.98328,-1.98324 0.27508,-0.18334 0.67811,0.10453 0.99165,0 0.70122,-0.2338 1.28213,-0.75791 1.98334,-0.99171 0.31356,-0.10445 0.71659,0.18343 0.99165,0 0.77789,-0.51852 1.14705,-1.56511 1.98329,-1.98324 0.88696,-0.4435 1.9833,0 2.97495,0 0.23565,0 3.74432,-0.11113 3.96658,0 0.41809,0.20906 0.57355,0.78255 0.99164,0.99162 0.29564,0.14786 0.69602,-0.14778 0.99165,0 0.80409,0.40206 2.24168,2.7917 2.97494,2.97495 6.75721,0 -0.41074,-0.70113 4.95829,1.98324 1.18257,0.59136 2.86641,-0.73336 3.96658,0 0.61497,0.41001 0.37662,1.57341 0.99164,1.98342 1.10013,0.73336 2.78395,-0.59136 3.96658,0 0.29564,0.14777 -0.14783,0.69589 0,0.99162 0.20906,0.41813 0.7826,0.57349 0.99165,0.99162 0.15089,0.30177 0,2.52838 0,2.97495 0,0.51851 0.13037,3.70587 0,3.96657 -0.20905,0.41814 -0.8438,0.54822 -0.99165,0.99162 -0.31359,0.9408 0,1.98333 0,2.97495 0,0.8304 -0.18853,4.20417 0,4.95829 1.32218,5.28885 0.33054,-0.99162 2.97495,2.97504 0.3667,0.55002 -0.20905,1.35604 0,1.98324 0.14784,0.4435 0.84385,0.54821 0.99164,0.99171 0.20905,0.62711 -0.3667,1.43313 0,1.98324 0.41,0.61501 1.39203,0.54821 1.9833,0.99162 0.74647,0.55986 4.39842,4.21184 4.95828,4.95828 0.44347,0.59127 0.37662,1.57332 0.99164,1.98333 0.55004,0.36668 1.34191,-0.16032 1.98329,0 0.71707,0.17928 1.28209,0.75782 1.9833,0.99162 0.3136,0.10454 0.71663,-0.18334 0.99164,0 0.77789,0.51861 1.14705,1.5652 1.9833,1.98324 0.59132,0.29573 1.32217,0 1.98328,0 0.66113,0 1.32219,0 1.9833,0 0.33058,0 0.84386,-0.29563 0.99165,0 0.008,0.0154 0.0147,4.91459 0,4.95829 -0.14779,0.44349 -0.7826,0.57348 -0.99165,0.99171 -0.026,0.0514 -0.026,2.92304 0,2.97495 0.20905,0.41804 0.66111,0.66105 0.99165,0.99162 0.33058,0.33048 0.57355,0.78255 0.99164,0.99162 0.29569,0.14786 0.66112,0 0.99165,0 0.33058,0 0.66112,0 0.99165,0 2.31387,0 4.62769,0 6.94157,0 0.99164,0 2.03419,-0.3136 2.97494,0 1.13065,0.37688 1.86839,1.54064 2.97494,1.98333 0.61379,0.24544 1.32217,0 1.98329,0 0.66111,0 1.32223,0 1.98329,0 0.33058,0 0.84386,-0.29564 0.99165,0 1.87315,3.74622 -0.27546,1.26703 -0.99165,1.98324 -0.23374,0.2338 -0.23374,0.75791 0,0.99171 0.23374,0.23371 0.66111,0 0.99165,0 0.33058,0 0.66111,0 0.99165,0 0.89386,0 4.33412,-0.20807 4.95828,0 0.70116,0.23371 1.39198,0.54812 1.98329,0.99162 1.49588,1.12188 2.47069,2.84469 3.96658,3.96666 0.59132,0.44341 1.46065,0.46896 1.9833,0.99162 0.52265,0.52267 0.54816,1.39197 0.99165,1.98324 0.56097,0.74798 1.23535,1.4223 1.98329,1.98333 0.59132,0.4435 1.57329,0.37661 1.98329,0.99162 3.14206,4.71311 -3.80858,-0.83364 0.99164,3.96657 0.52265,0.52267 1.5733,0.3767 1.9833,0.99172 0.3667,0.55001 0,1.32219 0,1.98324 0,0.66114 0,1.32228 0,1.98333 0,0.66114 0,1.32219 0,1.98324 0,0.66114 0.3667,1.43331 0,1.98333 -0.41,0.61501 -1.46065,0.46904 -1.9833,0.99171 -3.65794,3.65785 2.37475,0.40008 -2.97493,3.96657 -0.27503,0.18334 -0.66112,0 -0.99165,0 -0.66111,0.33057 -1.39198,0.54821 -1.98329,0.99162 -0.74643,0.55986 -4.39843,4.21184 -4.95824,4.95828 -0.44347,0.59127 -0.37667,1.57323 -0.99164,1.98324 -0.55009,0.36677 -1.32223,0 -1.98329,0 -0.18667,0 -4.90125,0.0379 -4.95828,0 -0.61498,-0.41001 -0.37663,-1.57323 -0.99165,-1.98324 -0.55004,-0.36677 -1.3561,0.20907 -1.9833,0 -0.44347,-0.14786 -0.66111,-0.66114 -0.99164,-0.99171 -0.66112,-0.66105 -1.32218,-1.3221 -1.98329,-1.98324 -0.66111,-0.66114 -1.20536,-1.46473 -1.98329,-1.98333 -0.27502,-0.18334 -0.67805,0.10453 -0.99165,0 -0.70121,-0.23371 -1.28213,-0.75791 -1.9833,-0.99162 -0.57442,-0.19146 -3.10727,0 -3.96658,0 -0.66111,0 -1.43326,0.36668 -1.98334,0 -0.61497,-0.41001 -0.37662,-1.57332 -0.99164,-1.98333 -0.3136,-0.20907 -3.38529,0.19381 -3.96659,0 -0.44347,-0.14777 -0.66107,-0.66105 -0.99165,-0.99162 -0.66111,-0.66114 -1.32217,-1.32219 -1.9833,-1.98333 -0.66111,-0.66105 -1.20535,-1.46464 -1.98328,-1.98333 -0.27502,-0.18325 -0.75791,0.2338 -0.99165,0 -0.71619,-0.71612 1.7629,-2.86473 -1.98329,-0.99162 -0.29568,0.14786 0,0.66114 0,0.99162 0,0.33066 0,0.66114 0,0.99171 0,2.32554 0.23373,-0.46742 -0.99165,1.98333 -0.14784,0.29563 0.14779,0.69598 0,0.99162 -0.20905,0.41813 -0.7826,0.57349 -0.99165,0.99162 -0.14783,0.29563 0.23374,0.75791 0,0.99171 -0.23373,0.23371 -0.7579,-0.2338 -0.99164,0 -0.23374,0.23371 0.23374,0.75791 0,0.99162 -0.23374,0.23371 -0.66112,0 -0.99165,0 -0.70288,0 -5.69351,-0.12818 -5.94992,0 -0.4181,0.20907 -0.5735,0.78255 -0.99165,0.99162 -0.29564,0.14777 -0.75791,-0.23371 -0.99165,0 -0.23373,0.2338 0.23374,0.75791 0,0.99171 -0.34805,0.34799 -4.27326,-0.34258 -4.95823,0 -0.4181,0.20898 -0.57355,0.78256 -0.99164,0.99162 -0.59132,0.29564 -1.39198,-0.29572 -1.9833,0 -0.41815,0.20907 -0.57355,0.78256 -0.99164,0.99162 -0.29569,0.14786 -0.75791,-0.23371 -0.99165,0 -0.52265,0.52267 -0.75791,1.28211 -0.99165,1.98333 -0.10454,0.3136 0.29564,0.84376 0,0.99162 -0.59132,0.29564 -1.51586,-0.46751 -1.98328,0 -0.46749,0.46751 0.20904,1.35613 0,1.98333 -0.24145,0.72433 -3.7252,3.24225 -3.96664,3.96657 -0.20906,0.6272 0.46747,1.51583 0,1.98325 -0.46743,0.46751 -1.32218,0 -1.98329,0 -0.66107,0 -1.32219,0 -1.9833,0 -1.65276,0 -3.30547,0 -4.95823,0 -0.33053,0 -0.75791,0.2338 -0.99164,0 -0.23374,-0.23362 0.23373,-0.75791 0,-0.99162 -0.46749,-0.46742 -1.39203,0.29572 -1.9833,0 -0.41815,-0.20907 -0.57355,-0.78256 -0.99165,-0.99163 -0.59131,-0.29563 -1.51586,0.46743 -1.98329,0 -0.23374,-0.2338 0.14779,-0.69598 0,-0.99171 -0.20909,-0.41804 -0.78259,-0.57348 -0.99165,-0.99162 -0.14783,-0.29563 0.1478,-0.69598 0,-0.99162 -0.20909,-0.41813 -0.78259,-0.57348 -0.99169,-0.99162 -0.29564,-0.59136 0.56692,-1.64319 0,-1.98333 -1.52636,-0.91579 -3.30547,-1.32219 -4.95823,-1.98333 z"
       id="path4190"
       inkscape:connector-curvature="0" />
    <path
       style="fill:#00ab00;fill-opacity:1;stroke:#000000;stroke-width:0.49084112px;stroke-linecap:butt;stroke-linejoin:miter;stroke-opacity:1"
       d="m 648.28582,575.28986 c 0,9.14972 0.6138,0.82661 -1.98329,9.91647 -0.18161,0.63569 0,1.32219 0,1.98333 0,4.29715 0,8.59429 0,12.89143 0,0.63379 -0.14304,5.66383 0,5.9499 0.41809,0.83627 1.5652,1.14707 1.98329,1.98333 0.29564,0.59127 0,1.32219 0,1.98324 0,0.66114 0,1.32219 0,1.98333 0,0.66105 0,1.32219 0,1.98324 0,0.66114 0.36671,1.43332 0,1.98334 -0.41,0.61501 -1.39198,0.54812 -1.98329,0.99162 -0.74642,0.55985 -4.39843,4.21183 -4.95823,4.95837 -2.64441,5.28876 0.99165,-0.99171 -2.97494,2.97495 -0.52265,0.52257 -0.46905,1.46057 -0.99169,1.98324 -0.52261,0.52267 -1.39198,0.54821 -1.9833,0.99162 -0.74794,0.56103 -1.32218,1.32219 -1.98329,1.98333 -0.99165,0.99162 -1.98329,1.98333 -2.97494,2.97495 -0.66111,0.66114 -1.20536,1.46473 -1.98329,1.98333 -0.27502,0.18334 -0.66112,0 -0.99165,0 -0.66111,0 -1.32218,0 -1.98329,0 -1.9833,0 -3.96658,0 -5.94988,0 -0.33058,0 -0.71663,-0.18334 -0.99169,0 -0.77789,0.51861 -1.14705,1.56511 -1.9833,1.98324 -0.59127,0.29573 -1.32218,0 -1.98329,0 -0.32371,0 -4.74525,0.21304 -4.95823,0 -0.99165,-0.99162 0.49585,-1.98324 0,-2.97495 -0.4181,-0.83617 -1.5652,-1.14706 -1.98329,-1.98324 -0.14785,-0.29563 0.14783,-0.69607 0,-0.99171 -0.20905,-0.41804 -0.7826,-0.57349 -0.99165,-0.99162 -0.14785,-0.29563 0.18333,-0.71666 0,-0.99162 -0.51862,-0.77795 -1.46472,-1.20547 -1.9833,-1.98333 -0.18337,-0.27496 0.23374,-0.75791 0,-0.99162 -0.23373,-0.23371 -0.7579,0.23371 -0.99164,0 -0.23374,-0.23371 0.23374,-0.75791 0,-0.99162 -0.23374,-0.2338 -0.7579,0.23371 -0.99165,0 -0.23374,-0.2338 0,-0.66114 0,-0.99171 0,-0.44657 -0.15093,-2.67318 0,-2.97495 1.0963,-2.19258 0.61547,-0.30773 1.98329,-0.99162 0.4181,-0.20916 0.5735,-0.78265 0.99165,-0.99171 0.29564,-0.14778 0.69597,0.14786 0.99165,0 0.4181,-0.20907 0.57355,-0.78256 0.99165,-0.99162 0.64933,-0.32471 4.0782,0.29328 4.95822,0 7.18293,-2.39434 -1.56342,0.28588 2.97495,-1.98333 0.59131,-0.29564 1.39202,0.29563 1.98329,0 0.41814,-0.20907 0.66111,-0.66105 0.99165,-0.99162 1.43968,-1.43964 0.99169,-1.0735 0.99169,-2.97496 0,-0.33057 0,-0.66114 0,-0.99171 0,-0.33048 0.14779,-0.69598 0,-0.99162 -0.2091,-0.41804 -0.66111,-0.66105 -0.99169,-0.99162 -0.66107,-0.66114 -1.46468,-1.20538 -1.9833,-1.98333 -0.18333,-0.27496 0.14784,-0.69598 0,-0.99162 -0.20904,-0.41813 -0.8438,-0.54812 -0.99164,-0.99162 -0.31356,-0.9408 0,-1.98333 0,-2.97495 0,-1.65276 0,-3.30552 0,-4.95828 0,-0.33057 0.23373,-0.75791 0,-0.99162 -0.23374,-0.2338 -0.75791,0.23371 -0.99165,0 -2.02678,-2.02684 -1.51327,-3.48624 -3.96658,-4.95828 -0.89633,-0.53783 -2.15873,-0.3387 -2.97494,-0.99162 -0.93064,-0.74455 -1.14057,-2.13219 -1.9833,-2.97496 -0.84273,-0.84276 -2.0443,-1.23878 -2.97494,-1.98333 -1.46015,-1.16809 -2.6444,-2.64438 -3.96663,-3.96657 -0.66106,-0.66105 -1.20536,-1.46472 -1.98329,-1.98333 -0.27502,-0.18334 -0.75791,0.2338 -0.99165,0 -0.23374,-0.23371 0,-0.66105 0,-0.99162 0,-3.5905 -0.39675,-0.39647 1.9833,-3.96657 0.18337,-0.27505 0,-0.66114 0,-0.99171 0.33058,-0.66105 0.54816,-1.39197 0.99164,-1.98324 0.56098,-0.74798 1.56519,-1.14707 1.98334,-1.98333 0.29563,-0.59127 -0.36676,-1.43322 0,-1.98324 0.41,-0.61501 1.39197,-0.54821 1.98329,-0.99171 0.74794,-0.56094 1.42232,-1.23535 1.98329,-1.98324 0.44348,-0.59136 0.54818,-1.39206 0.99165,-1.98333 0.56093,-0.74798 1.5652,-1.14707 1.9833,-1.98334 0.008,-0.0153 0.0147,-4.91459 0,-4.95819 -0.14785,-0.4435 -0.7826,-0.57348 -0.99165,-0.99171 -0.14785,-0.29554 0.14784,-0.69598 0,-0.99162 -0.20905,-0.41804 -0.66111,-0.66114 -0.99165,-0.99162 -0.66111,-0.66114 -1.32223,-1.32219 -1.98329,-1.98333 -1.32223,-1.32219 -2.6444,-2.64438 -3.96658,-3.96657 -0.33058,-0.33057 -0.7826,-0.57349 -0.9917,-0.99162 -0.1478,-0.29573 0.23374,-0.75791 0,-0.99162 -0.23369,-0.2338 -0.99164,0.33048 -0.99164,0 0,-0.46751 0.5333,-0.90009 0.99164,-0.99171 1.94481,-0.38898 3.96663,0 5.94992,0 0.81186,0 4.31572,-0.21421 4.95824,0 0.70121,0.2338 1.26622,0.81234 1.98329,0.99171 0.64139,0.16023 1.39198,-0.29573 1.98329,0 0.83625,0.41804 1.14709,1.56511 1.9833,1.98324 0.59131,0.29564 1.43326,-0.36668 1.98329,0 0.61502,0.41001 0.54817,1.39197 0.99165,1.98333 0.56097,0.74789 1.32222,1.32219 1.98334,1.98324 0.66106,0.66114 1.23535,1.4223 1.98329,1.98333 0.35356,2.43595 2.10522,0.41182 2.97494,0.99162 1.55582,1.0373 2.29414,3.1304 3.96659,3.96657 0.59131,0.29573 1.39197,-0.29563 1.98329,0 0.0868,0.0433 4.91483,4.87145 4.95823,4.95829 0.29568,0.59127 -0.46743,1.51582 0,1.98333 0.46747,0.46742 1.51586,-0.46751 1.98334,0 0.46743,0.46742 -0.46748,1.51582 0,1.98324 0.46743,0.46751 1.4332,-0.36668 1.98329,0 0.61498,0.41001 0.469,1.46066 0.99165,1.98333 0.52265,0.52266 1.57329,0.3767 1.98329,0.99162 0.36671,0.55011 -0.42326,1.47547 0,1.98333 1.35496,1.62595 3.30547,2.64438 4.95823,3.96657 1.65276,1.32219 3.30552,2.64438 0,0 z"
       id="path4192"
       inkscape:connector-curvature="0" />
    <path
       style="fill:#00ab00;fill-opacity:1;stroke:#000000;stroke-width:0.49084112px;stroke-linecap:butt;stroke-linejoin:miter;stroke-opacity:1"
       d="m 340.8747,675.4464 c -1.65275,0.99171 -3.38985,1.85469 -4.95825,2.97504 -0.76079,0.54343 -1.3222,1.32219 -1.98329,1.98324 -1.3222,1.32219 -2.6444,2.64438 -3.9666,3.96666 -0.6611,0.66105 -1.3222,1.3221 -1.9833,1.98324 -0.6611,0.66114 -1.56519,1.14707 -1.9833,1.98333 -0.29564,0.59127 0.16034,1.34196 0,1.98324 -0.17926,0.71711 -0.81238,1.26623 -0.99165,1.98333 -0.16034,0.64137 0.36672,1.43323 0,1.98324 -0.40999,0.61511 -1.57329,0.3767 -1.98329,0.99171 -0.36672,0.55002 0.29565,1.39197 0,1.98325 -0.41812,0.83626 -1.56518,1.14715 -1.98331,1.98333 -0.29565,0.59127 0.29566,1.39197 0,1.98333 -0.83622,1.67244 -3.13036,2.29413 -3.96659,3.96657 -0.29565,0.59136 0.36672,1.43322 0,1.98333 -0.40999,0.61492 -1.39199,0.54812 -1.98329,0.99162 -0.74795,0.56094 -1.42234,1.23535 -1.9833,1.98333 -4.56565,6.08757 1.94059,-1.89793 -0.99165,3.96657 -0.41812,0.83627 -1.56518,1.14707 -1.9833,1.98324 -0.29565,0.59136 0.36672,1.43332 0,1.98333 -0.40999,0.61502 -1.5733,0.3767 -1.98329,0.99171 -0.36671,0.55002 0.29564,1.39197 0,1.98324 -0.41812,0.83627 -1.56518,1.14707 -1.9833,1.98334 -0.29566,0.59127 0.36671,1.43322 0,1.98324 -0.40999,0.61501 -1.5733,0.37669 -1.9833,0.99171 -0.15312,0.22964 0.13966,3.40797 0,3.96657 -0.17927,0.71702 -0.75791,1.28211 -0.99165,1.98324 -0.0895,0.26855 -0.0374,4.84616 0,4.95828 0.14783,0.4435 0.66111,0.66114 0.99165,0.99171 0.66111,0.66105 1.3222,1.32219 1.9833,1.98324 2.64439,2.64438 5.28879,5.28876 7.93319,7.93323 0.6611,0.66105 1.3222,1.32219 1.9833,1.98324 0.66109,0.66115 1.42233,1.23536 1.98329,1.98334 0.44348,0.59127 0.75792,1.28211 0.99165,1.98324 0.61387,1.84169 -1.97001,0.99839 1.98329,2.97504 0.59131,0.29563 1.392,-0.29573 1.98331,0 0.83623,0.41804 1.3222,1.32219 1.98329,1.98324 0.66111,0.66114 1.56519,1.14706 1.9833,1.98333 0.35945,0.71891 -0.36138,6.0381 0,6.94152 0.44263,1.10654 1.4503,1.90895 1.9833,2.97495 0.14783,0.29564 -0.10453,0.67811 0,0.99162 0.23373,0.70122 0.81238,1.26632 0.99165,1.98333 0.16034,0.64138 -0.29566,1.39197 0,1.98333 4.62696,9.25389 -0.52975,-3.7696 3.9666,2.97496 0.3667,0.55001 -0.29566,1.39197 0,1.98324 0.41811,0.83617 1.42233,1.23535 1.98329,1.98333 0.44348,0.59127 0.469,1.46066 0.99165,1.98324 0.52265,0.52266 1.5733,0.3767 1.98329,0.99171 0.36672,0.55002 -0.29564,1.39197 0,1.98324 0.41813,0.83626 1.56519,1.14716 1.98331,1.98333 0.29565,0.59127 -0.46748,1.51582 0,1.98324 0.46746,0.46751 1.39199,-0.29564 1.98329,0 0.29566,0.14786 -0.10452,0.67811 0,0.99171 0.56308,1.68923 1.53999,2.89037 2.97495,3.96657 0.35359,2.43604 2.10521,0.41182 2.97495,0.99171 1.55582,1.03721 2.41077,2.92928 3.96658,3.96657 0.27505,0.18334 0.66111,0 0.99166,0 0.99165,0 2.00255,-0.19444 2.97495,0 0.72477,0.14498 1.28209,0.75791 1.9833,0.99162 0.31358,0.10454 0.66109,0 0.99164,0 1.65276,0 3.3055,0 4.95825,0 0.6611,0 1.3222,0 1.9833,0 0.6611,0 1.34193,0.16041 1.98329,0 0.71706,-0.17927 1.26624,-0.81234 1.9833,-0.99162 0.55863,-0.13964 3.73692,0.1531 3.96659,0 0.615,-0.41 0.37666,-1.57332 0.99165,-1.98333 0.55007,-0.36668 1.392,0.29564 1.9833,0 0.6611,-0.66105 1.32219,-1.32219 1.9833,-1.98324 0.66109,-0.66114 1.14706,-1.5652 1.98329,-1.98333 0.59131,-0.29563 1.51583,0.46742 1.9833,0 0.46747,-0.46751 -0.46747,-1.51582 0,-1.98333 0.46747,-0.46742 1.39199,0.29573 1.9833,0 0.29566,-0.14777 -0.23374,-0.75791 0,-0.99162 0.23373,-0.2338 0.6611,0 0.99165,0 0.6611,-0.66105 1.42234,-1.23535 1.9833,-1.98333 0.44347,-0.59127 0.37665,-1.57332 0.99164,-1.98324 2.13703,-1.42474 2.04651,1.88846 3.9666,-0.99171 0.36671,-0.55011 -0.20906,-1.35604 0,-1.98324 0.14783,-0.4435 0.6611,-0.66114 0.99165,-0.99171 0.6611,-0.66105 1.20539,-1.46464 1.9833,-1.98324 0.27503,-0.18343 0.71661,0.18334 0.99165,0 0.77791,-0.51861 1.23534,-1.42239 1.98329,-1.98333 0.59131,-0.4435 1.46066,-0.46896 1.9833,-0.99162 5.06771,-5.06778 -4.15796,1.38312 2.97495,-3.96658 0.59131,-0.44349 1.46066,-0.46904 1.98329,-0.99171 0.52265,-0.52257 0.54818,-1.39197 0.99166,-1.98333 0.56096,-0.74789 1.3222,-1.3221 1.98329,-1.98324 0.6611,-0.66105 1.23536,-1.4223 1.9833,-1.98333 0.59131,-0.4435 1.392,-0.54812 1.9833,-0.99162 0.74795,-0.56094 1.25324,-1.39928 1.9833,-1.98333 2.43951,-1.95155 3.16249,-1.57224 4.95824,-3.96657 0.44348,-0.59127 0.54817,-1.39197 0.99165,-1.98324 0.56096,-0.74798 1.3222,-1.32228 1.9833,-1.98333 0.6611,-0.66114 1.3222,-1.32219 1.9833,-1.98333 0.6611,-0.66105 1.46468,-1.20538 1.98329,-1.98333 0.18336,-0.27497 -0.14782,-0.6959 0,-0.99162 1.52328,-3.04654 0.55933,1.64012 2.97496,-1.98333 0.3667,-0.55002 0,-1.3221 0,-1.98325 0,-0.36415 0.0399,-3.92667 0,-3.96657 -0.23374,-0.2338 -0.69601,0.14787 -0.99166,0 -4.127,-2.06349 1.06011,0.0686 -0.99165,-1.98333 -0.52265,-0.52266 -1.46065,-0.46895 -1.98329,-0.99162 -5.06771,-5.06769 4.15796,1.38313 -2.97495,-3.96657 -0.59131,-0.4435 -1.46065,-0.46904 -1.9833,-0.99171 -0.52265,-0.52258 -0.54817,-1.39197 -0.99165,-1.98333 -5.34968,-7.1329 1.1011,2.09283 -3.96659,-2.97495 -0.52265,-0.52258 -0.54817,-1.39197 -0.99165,-1.98324 -0.56097,-0.74798 -1.3222,-1.32219 -1.9833,-1.98333 -0.6611,-0.66105 -1.23535,-1.4223 -1.9833,-1.98324 -0.59131,-0.4435 -1.39199,-0.54822 -1.9833,-0.99171 -5.26222,-3.94663 0.005,0.009 -1.98329,-3.96658 -0.41812,-0.83617 -1.3222,-1.32219 -1.9833,-1.98324 -0.66111,-0.66114 -1.3222,-1.32228 -1.9833,-1.98333 -0.6611,-0.66114 -1.42233,-1.23535 -1.9833,-1.98333 -0.44347,-0.59127 -0.54817,-1.39197 -0.99165,-1.98333 -0.56096,-0.74789 -1.56518,-1.14697 -1.98329,-1.98324 -0.29566,-0.59136 0.29565,-1.39197 0,-1.98333 -0.41812,-0.83617 -1.56518,-1.14698 -1.9833,-1.98324 -0.6611,-1.32219 0.6611,-3.63609 0,-4.95828 -0.41812,-0.83627 -1.56519,-1.14707 -1.9833,-1.98324 -0.29566,-0.59136 0.29565,-1.39206 0,-1.98333 -0.41812,-0.83627 -1.56518,-1.14707 -1.9833,-1.98333 -0.66109,-1.3222 0.66111,-3.63601 0,-4.9582 -0.41811,-0.83626 -1.56518,-1.14706 -1.98329,-1.98333 -0.29566,-0.59136 0.20906,-1.35613 0,-1.98333 -0.14783,-0.44341 -0.84383,-0.54812 -0.99166,-0.99162 -0.35802,-1.07404 0.39488,-6.15184 0,-6.94152 -0.4181,-0.83627 -1.56518,-1.14707 -1.98329,-1.98333 -0.29566,-0.59127 0.46746,-1.51582 0,-1.98333 -0.46747,-0.46742 -1.39199,0.29572 -1.9833,0 -0.29565,-0.14778 0.23373,-0.75791 0,-0.99162 -0.23374,-0.23371 -0.71661,0.18343 -0.99165,0 -4.51426,-4.51424 0.41076,-0.5242 -3.96659,-1.98324 -0.44348,-0.14787 -0.54817,-0.84385 -0.99165,-0.99171 -0.94076,-0.3136 -1.9833,0 -2.97494,0 -1.65275,0 -3.30551,0 -4.95825,0 -2.6444,0 -5.2888,0 -7.9332,0 -0.99164,0 -2.0129,-0.24048 -2.97494,0 -0.71706,0.17927 -1.28209,0.75791 -1.98329,0.99171 -0.89249,0.29744 -2.08247,-0.29753 -2.97495,0 -0.44348,0.14777 -0.57354,0.78255 -0.99165,0.99162 -0.26075,0.13035 -3.44804,0 -3.9666,0 -0.44659,0 -2.67315,-0.15094 -2.97494,0 -1.03453,0.51725 -1.56823,2.39839 -1.9833,1.98324 -0.33055,-0.33048 0.6611,-0.66105 0.99164,-0.99162 -1.98329,0.33057 -3.96659,0.66114 -5.94988,0.99162 z"
       id="path4194"
       inkscape:connector-curvature="0" />
    <path
       style="fill:#00ab00;fill-opacity:1;stroke:#000000;stroke-width:0.49084112px;stroke-linecap:butt;stroke-linejoin:miter;stroke-opacity:1"
       d="m 275.42587,743.87018 c 2.11371,3.44761 5.10871,6.10039 7.93319,8.92486 0.6611,0.66114 1.56519,1.14706 1.9833,1.98333 0.29566,0.59127 -0.36671,1.43322 0,1.98333 0.41,0.61492 1.46066,0.46895 1.9833,0.99162 0.52265,0.52266 0.54817,1.39197 0.99165,1.98333 2.45077,3.26761 1.9833,0.47067 1.9833,3.96657 0,0.99162 -0.44348,2.08795 0,2.97495 0.41811,0.83618 1.46469,1.20538 1.98329,1.98324 0.18336,0.27506 0,0.66114 0,0.99171 0,0.6513 -0.197,5.65436 0,5.9499 0.41,0.61493 1.46066,0.46896 1.9833,0.99162 4.80024,4.80022 -2.15041,-0.74653 0.99165,3.96658 1.92009,2.88016 1.82958,-0.43303 3.9666,0.99171 0.61499,0.40991 0.37665,1.57323 0.99164,1.98324 1.10015,0.73344 2.86647,-0.73345 3.9666,0 3.8619,2.5746 -2.05027,1.98333 2.97495,1.98333 1.01242,0 6.45977,-0.16059 6.94154,0 0.44347,0.14777 0.54817,0.84376 0.99165,0.99162 1.21629,0.4054 2.38873,0.18081 2.97494,-0.99162 0.0553,-0.11067 0.0553,-4.84761 0,-4.95828 -0.20906,-0.41814 -0.78259,-0.57349 -0.99165,-0.99162 -0.14782,-0.29573 0,-0.66114 0,-0.99162 0,-0.66114 0.20906,-1.35614 0,-1.98334 -0.14782,-0.44349 -0.84382,-0.54812 -0.99164,-0.99162 -0.20906,-0.62719 0.36671,-1.43331 0,-1.98333 -0.41,-0.61501 -1.57331,-0.3766 -1.9833,-0.99171 -0.6611,-0.99162 0.33055,-1.98324 0,-2.97486 -0.23373,-0.70122 -0.75792,-1.28211 -0.99165,-1.98333 -0.62087,-1.86264 0.93131,-0.18099 0,-2.97495 -0.14783,-0.4435 -0.6611,-0.66114 -0.99165,-0.99162 -0.33055,-0.33057 -0.57353,-0.78264 -0.99165,-0.99171 -0.29565,-0.14777 -0.696,0.14786 -0.99165,0 -0.41811,-0.20898 -0.57353,-0.78255 -0.99164,-0.99162 -0.29566,-0.14786 -0.69601,0.14777 -0.99165,0 -0.41812,-0.20907 -0.57353,-0.78255 -0.99165,-0.99162 -0.29565,-0.14786 -0.696,0.14777 -0.99165,0 -0.41811,-0.20907 -0.57354,-0.78265 -0.99164,-0.99162 -0.39319,-0.19661 -2.77222,0.20266 -2.97495,0 -0.23374,-0.2338 0.23372,-0.75791 0,-0.99171 -0.46748,-0.46742 -1.392,0.29563 -1.98331,0 -0.41811,-0.20907 -0.57353,-0.78256 -0.99164,-0.99162 -0.5913,-0.29564 -1.35613,0.20906 -1.9833,0 -0.7012,-0.23371 -1.28209,-0.75791 -1.9833,-0.99162 -0.89248,-0.29753 -2.08246,0.29744 -2.97495,0 -0.44348,-0.14787 -0.66109,-0.66114 -0.99164,-0.99171 -0.33055,-0.33057 -0.66111,-0.66105 -0.99165,-0.99162 -0.6611,-0.66114 -1.3222,-1.32219 -1.9833,-1.98333 -0.6611,-0.66105 -1.56518,-1.14707 -1.9833,-1.98333 -0.29565,-0.59128 0.29566,-1.39197 0,-1.98325 -0.14783,-0.29563 -0.75792,0.23371 -0.99165,0 -0.46746,-0.46751 0.29566,-1.39196 0,-1.98333 -3.28888,-3.28882 0.46747,0.93502 -0.99164,-1.98324 -0.20906,-0.41813 -0.78259,-0.57357 -0.99166,-0.99171 -0.14783,-0.29563 0,-0.66105 0,-0.99162 0,-0.51851 0.13038,-3.70587 0,-3.96657 -0.20905,-0.41813 -0.57353,-0.78255 -0.99164,-0.99162 -0.29565,-0.14786 -0.6611,0 -0.99165,0 -0.33055,0 -0.75791,-0.2338 -0.99165,0 -0.23373,0.23371 0.23374,0.75791 0,0.99162 -0.23373,0.23371 -0.6611,0 -0.99165,0 -1.3222,1.65267 -2.6444,3.30543 -3.9666,4.95819 z"
       id="path4196"
       inkscape:connector-curvature="0" />
    <text
       xml:space="preserve"
       style="font-size:1.06733739px;font-style:normal;font-weight:normal;line-height:125%;letter-spacing:0px;word-spacing:0px;fill:#ffffff;fill-opacity:1;stroke:none;font-family:Sans"
       x="445.81201"
       y="173.67154"
       id="text3161"
       sodipodi:linespacing="125%"
       transform="scale(0.95620436,1.0458016)"><tspan
         sodipodi:role="line"
         x="445.81201"
         y="173.67154"
         id="tspan3163"><tspan
           x="445.81201"
           y="173.67154"
           id="tspan3165">not 3,4-methilenedioxy-phenyl-2-propanone - mdma precursor </tspan></tspan></text>
  </g>
</svg>
